SplineFontDB: 3.2
FontName: Cooper-Black
FullName: Cooper* Black
FamilyName: Cooper* Black
Weight: Black
Copyright: Data copyright (c) URW Software & Type GmbH., additional data copyright The Monotype Corporation. Copyright 1994 Microsoft Corporation. All rights reserved.
Version: 1.51
ItalicAngle: 0
UnderlinePosition: -366
UnderlineWidth: 257
Ascent: 1638
Descent: 410
InvalidEm: 0
sfntRevision: 0x0001828f
LayerCount: 2
Layer: 0 1 "Hinten" 1
Layer: 1 1 "Vorne" 0
XUID: [1021 367 390255522 10984810]
StyleMap: 0x0020
FSType: 0
OS2Version: 2
OS2_WeightWidthSlopeOnly: 0
OS2_UseTypoMetrics: 0
CreationTime: 760276587
ModificationTime: 1771186516
PfmFamily: 17
TTFWeight: 900
TTFWidth: 5
LineGap: 0
VLineGap: 0
Panose: 2 8 9 4 4 3 11 2 4 4
OS2TypoAscent: 1376
OS2TypoAOffset: 0
OS2TypoDescent: -395
OS2TypoDOffset: 0
OS2TypoLinegap: 0
OS2WinAscent: 1880
OS2WinAOffset: 0
OS2WinDescent: 469
OS2WinDOffset: 0
HheadAscent: 1880
HheadAOffset: 0
HheadDescent: -469
HheadDOffset: 0
OS2SubXSize: 1434
OS2SubYSize: 1331
OS2SubXOff: 0
OS2SubYOff: 200
OS2SupXSize: 1434
OS2SupYSize: 1331
OS2SupXOff: 0
OS2SupYOff: 550
OS2StrikeYSize: 257
OS2StrikeYPos: 530
OS2XHeight: 989
OS2Vendor: 'URW '
OS2CodePages: 20000001.00000000
OS2UnicodeRanges: 00000003.00000000.00000000.00000000
Lookup: 258 0 0 "'kern' Horizontal Kerning in Latin lookup 0" { "'kern' Horizontal Kerning in Latin lookup 0 subtable"  } ['kern' ('DFLT' <'dflt' > 'latn' <'dflt' > ) ]
MarkAttachClasses: 1
DEI: 91125
TtTable: prep
NPUSHB
 10
 64
 25
 39
 46
 55
 64
 22
 39
 46
 55
PUSHW_1
 -64
NPUSHB
 9
 16
 39
 46
 55
 64
 19
 39
 46
 55
PUSHW_1
 -64
PUSHB_5
 4
 39
 46
 55
 48
PUSHW_3
 274
 80
 274
NPUSHB
 25
 2
 64
 5
 25
 30
 55
 64
 17
 25
 32
 55
 16
 53
 1
 31
 47
 16
 52
 2
 16
 201
 1
 96
 208
 1
PUSHW_1
 260
NPUSHB
 75
 243
 38
 31
 179
 178
 20
 31
 175
 243
 32
 31
 174
 243
 32
 31
 0
 198
 16
 198
 80
 198
 176
 198
 4
 16
 198
 32
 198
 48
 198
 64
 198
 80
 198
 128
 198
 144
 198
 160
 198
 176
 198
 224
 198
 240
 198
 11

StartChar: exclam
Encoding: 33 33 1
Width: 631
Flags: MW
LayerCount: 2
Fore
SplineSet
316 1351 m 0,0,1
 405 1351 405 1351 467 1287 c 0,2,3
 550 1203 550 1203 550 1049 c 0,4,5
 550 947 550 947 514.5 829.5 c 128,-1,6
 479 712 479 712 416 614 c 128,-1,7
 353 516 353 516 312.5 516 c 128,-1,8
 272 516 272 516 208.5 631.5 c 0,9,10
 82 861.590551181 82 861.590551181 82 1064 c 0,11,12
 82 1178 82 1178 133 1255 c 0,13,14
 196 1351 196 1351 316 1351 c 0,0,1
468 37.5 m 128,-1,16
 404 -27 404 -27 316 -27 c 128,-1,17
 228 -27 228 -27 163.5 34.5 c 128,-1,18
 99 96 99 96 99 186.5 c 128,-1,19
 99 277 99 277 161.5 341.5 c 128,-1,20
 224 406 224 406 316 406 c 128,-1,21
 408 406 408 406 470 341.5 c 128,-1,22
 532 277 532 277 532 189.5 c 128,-1,15
 532 102 532 102 468 37.5 c 128,-1,16
EndSplineSet
EndChar

StartChar: quotedbl
Encoding: 34 34 2
Width: 885
Flags: MW
LayerCount: 2
Fore
SplineSet
651 1385 m 0
 725 1385 725 1385 771 1322 c 0
 817 1259 817 1259 817 1170.5 c 0
 817 989.142857143 817 989.142857143 725 838 c 0
 678 760 678 760 649 760 c 0
 620 760 620 760 569 859 c 0
 486 1019 486 1019 486 1171 c 0
 486 1267 486 1267 531.5 1326 c 0
 577 1385 577 1385 651 1385 c 0
EndSplineSet
Refer: 7 39 S 1 0 0 1 0 0 2
EndChar

StartChar: numbersign
Encoding: 35 35 3
Width: 1229
Flags: MW
LayerCount: 2
Fore
SplineSet
572 565 m 2,0,-1
 638 565 l 2,1,2
 664 565 664 565 672.5 572 c 128,-1,3
 681 579 681 579 685 606 c 2,4,-1
 692 662 l 2,5,6
 695 680 695 680 695 685 c 0,7,8
 695 709 695 709 658 709 c 2,9,-1
 592 709 l 2,10,11
 566 709 566 709 557.5 702 c 128,-1,12
 549 695 549 695 546 668 c 2,13,-1
 538 612 l 2,14,15
 536 600 536 600 536 590 c 0,16,17
 536 565 536 565 572 565 c 2,0,-1
989 920 m 1,18,-1
 1109 925 l 1,19,20
 1141 925 1141 925 1141 892 c 0,21,22
 1141 872 1141 872 1095.5 784.5 c 128,-1,23
 1050 697 1050 697 1005 697 c 1,24,-1
 942 704 l 1,25,26
 919 704 919 704 914 666 c 2,27,-1
 908 619 l 2,28,29
 905 600 905 600 905 594 c 0,30,31
 905 563 905 563 961 563 c 1,32,-1
 1059 570 l 1,33,34
 1092 570 1092 570 1092 541 c 0,35,36
 1092 523 1092 523 1067 469 c 128,-1,37
 1042 415 1042 415 1015.5 378.5 c 128,-1,38
 989 342 989 342 957 342 c 1,39,-1
 893 349 l 1,40,41
 870 349 870 349 865 313 c 0,42,43
 850 220 850 220 848 145 c 128,-1,44
 846 70 846 70 820.5 49.5 c 128,-1,45
 795 29 795 29 722.5 1 c 128,-1,46
 650 -27 650 -27 627 -27 c 0,47,48
 595 -27 595 -27 595 9 c 0,49,50
 595 18 595 18 606 72 c 128,-1,51
 617 126 617 126 633 239 c 2,52,-1
 641 297 l 2,53,54
 643 309 643 309 643 319 c 0,55,56
 643 354 643 354 601 354 c 2,57,-1
 542 354 l 2,58,59
 500 354 500 354 496 313 c 1,60,-1
 493 291 l 2,61,62
 481 207 481 207 479 138.5 c 128,-1,63
 477 70 477 70 451.5 49.5 c 128,-1,64
 426 29 426 29 353.5 1 c 128,-1,65
 281 -27 281 -27 258 -27 c 0,66,67
 226 -27 226 -27 226 10 c 0,68,69
 226 18 226 18 237 72.5 c 128,-1,70
 248 127 248 127 264 239 c 1,71,-1
 271 283 l 1,72,73
 275 321 275 321 275 322 c 0,74,75
 275 354 275 354 225 354 c 1,76,-1
 129 348 l 1,77,78
 87 348 87 348 87 379 c 0,79,80
 87 392 87 392 117 450.5 c 128,-1,81
 147 509 147 509 172.5 542.5 c 128,-1,82
 198 576 198 576 241 576 c 1,83,-1
 287 573 l 1,84,85
 311 573 311 573 317 611 c 1,86,-1
 324 668 l 2,87,88
 325 675 325 675 325 682 c 0,89,90
 324 709 324 709 294 709 c 1,91,-1
 178 703 l 1,92,93
 136 703 136 703 136 734 c 0,94,95
 136 748 136 748 165 804.5 c 128,-1,96
 194 861 194 861 220.5 896 c 128,-1,97
 247 931 247 931 291 931 c 1,98,-1
 337 927 l 1,99,100
 361 927 361 927 366 966 c 1,101,-1
 372 1004 l 1,102,103
 378 1052 378 1052 379 1142 c 0,104,105
 380 1187 380 1187 407 1206 c 0,106,107
 436 1225 436 1225 502.5 1249 c 128,-1,108
 569 1273 569 1273 599.5 1273 c 128,-1,109
 630 1273 630 1273 630 1243 c 0,110,111
 630 1232 630 1232 624.5 1211.5 c 128,-1,112
 619 1191 619 1191 608 1113 c 2,113,-1
 588 967 l 2,114,115
 585 948 585 948 585 946 c 0,116,117
 583 920 583 920 629 920 c 2,118,-1
 681 920 l 2,119,120
 711 920 711 920 721 928.5 c 128,-1,121
 731 937 731 937 735 967 c 2,122,-1
 740 1004 l 2,123,124
 748 1059 748 1059 748 1122.5 c 128,-1,125
 748 1186 748 1186 776 1206 c 0,126,127
 805 1226 805 1226 871.5 1249.5 c 128,-1,128
 938 1273 938 1273 958.5 1273 c 0,129,130
 999 1273 999 1273 999 1243 c 0,131,132
 999 1232 999 1232 993.5 1211.5 c 128,-1,133
 988 1191 988 1191 977 1113 c 2,134,-1
 957 967 l 2,135,136
 954 949 954 949 954 943 c 0,137,138
 954 920 954 920 989 920 c 1,18,-1
EndSplineSet
EndChar

StartChar: dollar
Encoding: 36 36 4
Width: 1229
Flags: MW
LayerCount: 2
Fore
SplineSet
860 1137 m 1,0,-1
 947 1158 l 1,1,2
 1000 1158 1000 1158 1068 1066.5 c 128,-1,3
 1136 975 1136 975 1136 886 c 0,4,5
 1136 834 1136 834 1107 802 c 128,-1,6
 1078 770 1078 770 1038 770 c 128,-1,7
 998 770 998 770 976.5 784.5 c 128,-1,8
 955 799 955 799 864 882.5 c 128,-1,9
 773 966 773 966 668 966 c 0,10,11
 623 966 623 966 594.5 941.5 c 128,-1,12
 566 917 566 917 566 870.5 c 128,-1,13
 566 824 566 824 626 792 c 0,14,15
 649 779 649 779 810 730.5 c 128,-1,16
 971 682 971 682 1054 608 c 0,17,18
 1160 512 1160 512 1160 356.5 c 128,-1,19
 1160 201 1160 201 1047 95 c 0,20,21
 984 35 984 35 900 -5 c 128,-1,22
 816 -45 816 -45 765.5 -49 c 128,-1,23
 715 -53 715 -53 708 -61 c 128,-1,24
 701 -69 701 -69 701 -98 c 2,25,-1
 701 -144 l 2,26,27
 701 -184 701 -184 688 -197 c 128,-1,28
 675 -210 675 -210 636 -210 c 2,29,-1
 552 -210 l 2,30,31
 512 -210 512 -210 499 -197 c 128,-1,32
 486 -184 486 -184 486 -144 c 2,33,-1
 486 -98 l 2,34,35
 486 -71 486 -71 480.5 -62.5 c 128,-1,36
 475 -54 475 -54 422.5 -47.5 c 128,-1,37
 370 -41 370 -41 284.5 -14.5 c 128,-1,38
 199 12 199 12 165 40 c 128,-1,39
 131 68 131 68 99.5 161 c 128,-1,40
 68 254 68 254 68 315 c 0,41,42
 68 425 68 425 139 425 c 0,43,44
 177 425 177 425 217 379 c 0,45,46
 228 366 228 366 275.5 292.5 c 0,47,48
 366.299319728 152 366.299319728 152 541 152 c 0,49,50
 606 152 606 152 647.5 176 c 128,-1,51
 689 200 689 200 689 242 c 128,-1,52
 689 284 689 284 632 316 c 0,53,54
 613 326 613 326 461 381 c 0,55,56
 98 510 98 510 98 783 c 0,57,58
 98 936 98 936 223 1051 c 0,59,60
 320 1141 320 1141 442 1165 c 0,61,62
 474 1171 474 1171 480 1178 c 128,-1,63
 486 1185 486 1185 486 1214 c 2,64,-1
 486 1261 l 2,65,66
 486 1301 486 1301 499 1314 c 128,-1,67
 512 1327 512 1327 552 1327 c 2,68,-1
 636 1327 l 2,69,70
 675 1327 675 1327 688 1314 c 128,-1,71
 701 1301 701 1301 701 1261 c 2,72,-1
 701 1213 l 2,73,74
 701 1181 701 1181 710 1174.5 c 128,-1,75
 719 1168 719 1168 754.5 1161.5 c 128,-1,76
 790 1155 790 1155 820 1146 c 128,-1,77
 850 1137 850 1137 860 1137 c 1,0,-1
EndSplineSet
EndChar

StartChar: percent
Encoding: 37 37 5
Width: 1660
Flags: MW
LayerCount: 2
Fore
SplineSet
545 353 m 1,0,-1
 934 1010 l 1,1,2
 1055 1221 1055 1221 1088.5 1289.5 c 128,-1,3
 1122 1358 1122 1358 1145.5 1375.5 c 128,-1,4
 1169 1393 1169 1393 1213 1393 c 0,5,6
 1308 1393 1308 1393 1308 1346 c 0,7,8
 1308 1313 1308 1313 1240 1213 c 128,-1,9
 1172 1113 1172 1113 1065 934 c 1,10,-1
 756 411 l 1,11,12
 660 235 660 235 577 85 c 0,13,14
 550 29 550 29 529 10 c 128,-1,15
 508 -9 508 -9 465.5 -9 c 128,-1,16
 423 -9 423 -9 390.5 6 c 128,-1,17
 358 21 358 21 358 42 c 128,-1,18
 358 63 358 63 383 100 c 128,-1,19
 408 137 408 137 545 353 c 1,0,-1
1202 530 m 0,20,21
 1175 530 1175 530 1158.5 509.5 c 128,-1,22
 1142 489 1142 489 1142 456 c 0,23,24
 1142 356 1142 356 1172.5 279 c 128,-1,25
 1203 202 1203 202 1220.5 183.5 c 128,-1,26
 1238 165 1238 165 1266 165 c 0,27,28
 1322 165 1322 165 1322 242 c 0,29,30
 1322 357 1322 357 1278 461 c 0,31,32
 1249 528 1249 528 1202 530 c 0,20,21
1271 685 m 0,33,34
 1397 685 1397 685 1499 605 c 0,35,36
 1632 501 1632 501 1632 352 c 0,37,38
 1632 278 1632 278 1595.5 208 c 128,-1,39
 1559 138 1559 138 1495 87 c 0,40,41
 1373 -9 1373 -9 1207 -9 c 128,-1,42
 1041 -9 1041 -9 942 84.5 c 128,-1,43
 843 178 843 178 843 327.5 c 128,-1,44
 843 477 843 477 958 576 c 0,45,46
 1015 626 1015 626 1100 655.5 c 128,-1,47
 1185 685 1185 685 1271 685 c 0,33,34
386 1231 m 0,48,49
 360 1231 360 1231 343 1210.5 c 128,-1,50
 326 1190 326 1190 326 1157 c 0,51,52
 326 1058 326 1058 356.5 980.5 c 128,-1,53
 387 903 387 903 404.5 884.5 c 128,-1,54
 422 866 422 866 450 866 c 0,55,56
 506 866 506 866 506 943 c 0,57,58
 506 1058 506 1058 461 1162 c 0,59,60
 433 1229 433 1229 386 1231 c 0,48,49
455 1386 m 0,61,62
 581 1386 581 1386 683 1306 c 0,63,64
 816 1202 816 1202 816 1053 c 0,65,66
 816 979 816 979 779.5 909 c 128,-1,67
 743 839 743 839 679 788 c 0,68,69
 557 692 557 692 391 692 c 128,-1,70
 225 692 225 692 126 785.5 c 128,-1,71
 27 879 27 879 27 1028.5 c 128,-1,72
 27 1178 27 1178 142 1277 c 0,73,74
 199 1327 199 1327 283.5 1356.5 c 128,-1,75
 368 1386 368 1386 455 1386 c 0,61,62
EndSplineSet
EndChar

StartChar: ampersand
Encoding: 38 38 6
Width: 1780
Flags: MW
LayerCount: 2
Fore
SplineSet
1267 1117 m 1,0,1
 1225 1117 1225 1117 1225 1172.5 c 0,2,3
 1225 1203 1225 1203 1264 1239.5 c 128,-1,4
 1303 1276 1303 1276 1363 1297 c 128,-1,5
 1423 1318 1423 1318 1484 1318 c 0,6,7
 1595 1318 1595 1318 1678 1261 c 0,8,9
 1779 1192.23404255 1779 1192.23404255 1779 1049 c 0,10,11
 1779 976 1779 976 1721 895 c 128,-1,12
 1663 814 1663 814 1575.5 767 c 128,-1,13
 1488 720 1488 720 1488 691 c 0,14,15
 1488 670 1488 670 1535 641 c 128,-1,16
 1582 612 1582 612 1608.5 563.5 c 128,-1,17
 1635 515 1635 515 1635 459 c 0,18,19
 1635 365 1635 365 1563 267 c 0,20,21
 1456 120 1456 120 1256.5 46.5 c 128,-1,22
 1057 -27 1057 -27 830 -27 c 0,23,24
 531 -27 531 -27 319 84 c 0,25,26
 166 163 166 163 82 315 c 0,27,28
 27 414 27 414 27 530.5 c 128,-1,29
 27 647 27 647 106 733 c 0,30,31
 153 785 153 785 197.5 807.5 c 128,-1,32
 242 830 242 830 242 848 c 0,33,34
 242 857 242 857 232 874 c 0,35,36
 171 979 171 979 171 1052.5 c 128,-1,37
 171 1126 171 1126 213.5 1198.5 c 128,-1,38
 256 1271 256 1271 325.5 1318 c 128,-1,39
 395 1365 395 1365 485 1392 c 128,-1,40
 575 1419 575 1419 687 1419 c 128,-1,41
 799 1419 799 1419 899 1363.5 c 128,-1,42
 999 1308 999 1308 999 1231 c 0,43,44
 999 1187 999 1187 964.5 1152 c 128,-1,45
 930 1117 930 1117 899 1117 c 128,-1,46
 868 1117 868 1117 855.5 1123 c 128,-1,47
 843 1129 843 1129 792.5 1163.5 c 128,-1,48
 742 1198 742 1198 691 1198 c 128,-1,49
 640 1198 640 1198 606.5 1160 c 128,-1,50
 573 1122 573 1122 573 1054.5 c 128,-1,51
 573 987 573 987 633 955 c 0,52,53
 649 947 649 947 724 937 c 0,54,55
 785 930 785 930 785 851 c 128,-1,56
 785 772 785 772 718 733 c 0,57,58
 688 716 688 716 607 705 c 0,59,60
 560 698 560 698 560 606 c 128,-1,61
 560 514 560 514 620.5 414 c 128,-1,62
 681 314 681 314 769 263 c 128,-1,63
 857 212 857 212 962 212 c 128,-1,64
 1067 212 1067 212 1154.5 280.5 c 128,-1,65
 1242 349 1242 349 1242 448 c 0,66,67
 1242 496 1242 496 1204.5 530.5 c 128,-1,68
 1167 565 1167 565 1114 565 c 0,69,70
 1032 565 1032 565 972 463 c 0,71,72
 946 419 946 419 914 419 c 128,-1,73
 882 419 882 419 856 461.5 c 128,-1,74
 830 504 830 504 830 561 c 0,75,76
 830 683 830 683 916.5 779 c 128,-1,77
 1003 875 1003 875 1151 929.5 c 128,-1,78
 1299 984 1299 984 1331.5 1014 c 128,-1,79
 1364 1044 1364 1044 1364 1072 c 128,-1,80
 1364 1100 1364 1100 1350 1115 c 128,-1,81
 1336 1130 1336 1130 1317 1130 c 1,82,-1
 1267 1117 l 1,0,1
EndSplineSet
EndChar

StartChar: quotesingle
Encoding: 39 39 7
Width: 467
Flags: MW
LayerCount: 2
Fore
SplineSet
233 1385 m 128,-1,1
 307 1385 307 1385 353 1322 c 128,-1,2
 399 1259 399 1259 399 1170.5 c 0,3,4
 399 989.142857143 399 989.142857143 307 838 c 0,5,6
 260 760 260 760 231.5 760 c 128,-1,7
 203 760 203 760 151 859 c 0,8,9
 68 1018 68 1018 68 1171 c 0,10,11
 68 1267 68 1267 113.5 1326 c 128,-1,0
 159 1385 159 1385 233 1385 c 128,-1,1
EndSplineSet
EndChar

StartChar: parenleft
Encoding: 40 40 8
Width: 1021
Flags: MW
LayerCount: 2
Fore
SplineSet
1001 -290 m 0,0,1
 1001 -389 1001 -389 801 -389 c 0,2,3
 532 -389 532 -389 351 -161 c 0,4,5
 137 108 137 108 137 521 c 0,6,7
 137 819 137 819 243 1036 c 0,8,9
 413 1386 413 1386 772 1387 c 0,10,11
 907 1387 907 1387 970 1348 c 0,12,13
 1000 1329 1000 1329 1000 1283 c 128,-1,14
 1000 1237 1000 1237 982.5 1210 c 128,-1,15
 965 1183 965 1183 935 1183 c 1,16,-1
 813 1196 l 1,17,18
 687 1196 687 1196 629 1012 c 0,19,20
 560 794 560 794 560 555.5 c 0,21,22
 560 97.9636363636 560 97.9636363636 678 -108 c 0,23,24
 734 -202 734 -202 832 -202 c 1,25,-1
 929 -196 l 1,26,27
 1001 -196 1001 -196 1001 -290 c 0,0,1
EndSplineSet
EndChar

StartChar: parenright
Encoding: 41 41 9
Width: 1021
Flags: MW
LayerCount: 2
Fore
SplineSet
20 1287 m 0,0,1
 20 1386 20 1386 220 1386 c 0,2,3
 488 1386 488 1386 670 1158 c 0,4,5
 884 889 884 889 884 468 c 128,-1,6
 884 47 884 47 669 -205 c 0,7,8
 512 -390 512 -390 249 -390 c 0,9,10
 114 -390 114 -390 51 -351 c 0,11,12
 21 -333 21 -333 21 -287 c 0,13,14
 21 -190 21 -190 86 -187 c 0,15,16
 100 -186 100 -186 143 -192.5 c 128,-1,17
 186 -199 186 -199 208 -199 c 0,18,19
 334 -199 334 -199 392 -15 c 0,20,21
 461 203 461 203 461 441.5 c 0,22,23
 461 901 461 901 342 1105 c 0,24,25
 287 1199 287 1199 189 1199 c 1,26,-1
 92 1193 l 1,27,28
 20 1193 20 1193 20 1287 c 0,0,1
EndSplineSet
EndChar

StartChar: asterisk
Encoding: 42 42 10
Width: 1229
Flags: MW
LayerCount: 2
Fore
SplineSet
471 1115 m 2,0,1
 488 1109 488 1109 496.666666667 1109 c 128,-1,2
 505.333333333 1109 505.333333333 1109 511 1143 c 1,3,-1
 505 1281 l 1,4,-1
 505 1292 l 2,5,6
 505 1354 505 1354 523.5 1369.5 c 128,-1,7
 542 1385 542 1385 609 1385 c 128,-1,8
 676 1385 676 1385 701.436161097 1373.21251071 c 128,-1,9
 726.872322194 1361.42502142 726.872322194 1361.42502142 724 1281 c 2,10,-1
 719 1143 l 1,11,12
 719 1109 719 1109 736 1109 c 0,13,14
 742 1109 742 1109 758 1115 c 2,15,-1
 887 1163 l 2,16,17
 931 1179 931 1179 952.5 1179 c 128,-1,18
 974 1179 974 1179 986 1166 c 128,-1,19
 998 1153 998 1153 1017 1102 c 128,-1,20
 1036 1051 1036 1051 1038 1014.5 c 128,-1,21
 1040 978 1040 978 955 955 c 1,22,-1
 822 917 l 2,23,24
 794 909 794 909 794 894 c 0,25,26
 794 888 794 888 807 871 c 2,27,-1
 893 763 l 2,28,29
 931 714 931 714 931 687.5 c 128,-1,30
 931 661 931 661 869 617 c 128,-1,31
 807 573 807 573 782 573 c 128,-1,32
 757 573 757 573 715 634 c 1,33,-1
 639 749 l 2,34,35
 625 769 625 769 614.5 769 c 128,-1,36
 604 769 604 769 590 749 c 2,37,-1
 514 634 l 2,38,39
 473 573 473 573 447.5 573 c 128,-1,40
 422 573 422 573 360 616.5 c 128,-1,41
 298 660 298 660 298 686.5 c 128,-1,42
 298 713 298 713 337 763 c 2,43,-1
 422 871 l 2,44,45
 435 888 435 888 435 895 c 0,46,47
 435 909 435 909 407 917 c 2,48,-1
 275 955 l 2,49,50
 192 978 192 978 192 1014.5 c 128,-1,51
 192 1051 192 1051 222 1128 c 0,52,53
 242 1178 242 1178 277 1178 c 0,54,55
 300 1178 300 1178 342 1163 c 2,56,-1
 471 1115 l 2,0,1
EndSplineSet
EndChar

StartChar: plus
Encoding: 43 43 11
Width: 1229
Flags: MW
LayerCount: 2
Fore
SplineSet
487 127 m 2,0,-1
 494 347 l 1,1,-1
 494 414 l 1,2,3
 497 472 497 472 439 469 c 1,4,-1
 390 469 l 1,5,-1
 169 462 l 2,6,7
 150 462 150 462 136.5 473.5 c 128,-1,8
 123 485 123 485 123 501.5 c 128,-1,9
 123 518 123 518 144.5 579.5 c 128,-1,10
 166 641 166 641 186.5 677.5 c 128,-1,11
 207 714 207 714 247 714 c 1,12,-1
 414 703 l 1,13,-1
 441 703 l 2,14,15
 495 703 495 703 494 757 c 1,16,-1
 494 822 l 1,17,18
 493 884 493 884 486.5 927 c 128,-1,19
 480 970 480 970 480 981 c 0,20,21
 480 1017 480 1017 530 1039 c 0,22,23
 645.909090909 1090 645.909090909 1090 693.954545455 1090 c 128,-1,24
 742 1090 742 1090 742 1051 c 0,25,26
 742 1046 742 1046 739.5 1028.5 c 128,-1,27
 737 1011 737 1011 737 931 c 2,28,-1
 737 757 l 1,29,30
 738 704 738 704 792 703 c 1,31,-1
 947 703 l 2,32,33
 1026 703 1026 703 1044 705.5 c 128,-1,34
 1062 708 1062 708 1067 708 c 0,35,36
 1106 708 1106 708 1106 668 c 0,37,38
 1106 646 1106 646 1089 590.5 c 128,-1,39
 1072 535 1072 535 1051 495 c 128,-1,40
 1030 455 1030 455 997 455 c 1,41,-1
 838 469 l 1,42,-1
 792 469 l 1,43,44
 733 473 733 473 737 414 c 1,45,-1
 737 398 l 2,46,47
 737 331 737 331 743 273.5 c 128,-1,48
 749 216 749 216 749 204 c 0,49,50
 749 160 749 160 688 131 c 0,51,52
 655 116 655 116 598.5 98 c 128,-1,53
 542 80 542 80 526 80 c 128,-1,54
 510 80 510 80 498.5 93.5 c 128,-1,55
 487 107 487 107 487 127 c 2,0,-1
EndSplineSet
EndChar

StartChar: comma
Encoding: 44 44 12
Width: 614
Flags: MW
LayerCount: 2
Fore
SplineSet
291 458 m 0,0,1
 340 458 340 458 388 434.5 c 128,-1,2
 436 411 436 411 468 371 c 0,3,4
 544 276 544 276 544 131 c 0,5,6
 544 51 544 51 514.5 -48.5 c 128,-1,7
 485 -148 485 -148 437 -229 c 0,8,9
 358 -361 358 -361 272 -361 c 0,10,11
 234 -361 234 -361 203.5 -338 c 128,-1,12
 173 -315 173 -315 173 -292 c 128,-1,13
 173 -269 173 -269 221 -192.672131148 c 128,-1,14
 269 -116.344262295 269 -116.344262295 269 -69.6721311475 c 128,-1,15
 269 -23 269 -23 235 -10 c 0,16,17
 168 15 168 15 140 39 c 0,18,19
 56 111 56 111 56 212.5 c 128,-1,20
 56 314 56 314 122 386 c 128,-1,21
 188 458 188 458 291 458 c 0,0,1
EndSplineSet
EndChar

StartChar: period
Encoding: 46 46 13
Width: 614
Flags: MW
LayerCount: 2
Fore
SplineSet
308 -27 m 128,-1,1
 213 -27 213 -27 142.5 40 c 128,-1,2
 72 107 72 107 72 210 c 128,-1,3
 72 313 72 313 142.5 378.5 c 128,-1,4
 213 444 213 444 308 444.5 c 128,-1,5
 403 445 403 445 473.5 378.5 c 128,-1,6
 544 312 544 312 544 209.5 c 128,-1,7
 544 107 544 107 473.5 40 c 128,-1,0
 403 -27 403 -27 308 -27 c 128,-1,1
EndSplineSet
EndChar

StartChar: slash
Encoding: 47 47 14
Width: 966
Flags: MW
LayerCount: 2
Fore
SplineSet
114 125 m 2,0,-1
 475 948 l 1,1,2
 489 983 489 983 503.496688742 1020.55960265 c 128,-1,3
 517.993377483 1058.1192053 517.993377483 1058.1192053 557.996688742 1154.05960265 c 128,-1,4
 598 1250 598 1250 615.5 1299.5 c 128,-1,5
 633 1349 633 1349 654.5 1367.5 c 128,-1,6
 676 1386 676 1386 720 1386 c 0,7,8
 886 1386 886 1386 886 1307 c 0,9,10
 886 1273 886 1273 861 1226 c 0,11,12
 745 1001 745 1001 688 868 c 1,13,-1
 328 48 l 2,14,15
 253 -121 253 -121 215.5 -221.5 c 128,-1,16
 178 -322 178 -322 153.5 -355.5 c 128,-1,17
 129 -389 129 -389 68.5 -389 c 128,-1,18
 8 -389 8 -389 -38 -364 c 128,-1,19
 -84 -339 -84 -339 -84 -310 c 128,-1,20
 -84 -281 -84 -281 -75.5 -260.5 c 128,-1,21
 -67 -240 -67 -240 2.5 -106 c 128,-1,22
 72 28 72 28 114 125 c 2,0,-1
EndSplineSet
EndChar

StartChar: zero
Encoding: 48 48 15
Width: 1229
Flags: MW
LayerCount: 2
Fore
SplineSet
570 856 m 0,0,1
 477 856 477 856 477 698 c 0,2,3
 477 491 477 491 556 326 c 0,4,5
 587 262 587 262 639 262 c 0,6,7
 730 262 730 262 730 423 c 0,8,9
 730 513 730 513 710.5 615.5 c 128,-1,10
 691 718 691 718 659.5 785.5 c 128,-1,11
 628 853 628 853 570 856 c 0,0,1
593 1154 m 0,12,13
 730 1154 730 1154 857 1087 c 0,14,15
 1029 997 1029 997 1114 819 c 0,16,17
 1177 689 1177 689 1177 542 c 0,18,19
 1177 274 1177 274 972 103 c 0,20,21
 815 -27 815 -27 603.5 -27 c 128,-1,22
 392 -27 392 -27 236 118 c 0,23,24
 51 289 51 289 51 571.5 c 128,-1,25
 51 854 51 854 220 1013 c 0,26,27
 369 1154 369 1154 593 1154 c 0,12,13
EndSplineSet
EndChar

StartChar: one
Encoding: 49 49 16
Width: 1229
Flags: MW
LayerCount: 2
Fore
SplineSet
846 1147 m 0,0,1
 1012 1147 1012 1147 1012 1070.5 c 0,2,3
 1012 1035 1012 1035 999 1020.5 c 128,-1,4
 986 1006 986 1006 947 989 c 0,5,6
 885 962 885 962 876 923 c 128,-1,7
 867 884 867 884 862 619 c 1,8,9
 870 351 870 351 871 332 c 128,-1,10
 872 313 872 313 881.5 269.5 c 128,-1,11
 891 226 891 226 924 206 c 128,-1,12
 957 186 957 186 1045.5 182 c 128,-1,13
 1134 178 1134 178 1134 103.5 c 128,-1,14
 1134 29 1134 29 1001 5 c 0,15,16
 816 -28 816 -28 654.5 -28 c 0,17,18
 331.344827586 -28 331.344827586 -28 157 36 c 0,19,20
 80 64 80 64 80 120 c 0,21,22
 80 150 80 150 105 172 c 128,-1,23
 130 194 130 194 167 195 c 1,24,-1
 271 184 l 1,25,26
 356 184 356 184 369 318 c 0,27,28
 376 394 376 394 376 750 c 0,29,30
 376 804 376 804 354 825 c 128,-1,31
 332 846 332 846 274 846 c 1,32,-1
 199 841 l 1,33,34
 165 841 165 841 144 859.5 c 128,-1,35
 123 878 123 878 123 909 c 128,-1,36
 123 940 123 940 155 971.5 c 128,-1,37
 187 1003 187 1003 244 1027 c 0,38,39
 527 1147 527 1147 846 1147 c 0,0,1
EndSplineSet
EndChar

StartChar: two
Encoding: 50 50 17
Width: 1229
Flags: MW
LayerCount: 2
Fore
SplineSet
789 0 m 2,0,-1
 108 0 l 2,1,2
 18 0 18 0 18 51 c 0,3,4
 18 77 18 77 37 99.5 c 128,-1,5
 56 122 56 122 160 220 c 0,6,7
 353 402 353 402 446 559 c 0,8,9
 494 639 494 639 494 693 c 128,-1,10
 494 747 494 747 465 776.5 c 128,-1,11
 436 806 436 806 388.5 806 c 128,-1,12
 341 806 341 806 317 793.5 c 128,-1,13
 293 781 293 781 211 712 c 0,14,15
 189 694 189 694 147.5 694 c 128,-1,16
 106 694 106 694 66.5 730.5 c 128,-1,17
 27 767 27 767 27 808 c 128,-1,18
 27 849 27 849 63 898.5 c 128,-1,19
 99 948 99 948 158 992 c 0,20,21
 374 1147 374 1147 637 1147 c 0,22,23
 837 1147 837 1147 968 1070 c 0,24,25
 1027 1035 1027 1035 1063 972 c 128,-1,26
 1099 909 1099 909 1099 840 c 0,27,28
 1099 665 1099 665 857 460 c 0,29,30
 771 388 771 388 771 356 c 128,-1,31
 771 324 771 324 797 304.5 c 128,-1,32
 823 285 823 285 860 285 c 0,33,34
 948 285 948 285 1017 353 c 0,35,36
 1052 387 1052 387 1063.5 394 c 128,-1,37
 1075 401 1075 401 1095 401 c 0,38,39
 1183 401 1183 401 1183 251 c 0,40,41
 1183 176 1183 176 1154.5 99 c 128,-1,42
 1126 22 1126 22 1075.5 -36 c 128,-1,43
 1025 -94 1025 -94 963 -94 c 0,44,45
 938 -94 938 -94 923 -83.5 c 128,-1,46
 908 -73 908 -73 889.5 -44.5 c 128,-1,47
 871 -16 871 -16 853.5 -8 c 128,-1,48
 836 0 836 0 789 0 c 2,0,-1
EndSplineSet
EndChar

StartChar: three
Encoding: 51 51 18
Width: 1229
Flags: MW
LayerCount: 2
Fore
SplineSet
526 1147 m 0,0,1
 720 1147 720 1147 869 1076 c 0,2,3
 928 1047 928 1047 962.5 995.5 c 128,-1,4
 997 944 997 944 997 885 c 0,5,6
 997 777 997 777 884 687 c 0,7,8
 852 661 852 661 852 646 c 0,9,10
 852 617 852 617 909 606 c 0,11,12
 1179 556 1179 556 1179 306 c 0,13,14
 1179 149 1179 149 1072 21.5 c 0,15,16
 880.239215686 -207 880.239215686 -207 426 -207 c 0,17,18
 236 -207 236 -207 89 -150 c 0,19,20
 -4 -114 -4 -114 -4 -45 c 0,21,22
 -4 -2 -4 -2 27.5 27.5 c 128,-1,23
 59 57 59 57 94 57 c 128,-1,24
 129 57 129 57 202 40 c 128,-1,25
 275 23 275 23 342 23 c 0,26,27
 462 23 462 23 535 80 c 128,-1,28
 608 137 608 137 608 210.5 c 128,-1,29
 608 284 608 284 550 329.5 c 128,-1,30
 492 375 492 375 417.5 375 c 128,-1,31
 343 375 343 375 308 364.5 c 128,-1,32
 273 354 273 354 260 354 c 0,33,34
 234 354 234 354 206.5 407 c 128,-1,35
 179 460 179 460 179 497 c 128,-1,36
 179 534 179 534 192 542.5 c 128,-1,37
 205 551 205 551 271.5 573.5 c 128,-1,38
 338 596 338 596 389 648 c 128,-1,39
 440 700 440 700 440 754.5 c 128,-1,40
 440 809 440 809 395 850.5 c 128,-1,41
 350 892 350 892 299.5 892 c 128,-1,42
 249 892 249 892 222.5 883 c 128,-1,43
 196 874 196 874 150 849.5 c 128,-1,44
 104 825 104 825 85.5 825 c 128,-1,45
 67 825 67 825 44.5 860 c 128,-1,46
 22 895 22 895 22 934 c 0,47,48
 22 1002 22 1002 142 1062 c 0,49,50
 217 1100 217 1100 322.5 1123.5 c 128,-1,51
 428 1147 428 1147 526 1147 c 0,0,1
EndSplineSet
EndChar

StartChar: four
Encoding: 52 52 19
Width: 1229
Flags: MW
LayerCount: 2
Fore
SplineSet
626 597 m 2,0,-1
 626 646 l 2,1,2
 626 736 626 736 576 736 c 0,3,4
 538 736 538 736 505 695 c 2,5,-1
 351 506 l 2,6,7
 284 423 284 423 284 392 c 128,-1,8
 284 361 284 361 312 353.5 c 128,-1,9
 340 346 340 346 451 343 c 1,10,-1
 530 342 l 2,11,12
 581 342 581 342 599 353.5 c 128,-1,13
 617 365 617 365 621.5 409.5 c 128,-1,14
 626 454 626 454 626 597 c 2,0,-1
1046 1116 m 2,15,-1
 1046 425 l 2,16,17
 1046 394 1046 394 1054.5 382.5 c 128,-1,18
 1063 371 1063 371 1086 371 c 2,19,-1
 1128 371 l 1,20,21
 1175 372 1175 372 1177 314 c 1,22,-1
 1177 111 l 2,23,24
 1177 58 1177 58 1123 51 c 0,25,26
 1088 47 1088 47 1079 38 c 128,-1,27
 1070 29 1070 29 1070 -5 c 2,28,-1
 1070 -123 l 1,29,30
 1074 -186 1074 -186 1012 -189 c 1,31,-1
 670 -189 l 2,32,33
 634 -189 634 -189 623 -176.5 c 128,-1,34
 612 -164 612 -164 612 -123 c 2,35,-1
 612 -20 l 2,36,37
 612 22 612 22 596 38.5 c 128,-1,38
 580 55 580 55 540 55 c 2,39,-1
 150 55 l 2,40,41
 80 55 80 55 51.5 84.5 c 128,-1,42
 23 114 23 114 23 198 c 128,-1,43
 23 282 23 282 48.5 342.5 c 128,-1,44
 74 403 74 403 207 562 c 2,45,-1
 461 867 l 2,46,47
 652 1096 652 1096 743 1159 c 0,48,49
 784 1187 784 1187 842.5 1205 c 128,-1,50
 901 1223 901 1223 951.5 1223 c 128,-1,51
 1002 1223 1002 1223 1024 1198 c 128,-1,52
 1046 1173 1046 1173 1046 1116 c 2,15,-1
EndSplineSet
EndChar

StartChar: five
Encoding: 53 53 20
Width: 1229
Flags: MW
LayerCount: 2
Fore
SplineSet
374 1133 m 2,0,-1
 1085 1133 l 2,1,2
 1125 1133 1125 1133 1139 1116 c 128,-1,3
 1153 1099 1153 1099 1153 1040.5 c 128,-1,4
 1153 982 1153 982 1129 916.5 c 0,5,6
 1080.08396947 783 1080.08396947 783 986 783 c 2,7,-1
 534 783 l 2,8,9
 458 783 458 783 458 723 c 0,10,11
 458 698 458 698 475.5 688 c 128,-1,12
 493 678 493 678 552 673 c 0,13,14
 973.907314986 630.616616759 973.907314986 630.616616759 1115 420 c 0,15,16
 1165 346 1165 346 1165 260 c 0,17,18
 1165 120 1165 120 1045 -5 c 0,19,20
 950 -104 950 -104 796.5 -158 c 128,-1,21
 643 -212 643 -212 477 -212 c 128,-1,22
 311 -212 311 -212 195.5 -176 c 128,-1,23
 80 -140 80 -140 80 -59 c 0,24,25
 80 -12 80 -12 96 22 c 128,-1,26
 112 56 112 56 134 56 c 0,27,28
 146 56 146 56 207.222222222 37 c 128,-1,29
 268.444444444 18 268.444444444 18 354.722222222 18 c 128,-1,30
 441 18 441 18 493 54.5 c 128,-1,31
 545 91 545 91 545 158 c 128,-1,32
 545 225 545 225 464.5 274 c 128,-1,33
 384 323 384 323 271.5 341.5 c 128,-1,34
 159 360 159 360 138.5 364.5 c 128,-1,35
 118 369 118 369 100 381 c 0,36,37
 65 403 65 403 65 450 c 128,-1,38
 65 497 65 497 111 655 c 128,-1,39
 157 813 157 813 210 945.5 c 128,-1,40
 263 1078 263 1078 288 1105.5 c 128,-1,41
 313 1133 313 1133 374 1133 c 2,0,-1
EndSplineSet
EndChar

StartChar: six
Encoding: 54 54 21
Width: 1229
Flags: MW
LayerCount: 2
Fore
SplineSet
751 472.5 m 128,-1,1
 721 545 721 545 683.5 575.5 c 128,-1,2
 646 606 646 606 604 606.5 c 128,-1,3
 562 607 562 607 536.5 575.5 c 128,-1,4
 511 544 511 544 511 475.5 c 128,-1,5
 511 407 511 407 570 325.5 c 128,-1,6
 629 244 629 244 690 244 c 0,7,8
 731 244 731 244 756 268.5 c 128,-1,9
 781 293 781 293 781 346.5 c 128,-1,0
 781 400 781 400 751 472.5 c 128,-1,1
392.5 1249 m 128,-1,11
 451 1301 451 1301 495.5 1301 c 128,-1,12
 540 1301 540 1301 615.5 1277 c 0,13,14
 763 1230.11258278 763 1230.11258278 763 1186 c 0,15,16
 763 1171 763 1171 751.5 1155.5 c 128,-1,17
 740 1140 740 1140 689 1083.5 c 128,-1,18
 638 1027 638 1027 606.5 966 c 128,-1,19
 575 905 575 905 575 882 c 0,20,21
 575 838 575 838 606 838 c 0,22,23
 617 838 617 838 689 864 c 128,-1,24
 761 890 761 890 834 890 c 0,25,26
 960 890 960 890 1063 810 c 0,27,28
 1208 698 1208 698 1208 510 c 0,29,30
 1208 361 1208 361 1120 224 c 0,31,32
 959 -27 959 -27 641 -27 c 0,33,34
 377 -27 377 -27 215 125 c 0,35,36
 125 210 125 210 80 328 c 128,-1,37
 35 446 35 446 35 554 c 0,38,39
 35 807 35 807 238 1072 c 0,40,10
 334 1197 334 1197 392.5 1249 c 128,-1,11
EndSplineSet
EndChar

StartChar: seven
Encoding: 55 55 22
Width: 1229
Flags: MW
LayerCount: 2
Fore
SplineSet
181 642 m 0,0,1
 38 642 38 642 38 877 c 0,2,3
 38 997 38 997 86 1088 c 0,4,5
 109 1131 109 1131 145.5 1159.5 c 128,-1,6
 182 1188 182 1188 210 1188 c 128,-1,7
 238 1188 238 1188 301.5 1160.5 c 128,-1,8
 365 1133 365 1133 440 1133 c 2,9,-1
 1083 1133 l 2,10,11
 1178 1133 1178 1133 1178 1061 c 0,12,13
 1178 1038 1178 1038 1170 1014 c 2,14,-1
 764 -216 l 2,15,16
 755 -241 755 -241 733 -250 c 128,-1,17
 711 -259 711 -259 627.5 -259 c 128,-1,18
 544 -259 544 -259 449.5 -225 c 128,-1,19
 355 -191 355 -191 355 -150 c 0,20,21
 355 -140 355 -140 363 -125 c 2,22,-1
 736 588 l 2,23,24
 777 667 777 667 777 701.5 c 128,-1,25
 777 736 777 736 730 750 c 128,-1,26
 683 764 683 764 543.5 764 c 128,-1,27
 404 764 404 764 339 745 c 0,28,29
 311 736 311 736 286.5 702.5 c 128,-1,30
 262 669 262 669 239.5 655.5 c 128,-1,31
 217 642 217 642 181 642 c 0,0,1
EndSplineSet
EndChar

StartChar: eight
Encoding: 56 56 23
Width: 1229
Flags: MW
LayerCount: 2
Fore
SplineSet
700.5 354 m 128,-1,1
 666 385 666 385 557.5 435.5 c 128,-1,2
 449 486 449 486 415.5 486.5 c 0,3,4
 355 487.402985075 355 487.402985075 355 410 c 0,5,6
 355 371 355 371 375 325 c 128,-1,7
 395 279 395 279 425 249 c 0,8,9
 497 176 497 176 601 176 c 0,10,11
 662 176 662 176 698.5 203 c 128,-1,12
 735 230 735 230 735 276.5 c 128,-1,0
 735 323 735 323 700.5 354 c 128,-1,1
792 874 m 128,-1,14
 813 909 813 909 813 960.5 c 128,-1,15
 813 1012 813 1012 764 1047 c 128,-1,16
 715 1082 715 1082 657 1082 c 128,-1,17
 599 1082 599 1082 569.5 1059.5 c 128,-1,18
 540 1037 540 1037 540 1004 c 0,19,20
 540 952 540 952 617 895.5 c 128,-1,21
 694 839 694 839 745 839 c 0,22,13
 771 839 771 839 792 874 c 128,-1,14
228 1176 m 0,23,24
 381 1267 381 1267 594.5 1267 c 128,-1,25
 808 1267 808 1267 985 1198 c 0,26,27
 1082 1160 1082 1160 1134 1092 c 128,-1,28
 1186 1024 1186 1024 1186 949 c 0,29,30
 1186 831 1186 831 1056 748 c 0,31,32
 1017 723 1017 723 1017 708.5 c 128,-1,33
 1017 694 1017 694 1073 655.5 c 128,-1,34
 1129 617 1129 617 1168 544.5 c 128,-1,35
 1207 472 1207 472 1207 395 c 0,36,37
 1207 279 1207 279 1123 169 c 0,38,39
 974 -27 974 -27 651 -27 c 0,40,41
 428 -27 428 -27 255 52 c 0,42,43
 138 106 138 106 80 189 c 128,-1,44
 22 272 22 272 22 367 c 0,45,46
 22 496 22 496 141 580 c 0,47,48
 185 612 185 612 185 626.5 c 128,-1,49
 185 641 185 641 147 677 c 0,50,51
 52 768 52 768 52 895 c 0,52,53
 52 1071 52 1071 228 1176 c 0,23,24
EndSplineSet
EndChar

StartChar: nine
Encoding: 57 57 24
Width: 1229
Flags: MW
LayerCount: 2
Fore
SplineSet
731 714.5 m 128,-1,1
 708 783 708 783 675.5 821.5 c 128,-1,2
 643 860 643 860 597 860.5 c 128,-1,3
 551 861 551 861 522 825 c 128,-1,4
 493 789 493 789 493 736 c 0,5,6
 493 633 493 633 543 558.5 c 128,-1,7
 593 484 593 484 662 484 c 0,8,9
 703 484 703 484 728.5 514 c 128,-1,10
 754 544 754 544 754 595 c 128,-1,0
 754 646 754 646 731 714.5 c 128,-1,1
532 232 m 1,11,-1
 436 225 l 1,12,13
 276 225 276 225 179 317 c 0,14,15
 106 385 106 385 65.5 484 c 128,-1,16
 25 583 25 583 25 690 c 0,17,18
 25 904 25 904 193 1025.5 c 128,-1,19
 361 1147 361 1147 584 1147 c 128,-1,20
 807 1147 807 1147 972 1056 c 0,21,22
 1190 935 1190 935 1190 664 c 0,23,24
 1190 445 1190 445 1040.5 191 c 128,-1,25
 891 -63 891 -63 677 -221 c 0,26,27
 627 -257 627 -257 578.5 -257 c 128,-1,28
 530 -257 530 -257 434 -205.5 c 128,-1,29
 338 -154 338 -154 338 -122 c 0,30,31
 338 -101 338 -101 404 -57.5 c 128,-1,32
 470 -14 470 -14 521 66.5 c 128,-1,33
 572 147 572 147 572 189.5 c 128,-1,34
 572 232 572 232 532 232 c 1,11,-1
EndSplineSet
EndChar

StartChar: semicolon
Encoding: 59 59 26
Width: 614
Flags: MW
LayerCount: 2
Fore
SplineSet
471.5 954.5 m 0
 540 886 540 886 540 785.5 c 0
 540 685 540 685 469.5 618 c 0
 399 551 399 551 303.5 551 c 0
 208 551 208 551 138 618 c 0
 68 685 68 685 68 783.5 c 0
 68 882 68 882 134 952.5 c 0
 200 1023 200 1023 301.5 1023 c 0
 403 1023 403 1023 471.5 954.5 c 0
EndSplineSet
Refer: 12 44 S 1 0 0 1 0 0 2
EndChar

StartChar: less
Encoding: 60 60 27
Width: 1024
Flags: MW
LayerCount: 2
Fore
SplineSet
955 1391 m 1,0,-1
 955 946 l 1,1,-1
 540 693 l 1,2,-1
 953 440 l 1,3,-1
 955 -2 l 1,4,-1
 68 509 l 1,5,-1
 68 881 l 1,6,-1
 955 1391 l 1,0,-1
EndSplineSet
EndChar

StartChar: equal
Encoding: 61 61 28
Width: 1229
Flags: MW
LayerCount: 2
Fore
SplineSet
248 536 m 1,0,-1
 441 525 l 1,1,-1
 947 525 l 2,2,3
 1025 525 1025 525 1043.5 527.5 c 128,-1,4
 1062 530 1062 530 1067 530 c 0,5,6
 1106 530 1106 530 1106 490 c 0,7,8
 1106 468 1106 468 1089 412.5 c 128,-1,9
 1072 357 1072 357 1051 317 c 128,-1,10
 1030 277 1030 277 997 277 c 1,11,-1
 838 291 l 1,12,-1
 390 291 l 1,13,-1
 169 284 l 2,14,15
 150 284 150 284 136.5 295.5 c 128,-1,16
 123 307 123 307 123 323.5 c 128,-1,17
 123 340 123 340 144.5 401.5 c 128,-1,18
 166 463 166 463 186.5 499.5 c 128,-1,19
 207 536 207 536 248 536 c 1,0,-1
248 891 m 1,20,-1
 441 880 l 1,21,-1
 947 880 l 2,22,23
 1024 880 1024 880 1043 882.5 c 128,-1,24
 1062 885 1062 885 1067 885 c 0,25,26
 1106 885 1106 885 1106 846 c 0,27,28
 1106 823 1106 823 1089 767.5 c 128,-1,29
 1072 712 1072 712 1051 672 c 128,-1,30
 1030 632 1030 632 997 632 c 1,31,-1
 838 646 l 1,32,-1
 390 646 l 1,33,-1
 169 639 l 2,34,35
 150 639 150 639 136.5 650.5 c 128,-1,36
 123 662 123 662 123 678.5 c 128,-1,37
 123 695 123 695 144.5 756.5 c 128,-1,38
 166 818 166 818 186.5 854.5 c 128,-1,39
 207 891 207 891 248 891 c 1,20,-1
EndSplineSet
EndChar

StartChar: greater
Encoding: 62 62 29
Width: 1024
Flags: MW
LayerCount: 2
Fore
SplineSet
68 -2 m 1,0,-1
 68 443 l 1,1,-1
 483 696 l 1,2,-1
 71 949 l 1,3,-1
 68 1391 l 1,4,-1
 956 880 l 1,5,-1
 956 508 l 1,6,-1
 68 -2 l 1,0,-1
EndSplineSet
EndChar

StartChar: question
Encoding: 63 63 30
Width: 987
Flags: MW
LayerCount: 2
Fore
SplineSet
178 852 m 0,0,1
 14 852 14 852 14 1009.5 c 0,2,3
 14 1090 14 1090 80.5 1181.5 c 128,-1,4
 147 1273 147 1273 254 1318.5 c 128,-1,5
 361 1364 361 1364 480 1364 c 128,-1,6
 599 1364 599 1364 716 1315 c 128,-1,7
 833 1266 833 1266 900 1178 c 128,-1,8
 967 1090 967 1090 967 982 c 128,-1,9
 967 874 967 874 872 795 c 0,10,11
 847 774 847 774 764 733 c 128,-1,12
 681 692 681 692 659.5 671.5 c 128,-1,13
 638 651 638 651 613 597 c 128,-1,14
 588 543 588 543 562 523.5 c 128,-1,15
 536 504 536 504 474.5 504 c 128,-1,16
 413 504 413 504 378 539 c 128,-1,17
 343 574 343 574 343 632 c 128,-1,18
 343 690 343 690 360 728.5 c 128,-1,19
 377 767 377 767 444.5 868.5 c 128,-1,20
 512 970 512 970 512 1056 c 0,21,22
 512 1099 512 1099 492.5 1126.5 c 128,-1,23
 473 1154 473 1154 442.5 1154 c 128,-1,24
 412 1154 412 1154 399 1134.5 c 128,-1,25
 386 1115 386 1115 380 1061 c 0,26,27
 370 959 370 959 313 905.5 c 128,-1,28
 256 852 256 852 178 852 c 0,0,1
612 37.5 m 128,-1,30
 548 -27 548 -27 460 -27 c 128,-1,31
 372 -27 372 -27 307.5 34.5 c 128,-1,32
 243 96 243 96 243 186.5 c 128,-1,33
 243 277 243 277 305.5 341.5 c 128,-1,34
 368 406 368 406 460 406 c 128,-1,35
 552 406 552 406 614 341.5 c 128,-1,36
 676 277 676 277 676 189.5 c 128,-1,29
 676 102 676 102 612 37.5 c 128,-1,30
EndSplineSet
EndChar

StartChar: at
Encoding: 64 64 31
Width: 1636
Flags: MW
LayerCount: 2
Fore
SplineSet
910 888 m 0,0,1
 878 888 878 888 835.5 828.5 c 128,-1,2
 793 769 793 769 769 701.5 c 128,-1,3
 745 634 745 634 745 586 c 128,-1,4
 745 538 745 538 772 538 c 128,-1,5
 799 538 799 538 838.5 598.5 c 128,-1,6
 878 659 878 659 905 731 c 128,-1,7
 932 803 932 803 932 845.5 c 128,-1,8
 932 888 932 888 910 888 c 0,0,1
978 1392 m 0,9,10
 1254 1392 1254 1392 1418 1240 c 0,11,12
 1499 1166 1499 1166 1543.5 1059 c 128,-1,13
 1588 952 1588 952 1588 846 c 0,14,15
 1588 687 1588 687 1495.5 541 c 128,-1,16
 1403 395 1403 395 1215 329 c 0,17,18
 1119 295 1119 295 1040.5 295 c 128,-1,19
 962 295 962 295 925.5 321 c 128,-1,20
 889 347 889 347 873 411 c 0,21,22
 868 430 868 430 854 430 c 128,-1,23
 840 430 840 430 816 406 c 0,24,25
 712 303 712 303 614 303 c 128,-1,26
 516 303 516 303 460.5 366 c 128,-1,27
 405 429 405 429 405 533 c 0,28,29
 405 717 405 717 520 874 c 0,30,31
 584 962 584 962 665 1011.5 c 128,-1,32
 746 1061 746 1061 815.5 1061 c 128,-1,33
 885 1061 885 1061 959 1017 c 0,34,35
 983 1002 983 1002 994.5 1002 c 128,-1,36
 1006 1002 1006 1002 1025 1012 c 0,37,38
 1124 1060 1124 1060 1188.5 1060 c 128,-1,39
 1253 1060 1253 1060 1253 1001 c 0,40,41
 1253 967 1253 967 1210 801.5 c 128,-1,42
 1167 636 1167 636 1167 554 c 0,43,44
 1167 518 1167 518 1208.5 518 c 128,-1,45
 1250 518 1250 518 1305 573 c 0,46,47
 1418 686 1418 686 1418 851 c 128,-1,48
 1418 1016 1418 1016 1306.5 1127.5 c 128,-1,49
 1195 1239 1195 1239 965 1239 c 0,50,51
 659 1239 659 1239 454 1038 c 0,52,53
 331 916 331 916 268 734 c 0,54,55
 227 618 227 618 227 503 c 0,56,57
 227 282 227 282 394 189 c 0,58,59
 510 125 510 125 696 125 c 128,-1,60
 882 125 882 125 1065 211 c 0,61,62
 1112 233 1112 233 1141 233 c 128,-1,63
 1170 233 1170 233 1189 216.5 c 128,-1,64
 1208 200 1208 200 1208 176 c 0,65,66
 1208 130 1208 130 1144 87 c 0,67,68
 975 -27 975 -27 696.5 -27 c 0,69,70
 221.022900763 -27 221.022900763 -27 94 293 c 0,71,72
 55 391 55 391 55 504 c 0,73,74
 55 733 55 733 180 949 c 0,75,76
 335 1217 335 1217 618 1328 c 0,77,78
 779 1392 779 1392 978 1392 c 0,9,10
EndSplineSet
EndChar

StartChar: A
Encoding: 65 65 32
Width: 1693
Flags: MW
LayerCount: 2
Fore
SplineSet
636 565 m 2,0,-1
 832 565 l 2,1,2
 886 565 886 565 886 589 c 0,3,4
 886 622 886 622 831.5 716 c 128,-1,5
 777 810 777 810 759 830 c 128,-1,6
 741 850 741 850 721 850 c 0,7,8
 685 850 685 850 661 783 c 1,9,10
 590 623.25 590 623.25 590 590 c 0,11,12
 590 565 590 565 636 565 c 2,0,-1
1332 691 m 2,13,-1
 1521 286 l 2,14,15
 1548 230 1548 230 1566 212.5 c 128,-1,16
 1584 195 1584 195 1621 189 c 0,17,18
 1693 178 1693 178 1693 110.5 c 128,-1,19
 1693 43 1693 43 1605 11 c 128,-1,20
 1517 -21 1517 -21 1304 -21 c 128,-1,21
 1091 -21 1091 -21 1011.5 -7 c 128,-1,22
 932 7 932 7 902.5 34.5 c 128,-1,23
 873 62 873 62 873 96.5 c 128,-1,24
 873 131 873 131 888.5 147.5 c 128,-1,25
 904 164 904 164 948.5 179 c 128,-1,26
 993 194 993 194 993 232 c 0,27,28
 993 299 993 299 909 311 c 128,-1,29
 825 323 825 323 679.5 323 c 128,-1,30
 534 323 534 323 513 310 c 128,-1,31
 492 297 492 297 480 271 c 128,-1,32
 468 245 468 245 468 222 c 128,-1,33
 468 199 468 199 476.5 192.5 c 128,-1,34
 485 186 485 186 532 171 c 0,35,36
 593 153 593 153 593 99 c 0,37,38
 593 -20 593 -20 308 -20 c 0,39,40
 146 -20 146 -20 73 1.5 c 128,-1,41
 0 23 0 23 0 94 c 0,42,43
 0 125 0 125 15.5 142 c 128,-1,44
 31 159 31 159 83.5 177.5 c 128,-1,45
 136 196 136 196 169.5 237.5 c 128,-1,46
 203 279 203 279 265 415 c 2,47,-1
 406 724 l 2,48,49
 484 894 484 894 510.5 978.5 c 128,-1,50
 537 1063 537 1063 538 1146.5 c 128,-1,51
 539 1230 539 1230 548.5 1263.5 c 128,-1,52
 558 1297 558 1297 591 1329 c 0,53,54
 660 1399 660 1399 764 1399 c 128,-1,55
 868 1399 868 1399 960 1320 c 0,56,57
 1088 1212 1088 1212 1332 691 c 2,13,-1
EndSplineSet
EndChar

StartChar: B
Encoding: 66 66 33
Width: 1469
Flags: MW
LayerCount: 2
Fore
SplineSet
651 510 m 2,0,-1
 651 415 l 2,1,2
 651 284 651 284 670 241 c 128,-1,3
 689 198 689 198 747 198 c 0,4,5
 899 198 899 198 899 376 c 0,6,7
 899 598 899 598 729 598 c 0,8,9
 685 598 685 598 668 579 c 128,-1,10
 651 560 651 560 651 510 c 2,0,-1
651 1086 m 2,11,-1
 651 880 l 2,12,13
 651 831 651 831 663.5 811 c 128,-1,14
 676 791 676 791 707 791 c 0,15,16
 781 791 781 791 816 836.5 c 128,-1,17
 851 882 851 882 851 977.5 c 128,-1,18
 851 1073 851 1073 815 1124.5 c 128,-1,19
 779 1176 779 1176 713 1176 c 0,20,21
 678 1176 678 1176 664.5 1156.5 c 128,-1,22
 651 1137 651 1137 651 1086 c 2,11,-1
926 -10 m 0,23,24
 912 -10 912 -10 582 1 c 1,25,-1
 448 0 l 2,26,27
 307 -2 307 -2 245.5 -6.5 c 128,-1,28
 184 -11 184 -11 141 -11 c 128,-1,29
 98 -11 98 -11 62 20 c 0,30,31
 27 51 27 51 27 86.5 c 128,-1,32
 27 122 27 122 40 138 c 128,-1,33
 53 154 53 154 92.5 181 c 128,-1,34
 132 208 132 208 143 250.5 c 128,-1,35
 154 293 154 293 170 472 c 128,-1,36
 186 651 186 651 186 869 c 128,-1,37
 186 1087 186 1087 170.5 1125.5 c 128,-1,38
 155 1164 155 1164 93.5 1190.5 c 128,-1,39
 32 1217 32 1217 32 1266 c 128,-1,40
 32 1315 32 1315 71.5 1343 c 128,-1,41
 111 1371 111 1371 173 1371 c 1,42,-1
 450 1364 l 1,43,-1
 870 1372 l 1,44,45
 1003 1372 1003 1372 1084.5 1350.5 c 128,-1,46
 1166 1329 1166 1329 1226 1278 c 0,47,48
 1324 1195 1324 1195 1324 1056 c 0,49,50
 1324 987 1324 987 1295 921.5 c 128,-1,51
 1266 856 1266 856 1224 822.5 c 128,-1,52
 1182 789 1182 789 1182 765 c 128,-1,53
 1182 741 1182 741 1224 724 c 0,54,55
 1306 691 1306 691 1374 611.5 c 128,-1,56
 1442 532 1442 532 1442 399 c 128,-1,57
 1442 266 1442 266 1337 147 c 0,58,59
 1198 -10 1198 -10 926 -10 c 0,23,24
EndSplineSet
EndChar

StartChar: C
Encoding: 67 67 34
Width: 1474
Flags: MW
LayerCount: 2
Fore
SplineSet
1173 1299 m 1,0,-1
 1260 1311 l 1,1,2
 1312 1311 1312 1311 1351 1263 c 0,3,4
 1447 1147 1447 1147 1447 975 c 0,5,6
 1447 854 1447 854 1364 798 c 0,7,8
 1319 768 1319 768 1265.5 768 c 128,-1,9
 1212 768 1212 768 1180 790 c 128,-1,10
 1148 812 1148 812 1111.5 879.5 c 128,-1,11
 1075 947 1075 947 1048 981.5 c 128,-1,12
 1021 1016 1021 1016 982 1044 c 0,13,14
 885 1112 885 1112 780.5 1112 c 128,-1,15
 676 1112 676 1112 615.5 1037.5 c 128,-1,16
 555 963 555 963 555 814.5 c 128,-1,17
 555 666 555 666 642 523 c 0,18,19
 760 332 760 332 980 332 c 0,20,21
 1061 332 1061 332 1140.5 359 c 128,-1,22
 1220 386 1220 386 1261 425.5 c 128,-1,23
 1302 465 1302 465 1331.5 465 c 128,-1,24
 1361 465 1361 465 1386 432.5 c 128,-1,25
 1411 400 1411 400 1411 348 c 128,-1,26
 1411 296 1411 296 1376 224 c 128,-1,27
 1341 152 1341 152 1292 111 c 0,28,29
 1271 94 1271 94 1219 84 c 128,-1,30
 1167 74 1167 74 1104 44 c 0,31,32
 956 -27 956 -27 792.5 -27 c 128,-1,33
 629 -27 629 -27 449.5 54 c 128,-1,34
 270 135 270 135 159 312.5 c 128,-1,35
 48 490 48 490 48 696.5 c 128,-1,36
 48 903 48 903 177 1074 c 128,-1,37
 306 1245 306 1245 499 1329 c 0,38,39
 646 1393 646 1393 797 1393 c 128,-1,40
 948 1393 948 1393 1084 1329 c 0,41,42
 1148 1299 1148 1299 1173 1299 c 1,0,-1
EndSplineSet
EndChar

StartChar: D
Encoding: 68 68 35
Width: 1643
Flags: MW
LayerCount: 2
Fore
SplineSet
669 1084 m 2,0,-1
 669 310 l 2,1,2
 669 247 669 247 696 220.5 c 128,-1,3
 723 194 723 194 786 194 c 0,4,5
 1078 194 1078 194 1078 638 c 0,6,7
 1078 883 1078 883 1006.5 1025 c 128,-1,8
 935 1167 935 1167 756 1167 c 0,9,10
 708 1167 708 1167 688.5 1148 c 128,-1,11
 669 1129 669 1129 669 1084 c 2,0,-1
428 1377 m 1,12,-1
 846 1388 l 1,13,14
 1075 1388 1075 1388 1208 1336 c 0,15,16
 1406 1258 1406 1258 1506 1074 c 0,17,18
 1595 912 1595 912 1595 688 c 0,19,20
 1595 575 1595 575 1562 461.5 c 0,21,22
 1466.64878049 133.549593496 1466.64878049 133.549593496 1153 29 c 0,23,24
 1033 -11 1033 -11 897 -11 c 1,25,-1
 776 -7 l 1,26,-1
 672 -4 l 2,27,28
 551 0 551 0 459 0 c 2,29,-1
 387 0 l 1,30,-1
 178 -10 l 1,31,32
 111 -10 111 -10 69 21 c 128,-1,33
 27 52 27 52 27 94.5 c 128,-1,34
 27 137 27 137 45.5 156.5 c 128,-1,35
 64 176 64 176 105 187 c 128,-1,36
 146 198 146 198 160 220.5 c 128,-1,37
 174 243 174 243 188.5 369.875 c 128,-1,38
 203 496.75 203 496.75 203 1031 c 0,39,40
 203 1115 203 1115 190 1143 c 128,-1,41
 177 1171 177 1171 129 1188 c 0,42,43
 60 1214 60 1214 60 1270 c 0,44,45
 60 1381 60 1381 240 1381 c 1,46,-1
 428 1377 l 1,12,-1
EndSplineSet
EndChar

StartChar: E
Encoding: 69 69 36
Width: 1415
Flags: MW
LayerCount: 2
Fore
SplineSet
247 1365 m 2,0,-1
 761 1365 l 2,1,2
 1015.5 1365 1015.5 1365 1082.25 1384.5 c 128,-1,3
 1149 1404 1149 1404 1161 1404 c 0,4,5
 1213 1404 1213 1404 1253 1348 c 0,6,7
 1319 1257 1319 1257 1319 1128 c 0,8,9
 1319 1063 1319 1063 1291.5 1025.5 c 128,-1,10
 1264 988 1264 988 1223.5 988 c 128,-1,11
 1183 988 1183 988 1164.5 1001.5 c 128,-1,12
 1146 1015 1146 1015 1108.5 1072 c 128,-1,13
 1071 1129 1071 1129 1003.5 1151.5 c 128,-1,14
 936 1174 936 1174 801.5 1174 c 128,-1,15
 667 1174 667 1174 642 1133 c 0,16,17
 629 1111 629 1111 626.5 1074 c 128,-1,18
 624 1037 624 1037 624 885 c 0,19,20
 624 825 624 825 644 810.5 c 128,-1,21
 664 796 664 796 727.5 796 c 128,-1,22
 791 796 791 796 810 813.5 c 128,-1,23
 829 831 829 831 835 882.5 c 128,-1,24
 841 934 841 934 848.5 955.5 c 128,-1,25
 856 977 856 977 876.5 994 c 128,-1,26
 897 1011 897 1011 931.5 1011 c 128,-1,27
 966 1011 966 1011 991 977 c 128,-1,28
 1016 943 1016 943 1030.5 869.5 c 128,-1,29
 1045 796 1045 796 1045 716 c 0,30,31
 1045 558 1045 558 996 457 c 0,32,33
 969 402 969 402 924.5 402 c 128,-1,34
 880 402 880 402 867 419.5 c 128,-1,35
 854 437 854 437 847 492 c 0,36,37
 832 605 832 605 715 605 c 0,38,39
 670 605 670 605 653.5 576.5 c 128,-1,40
 637 548 637 548 637 433.785714286 c 128,-1,41
 637 319.571428571 637 319.571428571 657 251 c 0,42,43
 665 221 665 221 706.5 209.5 c 128,-1,44
 748 198 748 198 871.5 198 c 128,-1,45
 995 198 995 198 1071 236.5 c 128,-1,46
 1147 275 1147 275 1195 376 c 0,47,48
 1223 434 1223 434 1245.5 454 c 128,-1,49
 1268 474 1268 474 1307 474 c 128,-1,50
 1346 474 1346 474 1373.5 437.5 c 128,-1,51
 1401 401 1401 401 1401 343.5 c 128,-1,52
 1401 286 1401 286 1370 196 c 128,-1,53
 1339 106 1339 106 1305 54 c 128,-1,54
 1271 2 1271 2 1256 -9.5 c 128,-1,55
 1241 -21 1241 -21 1220 -21 c 128,-1,56
 1199 -21 1199 -21 1149 -12 c 128,-1,57
 1099 -3 1099 -3 992 0 c 1,58,-1
 144 0 l 2,59,60
 93 0 93 0 65 22.5 c 128,-1,61
 37 45 37 45 37 80 c 128,-1,62
 37 115 37 115 49 128 c 128,-1,63
 61 141 61 141 97.5 157.5 c 128,-1,64
 134 174 134 174 148.5 193 c 0,65,66
 204 265.724137931 204 265.724137931 204 695.028735631 c 128,-1,67
 204 1124.33333333 204 1124.33333333 134 1171 c 0,68,69
 122 1179 122 1179 84 1190 c 0,70,71
 27 1207 27 1207 27 1266 c 0,72,73
 27 1298 27 1298 46 1323 c 128,-1,74
 65 1348 65 1348 100 1356.5 c 128,-1,75
 135 1365 135 1365 247 1365 c 2,0,-1
EndSplineSet
EndChar

StartChar: F
Encoding: 70 70 37
Width: 1354
Flags: MW
LayerCount: 2
Fore
SplineSet
773 1159 m 0,0,1
 704 1159 704 1159 690 1128.5 c 128,-1,2
 676 1098 676 1098 665.5 1022 c 128,-1,3
 655 946 655 946 655 896.5 c 128,-1,4
 655 847 655 847 679 833 c 128,-1,5
 703 819 703 819 758 819 c 128,-1,6
 813 819 813 819 834 835 c 128,-1,7
 855 851 855 851 863 889 c 0,8,9
 886 998 886 998 957 998 c 0,10,11
 1079 998 1079 998 1079 706 c 0,12,13
 1079 521 1079 521 1026 434 c 0,14,15
 994 381 994 381 936.5 381 c 128,-1,16
 879 381 879 381 870 460 c 0,17,18
 865 511 865 511 857.5 532 c 128,-1,19
 850 553 850 553 823 578 c 128,-1,20
 796 603 796 603 742 603 c 128,-1,21
 688 603 688 603 672 587 c 128,-1,22
 656 571 656 571 657 544.5 c 128,-1,23
 658 518 658 518 657.430871652 371.164886206 c 128,-1,24
 656.861743304 224.329772411 656.861743304 224.329772411 717.5 202.5 c 0,25,26
 730 198 730 198 769.5 192 c 0,27,28
 845 180.53164557 845 180.53164557 845 106.765822785 c 128,-1,29
 845 33 845 33 755 11 c 0,30,31
 625 -20 625 -20 404.5 -20 c 128,-1,32
 184 -20 184 -20 127.5 -2.5 c 0,33,34
 27 28.6283185841 27 28.6283185841 27 108 c 0,35,36
 27 152 27 152 59 179 c 0,37,38
 67 185 67 185 118.5 205.5 c 128,-1,39
 170 226 170 226 181 306 c 0,40,41
 199 429 199 429 199 742.5 c 128,-1,42
 199 1056 199 1056 186 1112 c 128,-1,43
 173 1168 173 1168 123 1190 c 128,-1,44
 73 1212 73 1212 57.5 1228.5 c 128,-1,45
 42 1245 42 1245 42 1282.5 c 128,-1,46
 42 1320 42 1320 85 1349.5 c 128,-1,47
 128 1379 128 1379 179.5 1379 c 128,-1,48
 231 1379 231 1379 351 1369.5 c 128,-1,49
 471 1360 471 1360 766 1360 c 128,-1,50
 1061 1360 1061 1360 1187 1380 c 0,51,52
 1204 1382 1204 1382 1213 1382 c 0,53,54
 1248 1382 1248 1382 1280 1342 c 0,55,56
 1368 1230 1368 1230 1368 1094 c 0,57,58
 1368 1032 1368 1032 1339 995 c 128,-1,59
 1310 958 1310 958 1269 958 c 128,-1,60
 1228 958 1228 958 1210 972 c 128,-1,61
 1192 986 1192 986 1132.5 1054 c 128,-1,62
 1073 1122 1073 1122 1009.5 1138 c 128,-1,63
 946 1154 946 1154 773 1159 c 0,0,1
EndSplineSet
EndChar

StartChar: G
Encoding: 71 71 38
Width: 1626
Flags: MW
LayerCount: 2
Fore
SplineSet
809 1393 m 0,0,1
 940 1393 940 1393 1024 1366 c 128,-1,2
 1108 1339 1108 1339 1127.5 1339 c 128,-1,3
 1147 1339 1147 1339 1189.5 1354 c 128,-1,4
 1232 1369 1232 1369 1254 1369 c 0,5,6
 1310 1369 1310 1369 1361 1303 c 0,7,8
 1443 1197 1443 1197 1443 1071 c 0,9,10
 1443 985 1443 985 1399.5 932 c 128,-1,11
 1356 879 1356 879 1291.5 879 c 128,-1,12
 1227 879 1227 879 1171 921 c 0,13,14
 1154 934 1154 934 1088 1015 c 0,15,16
 978 1150 978 1150 841.5 1150 c 128,-1,17
 705 1150 705 1150 628.5 1055 c 128,-1,18
 552 960 552 960 552 799 c 0,19,20
 552 560 552 560 674 392 c 0,21,22
 720 331 720 331 784 294.5 c 128,-1,23
 848 258 848 258 905.5 258 c 128,-1,24
 963 258 963 258 996.5 292.5 c 128,-1,25
 1030 327 1030 327 1030 378 c 128,-1,26
 1030 429 1030 429 1002 449 c 0,27,28
 991 457 991 457 981.5 458.5 c 128,-1,29
 972 460 972 460 926.5 460 c 128,-1,30
 881 460 881 460 852.5 487.5 c 128,-1,31
 824 515 824 515 824 557 c 0,32,33
 824 640 824 640 939.5 676.5 c 128,-1,34
 1055 713 1055 713 1218.5 713 c 0,35,36
 1606 713 1606 713 1606 555 c 0,37,38
 1606 519 1606 519 1581 492.5 c 128,-1,39
 1556 466 1556 466 1518.5 461 c 128,-1,40
 1481 456 1481 456 1470.5 445.5 c 128,-1,41
 1460 435 1460 435 1449 394 c 0,42,43
 1406 235 1406 235 1281 128 c 0,44,45
 1195 55 1195 55 1073.5 14 c 128,-1,46
 952 -27 952 -27 818 -27 c 0,47,48
 599 -27 599 -27 413.5 75 c 128,-1,49
 228 177 228 177 130 362 c 0,50,51
 48 516 48 516 48 696 c 128,-1,52
 48 876 48 876 149 1045 c 128,-1,53
 250 1214 250 1214 425 1303.5 c 128,-1,54
 600 1393 600 1393 809 1393 c 0,0,1
EndSplineSet
EndChar

StartChar: H
Encoding: 72 72 39
Width: 1642
Flags: MW
LayerCount: 2
Fore
SplineSet
1228.5 -20 m 0,0,1
 876 -20 876 -20 876 109 c 0,2,3
 876 171 876 171 935 203 c 0,4,5
 964 219 964 219 974.5 235 c 128,-1,6
 985 251 985 251 999 314.5 c 128,-1,7
 1013 378 1013 378 1013 470.5 c 128,-1,8
 1013 563 1013 563 994.5 578 c 128,-1,9
 976 593 976 593 847.5 593 c 128,-1,10
 719 593 719 593 670 573 c 0,11,12
 650 565 650 565 644.5 521.5 c 128,-1,13
 639 478 639 478 639 386 c 128,-1,14
 639 294 639 294 671 244 c 0,15,16
 682 228 682 228 723.5 203.5 c 128,-1,17
 765 179 765 179 765 116.5 c 128,-1,18
 765 54 765 54 668 17 c 128,-1,19
 571 -20 571 -20 399 -20 c 0,20,21
 123.436363636 -20 123.436363636 -20 52.5 56.5 c 0,22,23
 27 84 27 84 27 117 c 128,-1,24
 27 150 27 150 43 168 c 128,-1,25
 59 186 59 186 100 207 c 128,-1,26
 141 228 141 228 152.5 250 c 0,27,28
 185 312.173913043 185 312.173913043 185 630 c 1,29,-1
 180 987 l 1,30,31
 181 1073 181 1073 165.5 1100.5 c 128,-1,32
 150 1128 150 1128 95 1155 c 128,-1,33
 40 1182 40 1182 40 1224 c 0,34,35
 40 1325 40 1325 236 1364 c 0,36,37
 350 1387 350 1387 470 1387 c 0,38,39
 782 1387 782 1387 782 1258 c 0,40,41
 782 1223 782 1223 766 1201 c 128,-1,42
 750 1179 750 1179 708 1153.5 c 128,-1,43
 666 1128 666 1128 655.5 1089 c 128,-1,44
 645 1050 645 1050 645 955.5 c 128,-1,45
 645 861 645 861 671 845 c 0,46,47
 686 835 686 835 716.5 833 c 128,-1,48
 747 831 747 831 855 831 c 128,-1,49
 963 831 963 831 988 842 c 128,-1,50
 1013 853 1013 853 1013 897 c 0,51,52
 1013 1029 1013 1029 1001 1081 c 128,-1,53
 989 1133 989 1133 949.5 1155 c 128,-1,54
 910 1177 910 1177 896 1194.5 c 128,-1,55
 882 1212 882 1212 882 1247 c 128,-1,56
 882 1282 882 1282 913 1315.5 c 0,57,58
 978.23880597 1386 978.23880597 1386 1255 1386 c 0,59,60
 1614 1386 1614 1386 1614 1253.5 c 0,61,62
 1614 1188 1614 1188 1552 1158 c 0,63,64
 1513 1140 1513 1140 1501 1123.5 c 128,-1,65
 1489 1107 1489 1107 1483.5 1072 c 128,-1,66
 1478 1037 1478 1037 1472 840 c 128,-1,67
 1466 643 1466 643 1466 483.5 c 128,-1,68
 1466 324 1466 324 1477.5 281.5 c 128,-1,69
 1489 239 1489 239 1499 229 c 128,-1,70
 1509 219 1509 219 1554.5 193.5 c 128,-1,71
 1600 168 1600 168 1600 125 c 0,72,73
 1600 49 1600 49 1509.5 14.5 c 128,-1,74
 1419 -20 1419 -20 1228.5 -20 c 0,0,1
EndSplineSet
EndChar

StartChar: I
Encoding: 73 73 40
Width: 847
Flags: MW
LayerCount: 2
Fore
SplineSet
468 1386 m 0,0,1
 819 1386 819 1386 819 1251 c 0,2,3
 819 1222 819 1222 805.5 1207.5 c 128,-1,4
 792 1193 792 1193 741.5 1167.5 c 128,-1,5
 691 1142 691 1142 676.5 1064 c 128,-1,6
 662 986 662 986 662 682 c 128,-1,7
 662 378 662 378 675 318 c 128,-1,8
 688 258 688 258 702.5 242.5 c 128,-1,9
 717 227 717 227 753 209 c 0,10,11
 819 179 819 179 819 122 c 0,12,13
 819 -20 819 -20 374 -20 c 0,14,15
 48 -20 48 -20 48 104 c 0,16,17
 48 149 48 149 104.5 183.5 c 128,-1,18
 161 218 161 218 170 270 c 0,19,20
 189 384 189 384 189 697 c 128,-1,21
 189 1010 189 1010 163 1082 c 0,22,23
 149 1123 149 1123 102 1153 c 128,-1,24
 55 1183 55 1183 41 1201 c 128,-1,25
 27 1219 27 1219 27 1254.5 c 128,-1,26
 27 1290 27 1290 68.5 1315.5 c 128,-1,27
 110 1341 110 1341 225 1363.5 c 128,-1,28
 340 1386 340 1386 468 1386 c 0,0,1
EndSplineSet
EndChar

StartChar: J
Encoding: 74 74 41
Width: 1284
Flags: MW
LayerCount: 2
Fore
SplineSet
430 386 m 1,0,-1
 416 294 l 1,1,2
 416 262 416 262 439 242 c 128,-1,3
 462 222 462 222 500 222 c 0,4,5
 567 222 567 222 608 282 c 128,-1,6
 649 342 649 342 649 440 c 1,7,-1
 648 531 l 1,8,-1
 646 776 l 1,9,10
 637 999 637 999 632.5 1038.5 c 128,-1,11
 628 1078 628 1078 611.5 1100.5 c 128,-1,12
 595 1123 595 1123 583.5 1129 c 128,-1,13
 572 1135 572 1135 534.5 1144 c 0,14,15
 463 1161.16 463 1161.16 463 1220.08 c 128,-1,16
 463 1279 463 1279 505.5 1311.5 c 128,-1,17
 548 1344 548 1344 649.5 1365 c 128,-1,18
 751 1386 751 1386 864 1386 c 128,-1,19
 977 1386 977 1386 1082.5 1368 c 128,-1,20
 1188 1350 1188 1350 1229 1322 c 128,-1,21
 1270 1294 1270 1294 1270 1254 c 128,-1,22
 1270 1214 1270 1214 1255 1196.5 c 128,-1,23
 1240 1179 1240 1179 1186 1151.5 c 128,-1,24
 1132 1124 1132 1124 1123.5 1083.5 c 128,-1,25
 1115 1043 1115 1043 1110 773.5 c 128,-1,26
 1105 504 1105 504 1102.5 451 c 0,27,28
 1092.14013239 231.370806687 1092.14013239 231.370806687 973 119 c 0,29,30
 901 51 901 51 788 12 c 128,-1,31
 675 -27 675 -27 557 -27 c 0,32,33
 309.254901961 -27 309.254901961 -27 134 82 c 0,34,35
 66 124 66 124 26 195.5 c 128,-1,36
 -14 267 -14 267 -14 357.5 c 128,-1,37
 -14 448 -14 448 49 513.5 c 128,-1,38
 112 579 112 579 206 579 c 128,-1,39
 300 579 300 579 365 523.5 c 128,-1,40
 430 468 430 468 430 386 c 1,0,-1
EndSplineSet
EndChar

StartChar: K
Encoding: 75 75 42
Width: 1694
Flags: MW
LayerCount: 2
Fore
SplineSet
1196 1092 m 2,0,-1
 1089 989 l 2,1,2
 1030 933 1030 933 1030 897.5 c 128,-1,3
 1030 862 1030 862 1043.5 837 c 128,-1,4
 1057 812 1057 812 1094 769 c 2,5,-1
 1468 336 l 2,6,7
 1518 278 1518 278 1537 262.5 c 128,-1,8
 1556 247 1556 247 1602 227 c 0,9,10
 1693 187.434782609 1693 187.434782609 1693 106 c 0,11,12
 1693 0 1693 0 1542 0 c 2,13,-1
 1163 0 l 2,14,15
 1124 0 1124 0 1101.5 17 c 128,-1,16
 1079 34 1079 34 1015.5 121 c 128,-1,17
 952 208 952 208 860 307.5 c 128,-1,18
 768 407 768 407 745.5 425.5 c 128,-1,19
 723 444 723 444 704 444 c 0,20,21
 646 444 646 444 646 345 c 128,-1,22
 646 246 646 246 684 212 c 0,23,24
 691 207 691 207 716 190 c 0,25,26
 770 155 770 155 770 103 c 0,27,28
 770 37 770 37 682 8.5 c 128,-1,29
 594 -20 594 -20 397.5 -20 c 128,-1,30
 201 -20 201 -20 116 2 c 0,31,32
 35 24.5 35 24.5 35 108 c 0,33,34
 35 151 35 151 95 189 c 0,35,36
 122 207 122 207 133.5 228.5 c 0,37,38
 175 306.086956522 175 306.086956522 175 617.543478261 c 128,-1,39
 175 929 175 929 160.5 1011.5 c 128,-1,40
 146 1094 146 1094 132 1115 c 128,-1,41
 118 1136 118 1136 83 1156 c 0,42,43
 27 1188 27 1188 27 1240.5 c 128,-1,44
 27 1293 27 1293 62 1322 c 0,45,46
 139.24137931 1386 139.24137931 1386 430 1386 c 0,47,48
 587 1386 587 1386 659 1357 c 128,-1,49
 731 1328 731 1328 731 1256 c 0,50,51
 731 1226 731 1226 720.5 1209.5 c 128,-1,52
 710 1193 710 1193 666 1158 c 0,53,54
 650 1144 650 1144 636.5 1091 c 128,-1,55
 623 1038 623 1038 623 987 c 0,56,57
 623 903 623 903 661 903 c 0,58,59
 684 903 684 903 705.5 923 c 128,-1,60
 727 943 727 943 797 1029.5 c 128,-1,61
 867 1116 867 1116 867 1142 c 128,-1,62
 867 1168 867 1168 851 1198.5 c 128,-1,63
 835 1229 835 1229 835 1250 c 0,64,65
 835 1324 835 1324 915 1354.5 c 128,-1,66
 995 1385 995 1385 1168.5 1385 c 128,-1,67
 1342 1385 1342 1385 1416 1365 c 0,68,69
 1507 1340 1507 1340 1507 1259 c 0,70,71
 1507 1227 1507 1227 1488 1199.5 c 128,-1,72
 1469 1172 1469 1172 1444.5 1164.5 c 128,-1,73
 1420 1157 1420 1157 1355.5 1156 c 128,-1,74
 1291 1155 1291 1155 1264.5 1143.5 c 128,-1,75
 1238 1132 1238 1132 1196 1092 c 2,0,-1
EndSplineSet
EndChar

StartChar: L
Encoding: 76 76 43
Width: 1296
Flags: MW
LayerCount: 2
Fore
SplineSet
219 480 m 1,0,-1
 208 995 l 1,1,2
 208 1075 208 1075 195.5 1104.5 c 128,-1,3
 183 1134 183 1134 130 1152 c 128,-1,4
 77 1170 77 1170 52 1189.5 c 128,-1,5
 27 1209 27 1209 27 1241 c 0,6,7
 27 1314 27 1314 139 1349.5 c 128,-1,8
 251 1385 251 1385 434.5 1385 c 128,-1,9
 618 1385 618 1385 714 1365 c 0,10,11
 838 1338 838 1338 838 1257 c 0,12,13
 838 1224 838 1224 821.5 1208 c 128,-1,14
 805 1192 805 1192 741 1165 c 0,15,16
 703 1148 703 1148 693 1107 c 128,-1,17
 683 1066 683 1066 683 928 c 2,18,-1
 683 469 l 2,19,20
 683 314 683 314 713 265 c 128,-1,21
 743 216 743 216 853 216 c 0,22,23
 1070.47169811 216 1070.47169811 216 1121 422 c 0,24,25
 1136 487 1136 487 1189 487 c 128,-1,26
 1242 487 1242 487 1275.5 439.5 c 128,-1,27
 1309 392 1309 392 1309 316 c 0,28,29
 1309 192 1309 192 1217 51 c 0,30,31
 1188 6 1188 6 1166 -10.5 c 128,-1,32
 1144 -27 1144 -27 1113 -27 c 1,33,-1
 891 0 l 1,34,-1
 192 0 l 2,35,36
 54 0 54 0 54 85 c 0,37,38
 54 113 54 113 67.5 126.5 c 128,-1,39
 81 140 81 140 135.5 166 c 128,-1,40
 190 192 190 192 204.5 237 c 128,-1,41
 219 282 219 282 219 480 c 1,0,-1
EndSplineSet
EndChar

StartChar: M
Encoding: 77 77 44
Width: 1810
Flags: MW
LayerCount: 2
Fore
SplineSet
1030 414 m 2,0,-1
 910 145 l 2,1,2
 879 77 879 77 860 53.5 c 128,-1,3
 841 30 841 30 818.5 30 c 128,-1,4
 796 30 796 30 782 45.5 c 128,-1,5
 768 61 768 61 728.5 137 c 128,-1,6
 689 213 689 213 663 272 c 2,7,-1
 531 569 l 2,8,9
 504 631 504 631 473 631 c 128,-1,10
 442 631 442 631 439 578 c 0,11,12
 432 460 432 460 432 358 c 128,-1,13
 432 256 432 256 440.5 226.5 c 128,-1,14
 449 197 449 197 460.5 187 c 128,-1,15
 472 177 472 177 523 151 c 0,16,17
 556 134 556 134 556 92 c 0,18,19
 556 -20 556 -20 269 -20 c 0,20,21
 27 -20 27 -20 27 89 c 0,22,23
 27 117 27 117 39.5 129.5 c 128,-1,24
 52 142 52 142 94.5 162 c 128,-1,25
 137 182 137 182 148.5 208 c 128,-1,26
 160 234 160 234 176.5 384.441176471 c 0,27,28
 193 534.882352941 193 534.882352941 193 900.5 c 0,29,30
 193 1095.43478261 193 1095.43478261 147.5 1135 c 0,31,32
 136 1145 136 1145 104 1161 c 0,33,34
 33 1195 33 1195 33 1249 c 0,35,36
 33 1284 33 1284 59.5 1313 c 128,-1,37
 86 1342 86 1342 130 1354.5 c 0,38,39
 240.88 1386 240.88 1386 370.44 1386 c 128,-1,40
 500 1386 500 1386 539.5 1370.5 c 128,-1,41
 579 1355 579 1355 594 1338 c 128,-1,42
 609 1321 609 1321 637 1268 c 2,43,-1
 845 885 l 2,44,45
 879 822 879 822 892 808 c 128,-1,46
 905 794 905 794 926.5 794 c 128,-1,47
 948 794 948 794 963.5 809 c 128,-1,48
 979 824 979 824 1000 865 c 2,49,-1
 1141 1140 l 1,50,51
 1167 1193 1167 1193 1175 1209 c 0,52,53
 1224 1309 1224 1309 1278.5 1347 c 128,-1,54
 1333 1385 1333 1385 1494 1385 c 0,55,56
 1777 1385 1777 1385 1777 1256 c 0,57,58
 1777 1227 1777 1227 1766 1209.5 c 128,-1,59
 1755 1192 1755 1192 1715 1162 c 128,-1,60
 1675 1132 1675 1132 1663 1066 c 0,61,62
 1640 928 1640 928 1640 701.5 c 128,-1,63
 1640 475 1640 475 1655 355.5 c 128,-1,64
 1670 236 1670 236 1682.5 219 c 128,-1,65
 1695 202 1695 202 1739 173 c 128,-1,66
 1783 144 1783 144 1783 104 c 0,67,68
 1783 2.30188679245 1783 2.30188679245 1589 -16 c 0,69,70
 1536 -21 1536 -21 1396.5 -21 c 0,71,72
 1082 -21 1082 -21 1082 95 c 0,73,74
 1082 119 1082 119 1094 134.5 c 128,-1,75
 1106 150 1106 150 1156 191 c 0,76,77
 1182 212 1182 212 1191.5 272 c 128,-1,78
 1201 332 1201 332 1201 444 c 128,-1,79
 1201 556 1201 556 1193.5 581 c 128,-1,80
 1186 606 1186 606 1160 606 c 128,-1,81
 1134 606 1134 606 1108 567.5 c 128,-1,82
 1082 529 1082 529 1030 414 c 2,0,-1
EndSplineSet
EndChar

StartChar: N
Encoding: 78 78 45
Width: 1700
Flags: MW
LayerCount: 2
Fore
SplineSet
590 1317 m 2,0,-1
 1088 881 l 2,1,2
 1158 820 1158 820 1189 820 c 0,3,4
 1241 820 1241 820 1241 938.5 c 128,-1,5
 1241 1057 1241 1057 1226 1103 c 128,-1,6
 1211 1149 1211 1149 1167.5 1170 c 128,-1,7
 1124 1191 1124 1191 1108 1212.5 c 128,-1,8
 1092 1234 1092 1234 1092 1268 c 0,9,10
 1092 1352 1092 1352 1207 1376 c 0,11,12
 1254 1386 1254 1386 1388 1386 c 128,-1,13
 1522 1386 1522 1386 1580 1368 c 0,14,15
 1672 1340 1672 1340 1672 1268.5 c 128,-1,16
 1672 1197 1672 1197 1597 1164 c 0,17,18
 1567 1151 1567 1151 1556 1141 c 0,19,20
 1510.2959285 1099.45084409 1510.2959285 1099.45084409 1509 861 c 1,21,-1
 1509 535 l 2,22,23
 1509 460 1509 460 1510 307 c 128,-1,24
 1511 154 1511 154 1489 76 c 0,25,26
 1462 -21 1462 -21 1391 -21 c 0,27,28
 1360 -21 1360 -21 1337.5 -8 c 128,-1,29
 1315 5 1315 5 1263 52 c 2,30,-1
 670 583 l 2,31,32
 608 639 608 639 567 639 c 0,33,34
 506 639 506 639 506 485 c 128,-1,35
 506 331 506 331 521.5 280 c 128,-1,36
 537 229 537 229 585 205 c 0,37,38
 652 172 652 172 652 119 c 0,39,40
 652 -20 652 -20 353 -20 c 0,41,42
 218 -20 218 -20 143.5 15.5 c 128,-1,43
 69 51 69 51 69 116 c 0,44,45
 69 150 69 150 83 167 c 128,-1,46
 97 184 97 184 145 212.5 c 128,-1,47
 193 241 193 241 203 312 c 0,48,49
 220 441 220 441 220 746.17647059 c 128,-1,50
 220 1051.35294118 220 1051.35294118 162 1123 c 0,51,52
 145 1144 145 1144 103 1164.5 c 128,-1,53
 61 1185 61 1185 43.5 1206 c 128,-1,54
 26 1227 26 1227 26 1257 c 0,55,56
 26 1353 26 1353 191 1378 c 0,57,58
 247 1386 247 1386 357 1386 c 128,-1,59
 467 1386 467 1386 503.5 1373.5 c 128,-1,60
 540 1361 540 1361 590 1317 c 2,0,-1
EndSplineSet
EndChar

StartChar: O
Encoding: 79 79 46
Width: 1594
Flags: MW
LayerCount: 2
Fore
SplineSet
713 1106 m 0,0,1
 629 1106 629 1106 580 1031 c 0,2,3
 542 975 542 975 542 880 c 128,-1,4
 542 785 542 785 588 636.5 c 0,5,6
 672.452445715 363.86547416 672.452445715 363.86547416 780.5 295 c 0,7,8
 826 266 826 266 887.5 266 c 128,-1,9
 949 266 949 266 995.5 323 c 128,-1,10
 1042 380 1042 380 1042 487 c 128,-1,11
 1042 594 1042 594 1003 734 c 128,-1,12
 964 874 964 874 914 954 c 0,13,14
 821.663316583 1101.73869347 821.663316583 1101.73869347 713 1106 c 0,0,1
808 1393 m 0,15,16
 1065 1393 1065 1393 1257 1246 c 0,17,18
 1387 1145 1387 1145 1467 984.5 c 128,-1,19
 1547 824 1547 824 1547 664 c 0,20,21
 1547 428 1547 428 1391 242 c 0,22,23
 1259 84 1259 84 1046 15 c 0,24,25
 915 -27 915 -27 762.5 -27 c 128,-1,26
 610 -27 610 -27 435.5 52.5 c 128,-1,27
 261 132 261 132 154.5 305 c 128,-1,28
 48 478 48 478 48 699.5 c 128,-1,29
 48 921 48 921 175.5 1093 c 128,-1,30
 303 1265 303 1265 506 1341 c 0,31,32
 642 1393 642 1393 808 1393 c 0,15,16
EndSplineSet
EndChar

StartChar: P
Encoding: 80 80 47
Width: 1401
Flags: MW
LayerCount: 2
Fore
SplineSet
658 1124 m 2,0,-1
 658 784 l 2,1,2
 658 745 658 745 681 734 c 128,-1,3
 704 723 704 723 759 723 c 128,-1,4
 814 723 814 723 859 760 c 0,5,6
 924 813 924 813 924 940.5 c 128,-1,7
 924 1068 924 1068 848 1126 c 0,8,9
 800 1163 800 1163 729 1163 c 128,-1,10
 658 1163 658 1163 658 1124 c 2,0,-1
861 500 m 1,11,-1
 680 510 l 1,12,13
 651 510 651 510 651 477 c 2,14,-1
 651 471 l 1,15,-1
 658 307 l 2,16,17
 660 259 660 259 675.5 235.5 c 128,-1,18
 691 212 691 212 747.5 182 c 128,-1,19
 804 152 804 152 804 111 c 0,20,21
 804 48 804 48 708 14 c 128,-1,22
 612 -20 612 -20 436 -20 c 0,23,24
 66 -20 66 -20 66 107 c 0,25,26
 66 137 66 137 82 153 c 128,-1,27
 98 169 98 169 157 199 c 0,28,29
 193 218 193 218 199 252 c 128,-1,30
 205 286 205 286 207 471 c 1,31,-1
 207 997 l 2,32,33
 207 1099 207 1099 193 1126.5 c 128,-1,34
 179 1154 179 1154 117 1171 c 0,35,36
 27 1197 27 1197 27 1261 c 0,37,38
 27 1354 27 1354 175 1354 c 0,39,40
 199 1354 199 1354 294 1351 c 1,41,-1
 354 1351 l 1,42,43
 520 1352 520 1352 548.5 1353.5 c 128,-1,44
 577 1355 577 1355 693.5 1366 c 128,-1,45
 810 1377 810 1377 858 1377 c 0,46,47
 1022 1377 1022 1377 1150 1310 c 0,48,49
 1373 1194 1373 1194 1373 942 c 0,50,51
 1373 738 1373 738 1221.5 619 c 128,-1,52
 1070 500 1070 500 861 500 c 1,11,-1
EndSplineSet
EndChar

StartChar: Q
Encoding: 81 81 48
Width: 1600
Flags: MW
LayerCount: 2
Fore
SplineSet
708 1103 m 0,0,1
 629 1103 629 1103 584.5 1049.5 c 128,-1,2
 540 996 540 996 540 893.5 c 128,-1,3
 540 791 540 791 575.5 660 c 128,-1,4
 611 529 611 529 672 413 c 0,5,6
 754 257 754 257 876 257 c 0,7,8
 955 257 955 257 1006.5 312 c 128,-1,9
 1058 367 1058 367 1058 465.5 c 128,-1,10
 1058 564 1058 564 1018 707 c 128,-1,11
 978 850 978 850 916 958 c 0,12,13
 836 1099 836 1099 708 1103 c 0,0,1
114 -76 m 1,14,15
 70 -76 70 -76 70 -7.5 c 0,16,17
 70 28 70 28 109 67.5 c 128,-1,18
 148 107 148 107 218 107 c 1,19,-1
 272 106 l 2,20,21
 294 106 294 106 294 123.5 c 128,-1,22
 294 141 294 141 227 218.5 c 128,-1,23
 160 296 160 296 104 415 c 128,-1,24
 48 534 48 534 48 693 c 0,25,26
 48 903 48 903 157.5 1066.5 c 128,-1,27
 267 1230 267 1230 453.5 1311.5 c 128,-1,28
 640 1393 640 1393 796 1393 c 128,-1,29
 952 1393 952 1393 1110 1329 c 0,30,31
 1317 1245 1317 1245 1430.5 1052.5 c 128,-1,32
 1544 860 1544 860 1544 649 c 128,-1,33
 1544 438 1544 438 1413 258 c 0,34,35
 1353 174 1353 174 1264 110.5 c 128,-1,36
 1175 47 1175 47 1082 21 c 0,37,38
 1058 14 1058 14 1058 1 c 0,39,40
 1058 -35 1058 -35 1146.5 -62 c 128,-1,41
 1235 -89 1235 -89 1327 -89 c 128,-1,42
 1419 -89 1419 -89 1482 -61 c 0,43,44
 1495 -55 1495 -55 1508 -55 c 128,-1,45
 1521 -55 1521 -55 1537 -80 c 128,-1,46
 1553 -105 1553 -105 1553 -130 c 0,47,48
 1553 -181 1553 -181 1488.5 -238.5 c 128,-1,49
 1424 -296 1424 -296 1320.5 -330 c 128,-1,50
 1217 -364 1217 -364 1097.5 -364 c 128,-1,51
 978 -364 978 -364 827.5 -315 c 128,-1,52
 677 -266 677 -266 388 -130 c 0,53,54
 337 -105 337 -105 273 -88.5 c 128,-1,55
 209 -72 209 -72 167 -72 c 1,56,-1
 114 -76 l 1,14,15
EndSplineSet
EndChar

StartChar: R
Encoding: 82 82 49
Width: 1590
Flags: MW
LayerCount: 2
Fore
SplineSet
636 1084 m 2,0,-1
 625 851 l 1,1,-1
 625 842 l 2,2,3
 625 806 625 806 635.5 794 c 128,-1,4
 646 782 646 782 678 782 c 0,5,6
 766 782 766 782 806 827.5 c 128,-1,7
 846 873 846 873 846 973 c 0,8,9
 846 1166 846 1166 709 1166 c 0,10,11
 670 1166 670 1166 654 1148 c 128,-1,12
 638 1130 638 1130 636 1084 c 2,0,-1
253 1375 m 1,13,-1
 497 1363 l 1,14,15
 587 1363 587 1363 709.5 1372.5 c 128,-1,16
 832 1382 832 1382 870 1382 c 0,17,18
 1084 1382 1084 1382 1217 1284 c 128,-1,19
 1350 1186 1350 1186 1350 1021 c 0,20,21
 1350 929 1350 929 1306 853.5 c 128,-1,22
 1262 778 1262 778 1185 740 c 0,23,24
 1153 724 1153 724 1153 702 c 0,25,26
 1153 673 1153 673 1202 655 c 0,27,28
 1307 617 1307 617 1356 540 c 128,-1,29
 1405 463 1405 463 1426 304 c 0,30,31
 1435 238 1435 238 1452 218.5 c 128,-1,32
 1469 199 1469 199 1531 181 c 0,33,34
 1550 175 1550 175 1563 155.5 c 128,-1,35
 1576 136 1576 136 1576 108.5 c 128,-1,36
 1576 81 1576 81 1552 49.5 c 0,37,38
 1484.57142857 -39 1484.57142857 -39 1274.78571429 -39 c 128,-1,39
 1065 -39 1065 -39 981 64 c 0,40,41
 943 110 943 110 916.5 180 c 128,-1,42
 890 250 890 250 860.5 371.5 c 128,-1,43
 831 493 831 493 795.5 532 c 128,-1,44
 760 571 760 571 708 572.5 c 128,-1,45
 656 574 656 574 645.5 551 c 128,-1,46
 635 528 635 528 635 422.5 c 128,-1,47
 635 317 635 317 645.5 271.5 c 128,-1,48
 656 226 656 226 666 215 c 128,-1,49
 676 204 676 204 704 188 c 0,50,51
 764 155 764 155 764 95 c 128,-1,52
 764 35 764 35 680.5 7.5 c 128,-1,53
 597 -20 597 -20 398 -20 c 0,54,55
 28 -20 28 -20 28 120 c 0,56,57
 28 144 28 144 39 158.5 c 128,-1,58
 50 173 50 173 91.5 200.5 c 128,-1,59
 133 228 133 228 148.5 267.5 c 128,-1,60
 164 307 164 307 169.5 391 c 128,-1,61
 175 475 175 475 175 913 c 0,62,63
 175 1052 175 1052 161 1102 c 128,-1,64
 147 1152 147 1152 102 1174 c 128,-1,65
 57 1196 57 1196 42 1213.5 c 128,-1,66
 27 1231 27 1231 27 1263.5 c 128,-1,67
 27 1296 27 1296 55.5 1323.5 c 0,68,69
 108.872727273 1375 108.872727273 1375 253 1375 c 1,13,-1
EndSplineSet
EndChar

StartChar: S
Encoding: 83 83 50
Width: 1321
Flags: MW
LayerCount: 2
Fore
SplineSet
41 397.5 m 0,0,1
 41 530 41 530 124 530 c 0,2,3
 162 530 162 530 190 499.5 c 128,-1,4
 218 469 218 469 296 350 c 0,5,6
 333 294 333 294 413.5 257 c 128,-1,7
 494 220 494 220 574 220 c 128,-1,8
 654 220 654 220 700 247.5 c 128,-1,9
 746 275 746 275 746 316.5 c 128,-1,10
 746 358 746 358 710 387 c 128,-1,11
 674 416 674 416 562 451 c 128,-1,12
 450 486 450 486 375 523.5 c 128,-1,13
 300 561 300 561 235 618 c 0,14,15
 77 758 77 758 77 936 c 0,16,17
 77 1024 77 1024 118 1107.5 c 128,-1,18
 159 1191 159 1191 234 1252 c 0,19,20
 402 1393 402 1393 644 1393 c 0,21,22
 747 1393 747 1393 914 1342 c 0,23,24
 934 1336 934 1336 945 1336 c 128,-1,25
 956 1336 956 1336 989 1348 c 128,-1,26
 1022 1360 1022 1360 1040 1360 c 0,27,28
 1107 1360 1107 1360 1181.5 1254 c 128,-1,29
 1256 1148 1256 1148 1256 1052 c 0,30,31
 1256 996 1256 996 1222.5 957.5 c 128,-1,32
 1189 919 1189 919 1145 919 c 128,-1,33
 1101 919 1101 919 1076 935 c 128,-1,34
 1051 951 1051 951 966 1030 c 0,35,36
 846 1142 846 1142 730 1142 c 0,37,38
 674 1142 674 1142 640.5 1115 c 128,-1,39
 607 1088 607 1088 607 1044 c 0,40,41
 607 957 607 957 760 913 c 0,42,43
 967 852 967 852 1025 824 c 0,44,45
 1280 700 1280 700 1280 459 c 0,46,47
 1280 246 1280 246 1104 109.5 c 128,-1,48
 928 -27 928 -27 641 -27 c 0,49,50
 513 -27 513 -27 371 3.5 c 128,-1,51
 229 34 229 34 173.5 70.5 c 128,-1,52
 118 107 118 107 79.5 214.5 c 128,-1,53
 41 322 41 322 41 397.5 c 0,0,1
EndSplineSet
EndChar

StartChar: T
Encoding: 84 84 51
Width: 1435
Flags: MW
LayerCount: 2
Fore
SplineSet
1130 121 m 0,0,1
 1130 -21 1130 -21 733 -21 c 0,2,3
 485 -21 485 -21 374.5 16.5 c 128,-1,4
 264 54 264 54 264 130 c 0,5,6
 264 171 264 171 300 194 c 0,7,8
 309 199 309 199 359 214 c 128,-1,9
 409 229 409 229 423.5 260 c 128,-1,10
 438 291 438 291 453.5 442.352941176 c 128,-1,11
 469 593.705882353 469 593.705882353 469 934 c 0,12,13
 469 1024 469 1024 455 1062 c 128,-1,14
 441 1100 441 1100 405.5 1100 c 128,-1,15
 370 1100 370 1100 333 1044 c 0,16,17
 266 942 266 942 219 906 c 128,-1,18
 172 870 172 870 121 870 c 128,-1,19
 70 870 70 870 35 910.5 c 128,-1,20
 0 951 0 951 0 1013.5 c 128,-1,21
 0 1076 0 1076 28 1150.5 c 128,-1,22
 56 1225 56 1225 103 1288 c 0,23,24
 179 1390 179 1390 253 1390 c 0,25,26
 273 1390 273 1390 331.823529412 1377.5 c 128,-1,27
 390.647058824 1365 390.647058824 1365 467 1365 c 2,28,-1
 994 1365 l 1,29,30
 1079 1368 1079 1368 1129 1382 c 128,-1,31
 1179 1396 1179 1396 1202 1396 c 0,32,33
 1283 1396 1283 1396 1359.5 1276 c 128,-1,34
 1436 1156 1436 1156 1436 1049 c 128,-1,35
 1436 942 1436 942 1389.5 907 c 128,-1,36
 1343 872 1343 872 1288.5 872 c 128,-1,37
 1234 872 1234 872 1195 901.5 c 128,-1,38
 1156 931 1156 931 1120.5 996 c 128,-1,39
 1085 1061 1085 1061 1066 1080 c 128,-1,40
 1047 1099 1047 1099 1015 1099 c 0,41,42
 951 1099 951 1099 951 966 c 2,43,-1
 951 406 l 2,44,45
 951 320 951 320 969 281 c 128,-1,46
 987 242 987 242 1039 220 c 128,-1,47
 1091 198 1091 198 1110.5 177.5 c 128,-1,48
 1130 157 1130 157 1130 121 c 0,0,1
EndSplineSet
EndChar

StartChar: U
Encoding: 85 85 52
Width: 1679
Flags: MW
LayerCount: 2
Fore
SplineSet
151 586 m 1,0,-1
 159 982 l 1,1,2
 159 1065 159 1065 146.5 1097 c 128,-1,3
 134 1129 134 1129 92 1157 c 0,4,5
 26 1200 26 1200 26 1246 c 128,-1,6
 26 1292 26 1292 59.5 1322 c 0,7,8
 129.85 1385 129.85 1385 408 1385 c 0,9,10
 573 1385 573 1385 681 1360.5 c 128,-1,11
 789 1336 789 1336 789 1251 c 0,12,13
 789 1209 789 1209 758 1184 c 0,14,15
 751 1178 751 1178 708.5 1158.5 c 128,-1,16
 666 1139 666 1139 654.5 1102 c 128,-1,17
 643 1065 643 1065 643 979 c 128,-1,18
 643 893 643 893 635 604 c 0,19,20
 630 432 630 432 728 342 c 0,21,22
 808 268 808 268 934 268 c 0,23,24
 1014 268 1014 268 1079 297.5 c 128,-1,25
 1144 327 1144 327 1174.5 372 c 128,-1,26
 1205 417 1205 417 1215 465 c 128,-1,27
 1225 513 1225 513 1225 596 c 2,28,-1
 1225 816 l 1,29,30
 1220 1069 1220 1069 1210.5 1112.5 c 128,-1,31
 1201 1156 1201 1156 1147.5 1180 c 128,-1,32
 1094 1204 1094 1204 1075 1223 c 128,-1,33
 1056 1242 1056 1242 1056 1270 c 0,34,35
 1056 1330 1056 1330 1127.5 1357.5 c 128,-1,36
 1199 1385 1199 1385 1355.5 1385 c 128,-1,37
 1512 1385 1512 1385 1581.5 1358 c 128,-1,38
 1651 1331 1651 1331 1651 1272 c 0,39,40
 1651 1243 1651 1243 1639 1229 c 128,-1,41
 1627 1215 1627 1215 1575 1185.5 c 128,-1,42
 1523 1156 1523 1156 1515.5 1121.5 c 128,-1,43
 1508 1087 1508 1087 1506 865 c 1,44,-1
 1506 621 l 2,45,46
 1506 400 1506 400 1473 308 c 0,47,48
 1402 114 1402 114 1161 27 c 0,49,50
 1015 -27 1015 -27 831 -27 c 0,51,52
 510 -27 510 -27 317 126 c 0,53,54
 223 201 223 201 187 300 c 128,-1,55
 151 399 151 399 151 586 c 1,0,-1
EndSplineSet
EndChar

StartChar: V
Encoding: 86 86 53
Width: 1644
Flags: MW
LayerCount: 2
Fore
SplineSet
406 1386 m 0,0,1
 802 1386 802 1386 802 1259 c 0,2,3
 802 1217 802 1217 756 1185.5 c 128,-1,4
 710 1154 710 1154 710 1131 c 128,-1,5
 710 1108 710 1108 728 1067 c 2,6,-1
 853 785 l 2,7,8
 880 723 880 723 913.5 723 c 128,-1,9
 947 723 947 723 973 756 c 128,-1,10
 999 789 999 789 1060.5 924.5 c 128,-1,11
 1122 1060 1122 1060 1135 1091.5 c 128,-1,12
 1148 1123 1148 1123 1148 1140 c 0,13,14
 1148 1174 1148 1174 1098.5 1199.5 c 128,-1,15
 1049 1225 1049 1225 1049 1267 c 0,16,17
 1049 1386 1049 1386 1368 1386 c 0,18,19
 1527 1386 1527 1386 1592.5 1360.5 c 128,-1,20
 1658 1335 1658 1335 1658 1273 c 0,21,22
 1658 1199 1658 1199 1572 1188 c 0,23,24
 1511 1181 1511 1181 1486 1163 c 128,-1,25
 1461 1145 1461 1145 1417 1055 c 2,26,-1
 958 126 l 2,27,28
 916 40 916 40 878 7.5 c 128,-1,29
 840 -25 840 -25 787 -25 c 128,-1,30
 734 -25 734 -25 700.5 -6.5 c 128,-1,31
 667 12 667 12 650.5 33.5 c 128,-1,32
 634 55 634 55 609 111 c 2,33,-1
 200 1012 l 2,34,35
 166 1088 166 1088 138.5 1115.5 c 128,-1,36
 111 1143 111 1143 55.5 1153 c 128,-1,37
 0 1163 0 1163 0 1233 c 128,-1,38
 0 1303 0 1303 105 1344.5 c 128,-1,39
 210 1386 210 1386 406 1386 c 0,0,1
EndSplineSet
EndChar

StartChar: W
Encoding: 87 87 54
Width: 2129
Flags: MW
LayerCount: 2
Fore
SplineSet
1916 1386 m 0,0,1
 2142 1386 2142 1386 2142 1268 c 0,2,3
 2142 1239 2142 1239 2128.5 1218 c 128,-1,4
 2115 1197 2115 1197 2081 1168 c 128,-1,5
 2047 1139 2047 1139 2032.5 1113 c 128,-1,6
 2018 1087 2018 1087 1988 1006 c 2,7,-1
 1813 541 l 1,8,9
 1682 216 1682 216 1655 154 c 128,-1,10
 1628 92 1628 92 1602.5 49.5 c 128,-1,11
 1577 7 1577 7 1550 -7.5 c 128,-1,12
 1523 -22 1523 -22 1470.5 -22 c 0,13,14
 1366.66666667 -22 1366.66666667 -22 1320 90 c 2,15,-1
 1122 560 l 2,16,17
 1106 599 1106 599 1098 609 c 128,-1,18
 1090 619 1090 619 1072.5 619 c 128,-1,19
 1055 619 1055 619 1040 594 c 128,-1,20
 1025 569 1025 569 983 465 c 2,21,-1
 847 127 l 2,22,23
 809 35 809 35 774.5 5.5 c 128,-1,24
 740 -24 740 -24 673.5 -24 c 128,-1,25
 607 -24 607 -24 570.5 6 c 128,-1,26
 534 36 534 36 504 112 c 2,27,-1
 136 1053 l 2,28,29
 113 1111 113 1111 104.5 1121.5 c 128,-1,30
 96 1132 96 1132 48 1157 c 128,-1,31
 0 1182 0 1182 0 1244 c 0,32,33
 0 1385 0 1385 350 1385 c 0,34,35
 529 1385 529 1385 607.5 1360 c 128,-1,36
 686 1335 686 1335 686 1261 c 0,37,38
 686 1238 686 1238 682 1227.5 c 128,-1,39
 678 1217 678 1217 659.5 1189.5 c 128,-1,40
 641 1162 641 1162 641 1123 c 128,-1,41
 641 1084 641 1084 708 926 c 2,42,-1
 749 830 l 2,43,44
 775 770 775 770 783.5 757.5 c 128,-1,45
 792 745 792 745 808 745 c 0,46,47
 847 745 847 745 888 856 c 1,48,-1
 929 970 l 2,49,50
 934 982 934 982 934 989.5 c 128,-1,51
 934 997 934 997 929 1010 c 2,52,-1
 900 1080 l 1,53,54
 873 1141 873 1141 833 1161 c 0,55,56
 761 1199 761 1199 761 1257 c 0,57,58
 761 1385 761 1385 1145 1385 c 0,59,60
 1435.125 1385 1435.125 1385 1491.5 1319 c 0,61,62
 1512 1295 1512 1295 1512 1268 c 128,-1,63
 1512 1241 1512 1241 1502.5 1228 c 128,-1,64
 1493 1215 1493 1215 1459 1185.5 c 128,-1,65
 1425 1156 1425 1156 1425 1127 c 128,-1,66
 1425 1098 1425 1098 1463 1017 c 2,67,-1
 1520 895 l 2,68,69
 1559 812 1559 812 1575.5 789.5 c 128,-1,70
 1592 767 1592 767 1614 767 c 128,-1,71
 1636 767 1636 767 1652.5 793 c 128,-1,72
 1669 819 1669 819 1695 895 c 2,73,-1
 1743 1035 l 2,74,75
 1763 1095 1763 1095 1763 1130 c 128,-1,76
 1763 1165 1763 1165 1721 1178 c 0,77,78
 1637 1205 1637 1205 1637 1269.5 c 128,-1,79
 1637 1334 1637 1334 1702 1360 c 128,-1,80
 1767 1386 1767 1386 1916 1386 c 0,0,1
EndSplineSet
EndChar

StartChar: X
Encoding: 88 88 55
Width: 1628
Flags: MW
LayerCount: 2
Fore
SplineSet
902 1267 m 0,0,1
 902 1386 902 1386 1210.5 1386 c 0,2,3
 1363 1386 1363 1386 1433 1365 c 0,4,5
 1521 1339 1521 1339 1521 1261 c 0,6,7
 1521 1209 1521 1209 1476 1183 c 0,8,9
 1458 1173 1458 1173 1395 1168.5 c 128,-1,10
 1332 1164 1332 1164 1279.5 1124 c 128,-1,11
 1227 1084 1227 1084 1157 995 c 2,12,-1
 1039 847 l 2,13,14
 1026 830 1026 830 1026 823 c 128,-1,15
 1026 816 1026 816 1039 800 c 2,16,-1
 1421 321 l 2,17,18
 1455 279 1455 279 1474 264 c 128,-1,19
 1493 249 1493 249 1538 234.5 c 0,20,21
 1628 205.5 1628 205.5 1628 130.845959596 c 0,22,23
 1628 56.1919191919 1628 56.1919191919 1528.75 18.095959596 c 128,-1,24
 1429.5 -20 1429.5 -20 1198.75 -20 c 128,-1,25
 968 -20 968 -20 900.5 -4.5 c 0,26,27
 775 24.3185185185 775 24.3185185185 775 99 c 0,28,29
 775 142 775 142 815 168.5 c 128,-1,30
 855 195 855 195 855 213 c 0,31,32
 855 263 855 263 739 416 c 0,33,34
 724 435 724 435 713.5 435 c 128,-1,35
 703 435 703 435 672.5 398 c 128,-1,36
 642 361 642 361 605.5 303 c 128,-1,37
 569 245 569 245 569 228.5 c 128,-1,38
 569 212 569 212 609.5 181 c 128,-1,39
 650 150 650 150 650 104 c 0,40,41
 650 35 650 35 572 11 c 0,42,43
 470 -21 470 -21 319.5 -21 c 128,-1,44
 169 -21 169 -21 83 6 c 0,45,46
 48 17 48 17 24 47 c 128,-1,47
 0 77 0 77 0 115.5 c 128,-1,48
 0 154 0 154 29.5 179 c 128,-1,49
 59 204 59 204 119.5 206 c 128,-1,50
 180 208 180 208 226 245.5 c 128,-1,51
 272 283 272 283 386 427 c 2,52,-1
 541 621 l 2,53,54
 554 637 554 637 554 644.5 c 128,-1,55
 554 652 554 652 541 668 c 2,56,-1
 285 995 l 2,57,58
 225 1073 225 1073 206 1090 c 128,-1,59
 187 1107 187 1107 136 1123 c 128,-1,60
 85 1139 85 1139 59 1162.5 c 128,-1,61
 33 1186 33 1186 33 1229 c 0,62,63
 33 1319 33 1319 179 1352 c 128,-1,64
 325 1385 325 1385 519 1385 c 128,-1,65
 713 1385 713 1385 783 1359.75806452 c 0,66,67
 853 1334.51612903 853 1334.51612903 853 1253 c 0,68,69
 853 1212 853 1212 823 1191 c 128,-1,70
 793 1170 793 1170 788.5 1165 c 128,-1,71
 784 1160 784 1160 784 1143 c 128,-1,72
 784 1126 784 1126 821 1078 c 128,-1,73
 858 1030 858 1030 875 1030 c 128,-1,74
 892 1030 892 1030 934 1081 c 128,-1,75
 976 1132 976 1132 976 1148 c 128,-1,76
 976 1164 976 1164 970.5 1170 c 128,-1,77
 965 1176 965 1176 933.5 1199.5 c 128,-1,78
 902 1223 902 1223 902 1267 c 0,0,1
EndSplineSet
EndChar

StartChar: Y
Encoding: 89 89 56
Width: 1597
Flags: MW
LayerCount: 2
Fore
SplineSet
101 1356.5 m 128,-1,1
 202 1386 202 1386 418.5 1386 c 128,-1,2
 635 1386 635 1386 710 1371 c 0,3,4
 842 1344.6 842 1344.6 842 1269 c 0,5,6
 842 1243 842 1243 815 1209 c 128,-1,7
 788 1175 788 1175 788 1148 c 128,-1,8
 788 1121 788 1121 835 1056 c 128,-1,9
 882 991 882 991 909 991 c 128,-1,10
 936 991 936 991 956 1006.5 c 128,-1,11
 976 1022 976 1022 1011.5 1066.5 c 128,-1,12
 1047 1111 1047 1111 1047 1134.5 c 128,-1,13
 1047 1158 1047 1158 1042.5 1167 c 128,-1,14
 1038 1176 1038 1176 1014 1204.5 c 128,-1,15
 990 1233 990 1233 990 1272 c 0,16,17
 990 1385 990 1385 1296 1385 c 0,18,19
 1469 1385 1469 1385 1511.5 1372 c 128,-1,20
 1554 1359 1554 1359 1575.5 1331 c 128,-1,21
 1597 1303 1597 1303 1597 1266.5 c 128,-1,22
 1597 1230 1597 1230 1572 1209 c 128,-1,23
 1547 1188 1547 1188 1487.5 1177 c 128,-1,24
 1428 1166 1428 1166 1386 1133.5 c 128,-1,25
 1344 1101 1344 1101 1220 967.5 c 128,-1,26
 1096 834 1096 834 1062.5 764.5 c 128,-1,27
 1029 695 1029 695 1029 568 c 128,-1,28
 1029 441 1029 441 1036 361 c 128,-1,29
 1043 281 1043 281 1057 257.5 c 128,-1,30
 1071 234 1071 234 1115 211 c 0,31,32
 1188 173 1188 173 1188 116 c 0,33,34
 1188 -20 1188 -20 786 -20 c 0,35,36
 621 -20 621 -20 485.5 9.5 c 128,-1,37
 350 39 350 39 350 119 c 0,38,39
 350 181 350 181 426 208 c 0,40,41
 483 228 483 228 497 259 c 0,42,43
 529 328 529 328 529 585 c 0,44,45
 529 665 529 665 513 709.5 c 128,-1,46
 497 754 497 754 413.5 863 c 128,-1,47
 330 972 330 972 210 1090 c 0,48,49
 158 1141 158 1141 100 1162.5 c 128,-1,50
 42 1184 42 1184 21 1202 c 128,-1,51
 0 1220 0 1220 0 1260 c 0,52,0
 0 1327 0 1327 101 1356.5 c 128,-1,1
EndSplineSet
EndChar

StartChar: Z
Encoding: 90 90 57
Width: 1405
Flags: MW
LayerCount: 2
Fore
SplineSet
1251 501 m 0,0,1
 1391 501 1391 501 1391 342.5 c 128,-1,2
 1391 184 1391 184 1307 65 c 0,3,4
 1248 -18 1248 -18 1195 -18 c 0,5,6
 1180 -18 1180 -18 1131 -9 c 128,-1,7
 1082 0 1082 0 1017 0 c 2,8,-1
 148 0 l 2,9,10
 89 0 89 0 77.5 2 c 128,-1,11
 66 4 66 4 50 20.5 c 128,-1,12
 34 37 34 37 34 70.5 c 128,-1,13
 34 104 34 104 62 152 c 2,14,-1
 577 1025 l 2,15,16
 600 1064 600 1064 600 1079 c 0,17,18
 600 1136 600 1136 494 1136 c 128,-1,19
 388 1136 388 1136 344.5 1104 c 128,-1,20
 301 1072 301 1072 252.5 972 c 128,-1,21
 204 872 204 872 150 872 c 128,-1,22
 96 872 96 872 55 921 c 128,-1,23
 14 970 14 970 14 1053 c 128,-1,24
 14 1136 14 1136 86.5 1257.5 c 128,-1,25
 159 1379 159 1379 196 1379 c 0,26,27
 205 1379 205 1379 222 1373 c 0,28,29
 282 1352 282 1352 430.5 1352 c 128,-1,30
 579 1352 579 1352 883.5 1370 c 128,-1,31
 1188 1388 1188 1388 1213 1388 c 128,-1,32
 1238 1388 1238 1388 1264.5 1363 c 128,-1,33
 1291 1338 1291 1338 1291 1304 c 128,-1,34
 1291 1270 1291 1270 1255 1207 c 2,35,-1
 813 445 l 2,36,37
 738 315 738 315 738 289 c 0,38,39
 738 243 738 243 874 243 c 0,40,41
 927 243 927 243 981 254.5 c 128,-1,42
 1035 266 1035 266 1060 282 c 0,43,44
 1111 316 1111 316 1161 426 c 0,45,46
 1181 469 1181 469 1200 485 c 128,-1,47
 1219 501 1219 501 1251 501 c 0,0,1
EndSplineSet
EndChar

StartChar: bracketleft
Encoding: 91 91 58
Width: 1021
Flags: MW
LayerCount: 2
Fore
SplineSet
859 1206 m 1,0,-1
 731 1212 l 1,1,2
 659 1212 659 1212 642.5 1186.5 c 128,-1,3
 626 1161 626 1161 626 1050 c 2,4,-1
 626 -73 l 2,5,6
 626 -166 626 -166 648 -191 c 128,-1,7
 670 -216 670 -216 753 -216 c 1,8,-1
 875 -208 l 1,9,10
 917 -208 917 -208 942.5 -227 c 128,-1,11
 968 -246 968 -246 968 -274.5 c 128,-1,12
 968 -303 968 -303 950.5 -327.5 c 128,-1,13
 933 -352 933 -352 907 -362 c 0,14,15
 839 -389 839 -389 603.5 -389 c 128,-1,16
 368 -389 368 -389 323 -360 c 0,17,18
 252 -315 252 -315 252 -73 c 2,19,-1
 252 1063 l 2,20,21
 252 1307 252 1307 318 1354 c 0,22,23
 363 1386 363 1386 561.5 1386 c 128,-1,24
 760 1386 760 1386 848 1373 c 0,25,26
 964 1356 964 1356 964 1278 c 0,27,28
 964 1206 964 1206 859 1206 c 1,0,-1
EndSplineSet
EndChar

StartChar: backslash
Encoding: 92 92 59
Width: 966
Flags: MW
LayerCount: 2
Fore
SplineSet
639 48 m 2,0,-1
 278 868 l 1,1,2
 223 999 223 999 105 1225 c 0,3,4
 80 1272 80 1272 80 1306 c 0,5,6
 80 1385 80 1385 246 1385 c 0,7,8
 291 1385 291 1385 312 1366.5 c 128,-1,9
 333 1348 333 1348 350.5 1298.5 c 128,-1,10
 368 1249 368 1249 403.5 1165.5 c 128,-1,11
 439 1082 439 1082 492 948 c 1,12,-1
 852 125 l 2,13,14
 896 24 896 24 960 -99 c 128,-1,15
 1024 -222 1024 -222 1037 -251 c 128,-1,16
 1050 -280 1050 -280 1050 -304 c 0,17,18
 1050 -346 1050 -346 998 -367.5 c 128,-1,19
 946 -389 946 -389 889 -389 c 128,-1,20
 832 -389 832 -389 798 -334 c 0,21,22
 784 -311 784 -311 748 -214.5 c 128,-1,23
 712 -118 712 -118 639 48 c 2,0,-1
EndSplineSet
EndChar

StartChar: bracketright
Encoding: 93 93 60
Width: 1021
Flags: MW
LayerCount: 2
Fore
SplineSet
163 -209 m 1,0,-1
 291 -215 l 1,1,2
 363 -215 363 -215 379.5 -189.5 c 128,-1,3
 396 -164 396 -164 396 -54 c 2,4,-1
 396 1069 l 2,5,6
 396 1163 396 1163 374 1188 c 128,-1,7
 352 1213 352 1213 269 1213 c 1,8,-1
 147 1204 l 1,9,10
 105 1204 105 1204 79.5 1223 c 128,-1,11
 54 1242 54 1242 54 1271 c 128,-1,12
 54 1300 54 1300 71.5 1324.5 c 128,-1,13
 89 1349 89 1349 115 1359 c 0,14,15
 183 1386 183 1386 418.5 1386 c 128,-1,16
 654 1386 654 1386 699 1357 c 0,17,18
 770 1312 770 1312 770 1069 c 2,19,-1
 770 -66 l 2,20,21
 770 -310 770 -310 704 -357 c 0,22,23
 659 -389 659 -389 461 -389 c 128,-1,24
 263 -389 263 -389 174 -376 c 0,25,26
 58 -359 58 -359 58 -281 c 0,27,28
 58 -209 58 -209 163 -209 c 1,0,-1
EndSplineSet
EndChar

StartChar: asciicircum
Encoding: 94 94 61
Width: 1024
Flags: MW
LayerCount: 2
Fore
SplineSet
387 671 m 1,0,-1
 -1 671 l 1,1,-1
 265 1377 l 1,2,-1
 759 1377 l 1,3,-1
 1025 671 l 1,4,-1
 638 671 l 1,5,-1
 513 1076 l 1,6,-1
 387 671 l 1,0,-1
EndSplineSet
EndChar

StartChar: underscore
Encoding: 95 95 62
Width: 1024
Flags: MW
LayerCount: 2
Fore
SplineSet
0 -109 m 1,0,-1
 1024 -109 l 1,1,-1
 1024 -366 l 1,2,-1
 0 -366 l 1,3,-1
 0 -109 l 1,0,-1
EndSplineSet
EndChar

StartChar: grave
Encoding: 96 96 63
Width: 1024
Flags: MW
LayerCount: 2
Fore
SplineSet
557 1371 m 1,0,-1
 542 1326 l 1,1,2
 542 1312 542 1312 552 1301.5 c 128,-1,3
 562 1291 562 1291 609.5 1255.5 c 128,-1,4
 657 1220 657 1220 667.5 1206.5 c 128,-1,5
 678 1193 678 1193 678 1166 c 0,6,7
 678 1092 678 1092 575 1092 c 0,8,9
 392 1092 392 1092 241 1209 c 0,10,11
 156 1274 156 1274 156 1321 c 128,-1,12
 156 1368 156 1368 224 1399 c 128,-1,13
 292 1430 292 1430 379 1430 c 128,-1,14
 466 1430 466 1430 511.5 1413.5 c 128,-1,15
 557 1397 557 1397 557 1371 c 1,0,-1
EndSplineSet
EndChar

StartChar: a
Encoding: 97 97 64
Width: 1161
Flags: MW
LayerCount: 2
Fore
SplineSet
585.5 398 m 128,-1,1
 574 417 574 417 536 417.5 c 128,-1,2
 498 418 498 418 465.5 382 c 128,-1,3
 433 346 433 346 433 297 c 128,-1,4
 433 248 433 248 456 218.5 c 128,-1,5
 479 189 479 189 517 189 c 0,6,7
 597 189 597 189 597 324 c 0,8,0
 597 379 597 379 585.5 398 c 128,-1,1
231 901 m 0,9,10
 412 997 412 997 597.5 997 c 128,-1,11
 783 997 783 997 904 909 c 0,12,13
 968 862 968 862 993.5 801.5 c 128,-1,14
 1019 741 1019 741 1019 635 c 1,15,-1
 1017 486 l 1,16,17
 1017 331 1017 331 1033.5 297 c 128,-1,18
 1050 263 1050 263 1060 257 c 128,-1,19
 1070 251 1070 251 1102 246 c 128,-1,20
 1134 241 1134 241 1134 198.5 c 128,-1,21
 1134 156 1134 156 1095.5 104 c 128,-1,22
 1057 52 1057 52 989 12.5 c 128,-1,23
 921 -27 921 -27 827.5 -27 c 128,-1,24
 734 -27 734 -27 673 45 c 0,25,26
 652 71 652 71 633 71 c 128,-1,27
 614 71 614 71 581 46 c 0,28,29
 481 -27 481 -27 352 -27 c 128,-1,30
 223 -27 223 -27 156 19.5 c 0,31,32
 27 109.029850746 27 109.029850746 27 250 c 0,33,34
 27 354 27 354 111 434 c 0,35,36
 242 560 242 560 503 561 c 0,37,38
 561 561 561 561 576 572.5 c 128,-1,39
 591 584 591 584 591 658 c 0,40,41
 591 827 591 827 497 827 c 0,42,43
 467 827 467 827 443.5 809 c 128,-1,44
 420 791 420 791 385 743 c 0,45,46
 296 616 296 616 199 616 c 0,47,48
 150 616 150 616 119 645 c 128,-1,49
 88 674 88 674 88 721.5 c 128,-1,50
 88 769 88 769 126.5 817 c 128,-1,51
 165 865 165 865 231 901 c 0,9,10
EndSplineSet
EndChar

StartChar: b
Encoding: 98 98 65
Width: 1295
Flags: MW
LayerCount: 2
Fore
SplineSet
672 151 m 0,0,1
 821 151 821 151 821 393 c 0,2,3
 821 567 821 567 757 647 c 0,4,5
 720 693 720 693 667 694 c 128,-1,6
 614 695 614 695 592.5 662.5 c 128,-1,7
 571 630 571 630 571 544 c 0,8,9
 571 309 571 309 586 230 c 128,-1,10
 601 151 601 151 672 151 c 0,0,1
582 1305 m 2,11,-1
 569 915 l 1,12,-1
 569 893 l 2,13,14
 569 873 569 873 582 873 c 0,15,16
 589 873 589 873 622 900 c 0,17,18
 739 996 739 996 879.5 996 c 128,-1,19
 1020 996 1020 996 1127 895 c 0,20,21
 1261 768 1261 768 1261 564 c 0,22,23
 1261 273 1261 273 1044 99 c 0,24,25
 888 -27 888 -27 678 -27 c 0,26,27
 574 -27 574 -27 490.5 -0.5 c 128,-1,28
 407 26 407 26 308 90 c 0,29,30
 293 99 293 99 283 99 c 128,-1,31
 273 99 273 99 234.5 84.5 c 128,-1,32
 196 70 196 70 161 70 c 0,33,34
 99 70 99 70 99 110 c 0,35,36
 99 123 99 123 111.5 164 c 0,37,38
 138 250.92 138 250.92 138 605 c 2,39,-1
 138 881 l 2,40,41
 138 984 138 984 130 1010 c 128,-1,42
 122 1036 122 1036 77.5 1054.5 c 128,-1,43
 33 1073 33 1073 13 1094.5 c 128,-1,44
 -7 1116 -7 1116 -7 1149 c 0,45,46
 -7 1216 -7 1216 136 1280 c 0,47,48
 214 1314 214 1314 330.5 1339.5 c 128,-1,49
 447 1365 447 1365 530 1365 c 0,50,51
 583 1365 583 1365 582 1305 c 2,11,-1
EndSplineSet
EndChar

StartChar: c
Encoding: 99 99 66
Width: 1078
Flags: MW
LayerCount: 2
Fore
SplineSet
608 996 m 0,0,1
 786 996 786 996 918.5 909 c 128,-1,2
 1051 822 1051 822 1051 696 c 0,3,4
 1051 609 1051 609 993 556.5 c 128,-1,5
 935 504 935 504 854 504 c 128,-1,6
 773 504 773 504 731 564 c 0,7,8
 718 583 718 583 692 664 c 128,-1,9
 666 745 666 745 590 745 c 0,10,11
 535 745 535 745 497.5 697 c 128,-1,12
 460 649 460 649 460 579 c 0,13,14
 460 459 460 459 538 375 c 128,-1,15
 616 291 616 291 710.227272728 291 c 0,16,17
 804.454545455 291 804.454545455 291 856.727272727 316 c 128,-1,18
 909 341 909 341 934.5 341 c 128,-1,19
 960 341 960 341 986 309 c 128,-1,20
 1012 277 1012 277 1012 233 c 128,-1,21
 1012 189 1012 189 975 139.5 c 128,-1,22
 938 90 938 90 878 53 c 0,23,24
 748 -27 748 -27 556.5 -27 c 128,-1,25
 365 -27 365 -27 220 93 c 0,26,27
 34 245 34 245 34 475.5 c 128,-1,28
 34 706 34 706 203 851 c 128,-1,29
 372 996 372 996 608 996 c 0,0,1
EndSplineSet
EndChar

StartChar: d
Encoding: 100 100 67
Width: 1332
Flags: MW
LayerCount: 2
Fore
SplineSet
748.5 291.5 m 128,-1,1
 778 367 778 367 778 528 c 128,-1,2
 778 689 778 689 747 734.5 c 128,-1,3
 716 780 716 780 657.5 781 c 128,-1,4
 599 782 599 782 561 713 c 0,5,6
 510 621 510 621 510 478 c 128,-1,7
 510 335 510 335 552 275.5 c 128,-1,8
 594 216 594 216 656.5 216 c 128,-1,0
 719 216 719 216 748.5 291.5 c 128,-1,1
1207 1285 m 2,9,-1
 1207 372 l 2,10,11
 1207 294 1207 294 1213.5 272 c 128,-1,12
 1220 250 1220 250 1253 227 c 128,-1,13
 1286 204 1286 204 1298.5 185 c 128,-1,14
 1311 166 1311 166 1311 139 c 0,15,16
 1311 59 1311 59 1158 19.5 c 128,-1,17
 1005 -20 1005 -20 860 -20 c 0,18,19
 828 -20 828 -20 818.5 -10.5 c 128,-1,20
 809 -1 809 -1 805 42.5 c 128,-1,21
 801 86 801 86 770 86 c 0,22,23
 753 86 753 86 717 56 c 0,24,25
 615 -27 615 -27 475 -27 c 128,-1,26
 335 -27 335 -27 211 88 c 0,27,28
 138 157 138 157 85.5 260.5 c 128,-1,29
 33 364 33 364 33 494.5 c 128,-1,30
 33 625 33 625 108 751 c 128,-1,31
 183 877 183 877 297 936.5 c 128,-1,32
 411 996 411 996 519.5 996 c 128,-1,33
 628 996 628 996 720 944 c 0,34,35
 735 936 735 936 744 936 c 0,36,37
 776 936 776 936 776 1022 c 0,38,39
 776 1059 776 1059 758.5 1078.5 c 128,-1,40
 741 1098 741 1098 696 1112 c 0,41,42
 633 1132 633 1132 633 1182 c 0,43,44
 633 1255 633 1255 778 1296 c 0,45,46
 1034 1367 1034 1367 1120.5 1367 c 128,-1,47
 1207 1367 1207 1367 1207 1285 c 2,9,-1
EndSplineSet
EndChar

StartChar: e
Encoding: 101 101 68
Width: 1086
Flags: MW
LayerCount: 2
Fore
SplineSet
518 635 m 2,0,-1
 619 635 l 2,1,2
 683 635 683 635 683 691.5 c 128,-1,3
 683 748 683 748 652 782 c 128,-1,4
 621 816 621 816 568 816 c 128,-1,5
 515 816 515 816 484 773.5 c 128,-1,6
 453 731 453 731 453 695 c 128,-1,7
 453 659 453 659 467.5 647 c 128,-1,8
 482 635 482 635 518 635 c 2,0,-1
962 448 m 2,9,-1
 492 448 l 2,10,11
 461 448 461 448 461 421 c 0,12,13
 461 356 461 356 531.5 298.5 c 128,-1,14
 602 241 602 241 666.5 241 c 0,15,16
 795.925925926 241 795.925925926 241 886 305 c 0,17,18
 920 329 920 329 943 329 c 128,-1,19
 966 329 966 329 991 297 c 128,-1,20
 1016 265 1016 265 1016 231 c 0,21,22
 1016 159 1016 159 926 92 c 0,23,24
 767 -27 767 -27 558 -27 c 0,25,26
 233.595959596 -27 233.595959596 -27 86 254 c 0,27,28
 34 353 34 353 34 478 c 0,29,30
 34 646 34 646 129 771 c 128,-1,31
 224 896 224 896 343 946 c 128,-1,32
 462 996 462 996 581 996 c 0,33,34
 771 996 771 996 904 888 c 0,35,36
 971 834 971 834 1015 755 c 128,-1,37
 1059 676 1059 676 1059 603.5 c 128,-1,38
 1059 531 1059 531 1032 489.5 c 128,-1,39
 1005 448 1005 448 962 448 c 2,9,-1
EndSplineSet
EndChar

StartChar: f
Encoding: 102 102 69
Width: 869
Flags: MW
LayerCount: 2
Fore
SplineSet
748 595 m 1,0,-1
 685 598 l 1,1,2
 643 598 643 598 628 570.5 c 128,-1,3
 613 543 613 543 613 452 c 128,-1,4
 613 361 613 361 629 309.5 c 128,-1,5
 645 258 645 258 662 243.5 c 128,-1,6
 679 229 679 229 718 218 c 0,7,8
 806 192 806 192 806 119 c 128,-1,9
 806 46 806 46 703.5 13 c 128,-1,10
 601 -20 601 -20 367 -20 c 0,11,12
 20 -20 20 -20 20 118 c 0,13,14
 20 152 20 152 34.5 168 c 128,-1,15
 49 184 49 184 100 206.5 c 128,-1,16
 151 229 151 229 165 310.5 c 128,-1,17
 179 392 179 392 179 473 c 128,-1,18
 179 554 179 554 161.5 573.5 c 128,-1,19
 144 593 144 593 94 592.5 c 128,-1,20
 44 592 44 592 29 597.5 c 128,-1,21
 14 603 14 603 15 624 c 2,22,-1
 23 750 l 2,23,24
 25 781 25 781 33.5 788.5 c 128,-1,25
 42 796 42 796 80 798 c 128,-1,26
 118 800 118 800 118 834 c 0,27,28
 118 848 118 848 81.5 914.5 c 128,-1,29
 45 981 45 981 45 1064 c 0,30,31
 45 1186 45 1186 129 1263 c 0,32,33
 252 1376 252 1376 461.5 1376 c 128,-1,34
 671 1376 671 1376 784 1287 c 0,35,36
 871 1218 871 1218 871 1140.5 c 128,-1,37
 871 1063 871 1063 828 1018.5 c 128,-1,38
 785 974 785 974 717 974 c 128,-1,39
 649 974 649 974 583 1024 c 0,40,41
 567 1037 567 1037 515.5 1093 c 128,-1,42
 464 1149 464 1149 428.5 1149 c 128,-1,43
 393 1149 393 1149 373 1129 c 128,-1,44
 353 1109 353 1109 353 1080 c 0,45,46
 353 1001 353 1001 503 911 c 0,47,48
 549 883 549 883 565.5 867 c 128,-1,49
 582 851 582 851 595 822 c 0,50,51
 602 810 602 810 627 810 c 2,52,-1
 751 810 l 2,53,54
 782 810 782 810 795.5 800.5 c 128,-1,55
 809 791 809 791 807 769 c 2,56,-1
 799 650 l 2,57,58
 797 614 797 614 788 604.5 c 128,-1,59
 779 595 779 595 748 595 c 1,0,-1
EndSplineSet
EndChar

StartChar: g
Encoding: 103 103 70
Width: 1184
Flags: MW
LayerCount: 2
Fore
SplineSet
340 -67 m 0,0,1
 315 -67 315 -67 315 -96 c 0,2,3
 315 -155 315 -155 379 -191.5 c 128,-1,4
 443 -228 443 -228 543 -228 c 128,-1,5
 643 -228 643 -228 698.5 -202 c 128,-1,6
 754 -176 754 -176 754 -129 c 0,7,8
 754 -104 754 -104 733 -86.5 c 128,-1,9
 712 -69 712 -69 688.5 -69 c 128,-1,10
 665 -69 665 -69 622 -75.5 c 128,-1,11
 579 -82 579 -82 495.6 -82 c 128,-1,12
 412.2 -82 412.2 -82 378.6 -74.5 c 128,-1,13
 345 -67 345 -67 340 -67 c 0,0,1
566.5 466 m 0,14,15
 682 466 682 466 682 634.5 c 0,16,17
 682 722 682 722 649.5 781.5 c 128,-1,18
 617 841 617 841 562.5 842 c 128,-1,19
 508 843 508 843 477.5 805 c 128,-1,20
 447 767 447 767 447 681.5 c 128,-1,21
 447 596 447 596 480 531 c 128,-1,22
 513 466 513 466 566.5 466 c 0,14,15
544 333 m 1,23,-1
 439 340 l 1,24,25
 386 340 386 340 386 287 c 0,26,27
 386 253 386 253 420.5 233.5 c 128,-1,28
 455 214 455 214 504.5 214 c 128,-1,29
 554 214 554 214 675 231 c 128,-1,30
 796 248 796 248 894 248 c 128,-1,31
 992 248 992 248 1050.5 213.5 c 0,32,33
 1170 143.025641026 1170 143.025641026 1170 9 c 0,34,35
 1170 -92 1170 -92 1089 -195.5 c 128,-1,36
 1008 -299 1008 -299 855.5 -347 c 128,-1,37
 703 -395 703 -395 504 -395 c 128,-1,38
 305 -395 305 -395 167 -327 c 0,39,40
 103 -295 103 -295 65 -243 c 128,-1,41
 27 -191 27 -191 27 -143.5 c 128,-1,42
 27 -96 27 -96 48.5 -63 c 128,-1,43
 70 -30 70 -30 101.5 -17 c 128,-1,44
 133 -4 133 -4 133 8.5 c 128,-1,45
 133 21 133 21 108 42 c 0,46,47
 28 109 28 109 28 181 c 0,48,49
 28 229 28 229 66.5 280 c 128,-1,50
 105 331 105 331 145.5 351 c 128,-1,51
 186 371 186 371 186 384 c 128,-1,52
 186 397 186 397 156 425 c 0,53,54
 53 520 53 520 53 647 c 0,55,56
 53 714 53 714 89.5 775 c 128,-1,57
 126 836 126 836 191 879 c 0,58,59
 352 984 352 984 548 984 c 0,60,61
 626 984 626 984 719.5 965 c 128,-1,62
 813 946 813 946 847 946 c 0,63,64
 956 946 956 946 1064 1032 c 0,65,66
 1088 1050 1088 1050 1107 1050 c 128,-1,67
 1126 1050 1126 1050 1145 1021.5 c 128,-1,68
 1164 993 1164 993 1164 953.5 c 128,-1,69
 1164 914 1164 914 1138.5 862 c 128,-1,70
 1113 810 1113 810 1083.5 784.5 c 128,-1,71
 1054 759 1054 759 1054 747 c 2,72,-1
 1059 685 l 1,73,74
 1059 566 1059 566 983 489.5 c 0,75,76
 827.522875817 333 827.522875817 333 544 333 c 1,23,-1
EndSplineSet
EndChar

StartChar: h
Encoding: 104 104 71
Width: 1390
Flags: MW
LayerCount: 2
Fore
SplineSet
594 1316 m 2,0,-1
 581 897 l 2,1,2
 579 822 579 822 627 822 c 0,3,4
 651 822 651 822 674 855 c 0,5,6
 771 996 771 996 931.5 996 c 128,-1,7
 1092 996 1092 996 1186 899 c 0,8,9
 1228 856 1228 856 1245.5 797 c 128,-1,10
 1263 738 1263 738 1265 628 c 2,11,-1
 1274 267 l 2,12,13
 1275 220 1275 220 1286.5 198 c 128,-1,14
 1298 176 1298 176 1333.5 148 c 128,-1,15
 1369 120 1369 120 1369 88 c 0,16,17
 1369 -20 1369 -20 1061 -20 c 128,-1,18
 753 -20 753 -20 753 81 c 0,19,20
 753 98 753 98 758 107 c 128,-1,21
 763 116 763 116 799 163 c 128,-1,22
 835 210 835 210 835 386.5 c 128,-1,23
 835 563 835 563 810 624 c 0,24,25
 777 707 777 707 692 707 c 0,26,27
 631 707 631 707 606 669 c 128,-1,28
 581 631 581 631 581 543 c 2,29,-1
 581 350 l 1,30,31
 588 222 588 222 593 205 c 128,-1,32
 598 188 598 188 628 154.5 c 128,-1,33
 658 121 658 121 658 93 c 0,34,35
 658 -20 658 -20 364 -20 c 0,36,37
 20 -20 20 -20 20 97 c 0,38,39
 20 124 20 124 31 138.5 c 128,-1,40
 42 153 42 153 82.5 181.5 c 128,-1,41
 123 210 123 210 137.5 328.5 c 128,-1,42
 152 447 152 447 152 691.5 c 128,-1,43
 152 936 152 936 144 993 c 128,-1,44
 136 1050 136 1050 125.5 1064.5 c 128,-1,45
 115 1079 115 1079 86 1094 c 0,46,47
 24 1126 24 1126 24 1172 c 128,-1,48
 24 1218 24 1218 71 1249 c 128,-1,49
 118 1280 118 1280 274.5 1323 c 128,-1,50
 431 1366 431 1366 538 1366 c 0,51,52
 596 1366 596 1366 594 1316 c 2,0,-1
EndSplineSet
EndChar

StartChar: i
Encoding: 105 105 72
Width: 730
Flags: MW
LayerCount: 2
Fore
SplineSet
385 1365 m 0
 585 1365 585 1365 585 1234 c 0
 585 1168 585 1168 508 1123 c 0
 386 1052 386 1052 213 1052 c 0
 140 1052 140 1052 89.5 1084 c 0
 39 1116 39 1116 39 1180 c 0
 39 1266 39 1266 163 1315.5 c 0
 287 1365 287 1365 385 1365 c 0
EndSplineSet
Refer: 205 305 S 1 0 0 1 0 0 2
EndChar

StartChar: j
Encoding: 106 106 73
Width: 756
Flags: MW
LayerCount: 2
Fore
SplineSet
397 1365 m 0,0,1
 597 1365 597 1365 597 1234 c 0,2,3
 597 1168 597 1168 520 1123 c 0,4,5
 398 1052 398 1052 225 1052 c 0,6,7
 153 1052 153 1052 102 1084.5 c 128,-1,8
 51 1117 51 1117 51 1180 c 0,9,10
 51 1266 51 1266 175 1315.5 c 128,-1,11
 299 1365 299 1365 397 1365 c 0,0,1
160 -147 m 1,12,-1
 150 -50 l 1,13,-1
 150 585 l 2,14,15
 150 630 150 630 134.5 655 c 128,-1,16
 119 680 119 680 81 695 c 0,17,18
 24 718 24 718 24 767.5 c 0,19,20
 24 899.056603774 24 899.056603774 400 970 c 0,21,22
 506 990 506 990 549 990 c 128,-1,23
 592 990 592 990 606 972 c 128,-1,24
 620 954 620 954 620 910 c 2,25,-1
 620 24 l 2,26,27
 620 -111 620 -111 599 -184 c 128,-1,28
 578 -257 578 -257 526.5 -300 c 128,-1,29
 475 -343 475 -343 391.5 -369.5 c 128,-1,30
 308 -396 308 -396 216 -396 c 128,-1,31
 124 -396 124 -396 58.5 -357 c 128,-1,32
 -7 -318 -7 -318 -7 -260 c 0,33,34
 -7 -234 -7 -234 11.5 -215 c 128,-1,35
 30 -196 30 -196 56 -196 c 1,36,-1
 113 -202 l 1,37,38
 131 -202 131 -202 145.5 -185 c 128,-1,39
 160 -168 160 -168 160 -147 c 1,12,-1
EndSplineSet
EndChar

StartChar: k
Encoding: 107 107 74
Width: 1503
Flags: MW
LayerCount: 2
Fore
SplineSet
617 1316 m 2,0,-1
 608 1003 l 2,1,2
 607 956 607 956 607 860 c 128,-1,3
 607 764 607 764 610 746 c 0,4,5
 617 705 617 705 649.5 705 c 128,-1,6
 682 705 682 705 744 743.5 c 128,-1,7
 806 782 806 782 806 801 c 0,8,9
 806 812 806 812 787 837 c 128,-1,10
 768 862 768 862 768 881 c 0,11,12
 768 989 768 989 1047 989 c 128,-1,13
 1326 989 1326 989 1326 865 c 0,14,15
 1326 820 1326 820 1283 802 c 0,16,17
 1274 798 1274 798 1227.5 789.5 c 128,-1,18
 1181 781 1181 781 1111 734.5 c 128,-1,19
 1041 688 1041 688 1041 667 c 0,20,21
 1041 653 1041 653 1125.5 535.5 c 128,-1,22
 1210 418 1210 418 1270 346 c 128,-1,23
 1330 274 1330 274 1356.5 251 c 128,-1,24
 1383 228 1383 228 1430 202 c 0,25,26
 1502 163 1502 163 1502 111.5 c 128,-1,27
 1502 60 1502 60 1456.5 30 c 128,-1,28
 1411 0 1411 0 1332 0 c 2,29,-1
 1008 0 l 1,30,31
 947 1 947 1 913 45 c 2,32,-1
 747 258 l 2,33,34
 681 342 681 342 666.5 358 c 128,-1,35
 652 374 652 374 641 374 c 0,36,37
 622 374 622 374 622 308.5 c 128,-1,38
 622 243 622 243 632 222.5 c 128,-1,39
 642 202 642 202 673 177 c 128,-1,40
 704 152 704 152 704 111 c 0,41,42
 704 41 704 41 630 10 c 128,-1,43
 556 -21 556 -21 371 -21 c 128,-1,44
 186 -21 186 -21 139 -7.5 c 128,-1,45
 92 6 92 6 68 36.5 c 128,-1,46
 44 67 44 67 44 103 c 128,-1,47
 44 139 44 139 83 164.5 c 128,-1,48
 122 190 122 190 132 202 c 0,49,50
 171.447476126 249.336971351 171.447476126 249.336971351 170 672 c 1,51,-1
 170 891 l 2,52,53
 170 1003 170 1003 158.5 1034 c 128,-1,54
 147 1065 147 1065 102 1071 c 0,55,56
 20 1082 20 1082 20 1139 c 0,57,58
 20 1177 20 1177 56 1207.5 c 128,-1,59
 92 1238 92 1238 174 1268 c 0,60,61
 436 1365 436 1365 562 1365 c 0,62,63
 619 1365 619 1365 617 1316 c 2,0,-1
EndSplineSet
EndChar

StartChar: l
Encoding: 108 108 75
Width: 748
Flags: MW
LayerCount: 2
Fore
SplineSet
609 793 m 1,0,-1
 609 472 l 2,1,2
 609 259 609 259 615.5 224 c 128,-1,3
 622 189 622 189 662 171.5 c 128,-1,4
 702 154 702 154 714.5 140 c 128,-1,5
 727 126 727 126 727 96.5 c 128,-1,6
 727 67 727 67 703.5 40 c 128,-1,7
 680 13 680 13 624.5 -3.5 c 128,-1,8
 569 -20 569 -20 387 -20 c 128,-1,9
 205 -20 205 -20 127 9 c 0,10,11
 91 22 91 22 68 49.5 c 128,-1,12
 45 77 45 77 45 104 c 128,-1,13
 45 131 45 131 57.5 144 c 128,-1,14
 70 157 70 157 110.5 174.5 c 128,-1,15
 151 192 151 192 160 268 c 0,16,17
 176 398 176 398 176 640 c 128,-1,18
 176 882 176 882 162 952 c 128,-1,19
 148 1022 148 1022 99 1051 c 128,-1,20
 50 1080 50 1080 34.5 1101.5 c 128,-1,21
 19 1123 19 1123 19 1163 c 0,22,23
 19 1282.05454545 19 1282.05454545 395 1347 c 0,24,25
 505 1366 505 1366 555 1366 c 0,26,27
 634 1366 634 1366 634 1268 c 0,28,29
 634 1236 634 1236 622.5 1089 c 128,-1,30
 611 942 611 942 609 793 c 1,0,-1
EndSplineSet
EndChar

StartChar: m
Encoding: 109 109 76
Width: 1975
Flags: MW
LayerCount: 2
Fore
SplineSet
627 97 m 0,0,1
 627 -20 627 -20 300.5 -20 c 0,2,3
 20 -20 20 -20 20 82 c 0,4,5
 20 102 20 102 29.5 116 c 128,-1,6
 39 130 39 130 78.5 165.5 c 128,-1,7
 118 201 118 201 125 273 c 0,8,9
 136 397 136 397 136 511 c 128,-1,10
 136 625 136 625 126.5 662.5 c 128,-1,11
 117 700 117 700 86.5 723 c 128,-1,12
 56 746 56 746 47.5 758 c 128,-1,13
 39 770 39 770 39 791 c 0,14,15
 39 858 39 858 144 897 c 0,16,17
 397 988 397 988 523 989 c 0,18,19
 580 989 580 989 580 908 c 2,20,-1
 580 891 l 1,21,22
 579 875 579 875 579 865 c 0,23,24
 579 811 579 811 611 811 c 0,25,26
 628 811 628 811 673 863.5 c 128,-1,27
 718 916 718 916 800 952.5 c 128,-1,28
 882 989 882 989 968 989 c 0,29,30
 1135 989 1135 989 1200 867 c 0,31,32
 1225 822 1225 822 1238.5 822 c 128,-1,33
 1252 822 1252 822 1293 862 c 0,34,35
 1423 989 1423 989 1588 989 c 0,36,37
 1717 989 1717 989 1801 916.5 c 128,-1,38
 1885 844 1885 844 1885 696 c 1,39,-1
 1881 431 l 1,40,-1
 1879 283 l 2,41,42
 1879 219 1879 219 1911 180.5 c 128,-1,43
 1943 142 1943 142 1948.5 132.5 c 128,-1,44
 1954 123 1954 123 1954 107 c 0,45,46
 1954 -21 1954 -21 1653 -21 c 0,47,48
 1520 -21 1520 -21 1438.5 11 c 128,-1,49
 1357 43 1357 43 1357 95 c 0,50,51
 1357 115 1357 115 1362.5 125.5 c 128,-1,52
 1368 136 1368 136 1400 179 c 128,-1,53
 1432 222 1432 222 1432 405.5 c 128,-1,54
 1432 589 1432 589 1411.5 647 c 128,-1,55
 1391 705 1391 705 1325 705 c 0,56,57
 1292 705 1292 705 1266.5 684.5 c 128,-1,58
 1241 664 1241 664 1232.5 630.5 c 128,-1,59
 1224 597 1224 597 1225 435 c 128,-1,60
 1226 273 1226 273 1233.5 237 c 128,-1,61
 1241 201 1241 201 1284 137 c 0,62,63
 1294 122 1294 122 1294 99 c 0,64,65
 1294 -20 1294 -20 983 -20 c 0,66,67
 796 -20 796 -20 737.5 5 c 128,-1,68
 679 30 679 30 679 86 c 0,69,70
 679 111 679 111 685.5 121 c 128,-1,71
 692 131 692 131 722 159.5 c 128,-1,72
 752 188 752 188 763.5 220.730769231 c 128,-1,73
 775 253.461538462 775 253.461538462 775 496 c 0,74,75
 775 692 775 692 675 692 c 0,76,77
 600 692 600 692 587 610.5 c 128,-1,78
 574 529 574 529 574 400.5 c 128,-1,79
 574 272 574 272 578.5 238 c 128,-1,80
 583 204 583 204 605 164 c 128,-1,81
 627 124 627 124 627 97 c 0,0,1
EndSplineSet
EndChar

StartChar: n
Encoding: 110 110 77
Width: 1374
Flags: MW
LayerCount: 2
Fore
SplineSet
577 915 m 1,0,-1
 575 876 l 1,1,2
 575 828 575 828 615 828 c 0,3,4
 639 828 639 828 666 866 c 0,5,6
 752 990 752 990 916 990 c 0,7,8
 1042 990 1042 990 1118.5 933.5 c 128,-1,9
 1195 877 1195 877 1220 813.5 c 128,-1,10
 1245 750 1245 750 1251 627 c 1,11,-1
 1265 275 l 2,12,13
 1267 235 1267 235 1277.5 216 c 128,-1,14
 1288 197 1288 197 1339 143 c 0,15,16
 1354 127 1354 127 1354 98 c 0,17,18
 1354 32 1354 32 1275 6 c 128,-1,19
 1196 -20 1196 -20 1025.5 -20 c 128,-1,20
 855 -20 855 -20 797 4.5 c 128,-1,21
 739 29 739 29 739 85 c 0,22,23
 739 105 739 105 745 114.5 c 128,-1,24
 751 124 751 124 788 163.5 c 128,-1,25
 825 203 825 203 825 391 c 128,-1,26
 825 579 825 579 796 638.5 c 128,-1,27
 767 698 767 698 698.5 698 c 128,-1,28
 630 698 630 698 605 655 c 128,-1,29
 580 612 580 612 580 499 c 2,30,-1
 580 301 l 2,31,32
 580 242 580 242 587.5 220 c 128,-1,33
 595 198 595 198 637 135 c 0,34,35
 648 117 648 117 648 94 c 0,36,37
 648 -21 648 -21 310 -21 c 0,38,39
 32 -21 32 -21 32 94 c 0,40,41
 32 118 32 118 40.5 130.5 c 128,-1,42
 49 143 49 143 78 164 c 128,-1,43
 107 185 107 185 114 209.5 c 0,44,45
 134 279.5 134 279.5 134 569 c 0,46,47
 134 638 134 638 123.5 659.5 c 128,-1,48
 113 681 113 681 66.5 710 c 128,-1,49
 20 739 20 739 20 778.5 c 128,-1,50
 20 818 20 818 55 843.5 c 128,-1,51
 90 869 90 869 258.493150685 929 c 128,-1,52
 426.98630137 989 426.98630137 989 506 989 c 0,53,54
 536 989 536 989 556.5 967 c 128,-1,55
 577 945 577 945 577 915 c 1,0,-1
EndSplineSet
EndChar

StartChar: o
Encoding: 111 111 78
Width: 1233
Flags: MW
LayerCount: 2
Fore
SplineSet
723.5 522 m 128,-1,1
 701 629 701 629 668.5 696.5 c 128,-1,2
 636 764 636 764 584.5 765 c 128,-1,3
 533 766 533 766 506.5 733.5 c 128,-1,4
 480 701 480 701 480 644 c 128,-1,5
 480 587 480 587 502.5 483.5 c 128,-1,6
 525 380 525 380 556 299 c 128,-1,7
 587 218 587 218 657 218 c 0,8,9
 746 218 746 218 746 331 c 0,10,0
 746 415 746 415 723.5 522 c 128,-1,1
657 997 m 0,11,12
 840 997 840 997 978 902 c 0,13,14
 1077 834 1077 834 1138 722.5 c 128,-1,15
 1199 611 1199 611 1199 487 c 0,16,17
 1199 270 1199 270 1004.5 121.5 c 128,-1,18
 810 -27 810 -27 568 -27 c 128,-1,19
 326 -27 326 -27 180 107 c 128,-1,20
 34 241 34 241 34 465 c 128,-1,21
 34 689 34 689 214 843 c 128,-1,22
 394 997 394 997 657 997 c 0,11,12
EndSplineSet
EndChar

StartChar: p
Encoding: 112 112 79
Width: 1363
Flags: MW
LayerCount: 2
Fore
SplineSet
627 613 m 2,0,-1
 612 338 l 2,1,2
 611 321 611 321 611 297.5 c 128,-1,3
 611 274 611 274 638 255 c 128,-1,4
 665 236 665 236 710 236 c 0,5,6
 848 236 848 236 848 463 c 0,7,8
 848 610 848 610 790 670 c 0,9,10
 754 707 754 707 704 707 c 0,11,12
 633 707 633 707 627 613 c 2,0,-1
528 991 m 0,13,14
 589 991 589 991 604 980.5 c 128,-1,15
 619 970 619 970 619 930.5 c 128,-1,16
 619 891 619 891 643 891 c 0,17,18
 653 891 653 891 703 924.5 c 128,-1,19
 753 958 753 958 819.5 977.5 c 128,-1,20
 886 997 886 997 940 997 c 0,21,22
 1067 997 1067 997 1155 919.5 c 0,23,24
 1329 766.261363636 1329 766.261363636 1329 514.630681818 c 128,-1,25
 1329 263 1329 263 1159 100 c 0,26,27
 1028 -27 1028 -27 861 -27 c 0,28,29
 776 -27 776 -27 686 13 c 0,30,31
 668 21 668 21 657 21 c 0,32,33
 627 21 627 21 627 -48.5 c 128,-1,34
 627 -118 627 -118 678 -152 c 128,-1,35
 729 -186 729 -186 738.5 -197.5 c 128,-1,36
 748 -209 748 -209 748 -236 c 0,37,38
 748 -296 748 -296 681 -328.5 c 128,-1,39
 614 -361 614 -361 492 -361 c 0,40,41
 275 -361 275 -361 112 -274 c 0,42,43
 29 -230 29 -230 29 -165 c 0,44,45
 29 -135 29 -135 41.5 -119.5 c 128,-1,46
 54 -104 54 -104 90 -87 c 0,47,48
 142 -63 142 -63 153.5 0 c 128,-1,49
 165 63 165 63 171 362 c 1,50,51
 164 608 164 608 156.5 628 c 128,-1,52
 149 648 149 648 141.5 651 c 128,-1,53
 134 654 134 654 97 661 c 0,54,55
 20 675.567567568 20 675.567567568 20 748 c 0,56,57
 20 788 20 788 48 818.5 c 128,-1,58
 76 849 76 849 139 878 c 0,59,60
 384 989 384 989 528 991 c 0,13,14
EndSplineSet
EndChar

StartChar: q
Encoding: 113 113 80
Width: 1327
Flags: MW
LayerCount: 2
Fore
SplineSet
752 666.5 m 0,0,1
 733.058823529 775.411764706 733.058823529 775.411764706 646 776.5 c 0,2,3
 606 777 606 777 563.5 722.5 c 128,-1,4
 521 668 521 668 521 527.5 c 128,-1,5
 521 387 521 387 569 306 c 128,-1,6
 617 225 617 225 671.5 225 c 128,-1,7
 726 225 726 225 744 274.5 c 128,-1,8
 762 324 762 324 762 466.5 c 128,-1,9
 762 609 762 609 752 666.5 c 0,0,1
619 996 m 0,10,11
 714.571428571 996 714.571428571 996 815.285714286 972.5 c 128,-1,12
 916 949 916 949 949 949 c 128,-1,13
 982 949 982 949 1047.5 972.5 c 128,-1,14
 1113 996 1113 996 1152 996 c 0,15,16
 1240 996 1240 996 1240 925 c 0,17,18
 1240 888 1240 888 1230 815.5 c 128,-1,19
 1220 743 1220 743 1210 548 c 128,-1,20
 1200 353 1200 353 1200 174 c 128,-1,21
 1200 -5 1200 -5 1208.5 -64.5 c 128,-1,22
 1217 -124 1217 -124 1225.5 -139 c 128,-1,23
 1234 -154 1234 -154 1270.5 -181.5 c 128,-1,24
 1307 -209 1307 -209 1307 -256 c 0,25,26
 1307 -384 1307 -384 1043 -384 c 0,27,28
 843 -384 843 -384 710 -328 c 0,29,30
 664 -309 664 -309 635.5 -277 c 128,-1,31
 607 -245 607 -245 607 -214 c 128,-1,32
 607 -183 607 -183 620.5 -169 c 128,-1,33
 634 -155 634 -155 689.5 -128 c 128,-1,34
 745 -101 745 -101 745 -12 c 0,35,36
 745 39 745 39 718 39 c 0,37,38
 704 39 704 39 637.5 6 c 128,-1,39
 571 -27 571 -27 474 -27 c 0,40,41
 278 -27 278 -27 156 119.5 c 128,-1,42
 34 266 34 266 34 493 c 128,-1,43
 34 720 34 720 195.5 857.5 c 128,-1,44
 357 995 357 995 619 996 c 0,10,11
EndSplineSet
EndChar

StartChar: r
Encoding: 114 114 81
Width: 1095
Flags: MW
LayerCount: 2
Fore
SplineSet
79 874.5 m 128,-1,1
 128 909 128 909 262.5 949 c 128,-1,2
 397 989 397 989 477.5 989.5 c 128,-1,3
 558 990 558 990 569.5 975 c 128,-1,4
 581 960 581 960 590 879 c 0,5,6
 595 835 595 835 621 835 c 0,7,8
 641 835 641 835 659 864 c 0,9,10
 739 989 739 989 874.593406595 989 c 128,-1,11
 1010.18681319 989 1010.18681319 989 1063 855.5 c 0,12,13
 1081 810 1081 810 1081 765.5 c 128,-1,14
 1081 721 1081 721 1059 671.5 c 128,-1,15
 1037 622 1037 622 1002 590 c 0,16,17
 938 529 938 529 845 529 c 0,18,19
 794 529 794 529 759.5 547 c 128,-1,20
 725 565 725 565 686.5 603 c 128,-1,21
 648 641 648 641 630 641 c 0,22,23
 602 641 602 641 593.5 609.5 c 128,-1,24
 585 578 585 578 585 452 c 128,-1,25
 585 326 585 326 594 283.5 c 128,-1,26
 603 241 603 241 615.5 229.5 c 128,-1,27
 628 218 628 218 669 206 c 0,28,29
 759 179 759 179 759 112 c 0,30,31
 759 22.0833333333 759 22.0833333333 629 -5 c 0,32,33
 557 -20 557 -20 375.5 -20 c 128,-1,34
 194 -20 194 -20 107 9.5 c 128,-1,35
 20 39 20 39 20 108 c 0,36,37
 20 160 20 160 80 201 c 0,38,39
 109 220 109 220 120 235.5 c 128,-1,40
 131 251 131 251 141 310 c 128,-1,41
 151 369 151 369 151 615 c 0,42,43
 151 660 151 660 141 679.5 c 128,-1,44
 131 699 131 699 101 711 c 0,45,46
 30 739 30 739 30 789.5 c 128,-1,0
 30 840 30 840 79 874.5 c 128,-1,1
EndSplineSet
EndChar

StartChar: s
Encoding: 115 115 82
Width: 976
Flags: MW
LayerCount: 2
Fore
SplineSet
298 -3 m 1,0,-1
 226 -10 l 1,1,2
 179 -10 179 -10 145 20.5 c 128,-1,3
 111 51 111 51 76 130.5 c 128,-1,4
 41 210 41 210 41 267 c 0,5,6
 41 359 41 359 113 359 c 0,7,8
 141 359 141 359 164.5 340.5 c 128,-1,9
 188 322 188 322 246 260 c 128,-1,10
 304 198 304 198 331 181.5 c 128,-1,11
 358 165 358 165 390 165 c 128,-1,12
 422 165 422 165 442 182.5 c 128,-1,13
 462 200 462 200 462 229 c 0,14,15
 462 274 462 274 385 311 c 0,16,17
 224 390 224 390 152.5 474 c 128,-1,18
 81 558 81 558 81 672.5 c 128,-1,19
 81 787 81 787 154 873 c 0,20,21
 258 996 258 996 438 996 c 0,22,23
 488 996 488 996 556 983 c 128,-1,24
 624 970 624 970 640 970 c 128,-1,25
 656 970 656 970 692 983.5 c 128,-1,26
 728 997 728 997 744 997 c 0,27,28
 790 997 790 997 832.5 944 c 0,29,30
 923 831.141176471 923 831.141176471 923 738 c 0,31,32
 923 698 923 698 895 671.5 c 128,-1,33
 867 645 867 645 828.5 645 c 128,-1,34
 790 645 790 645 762.5 662 c 128,-1,35
 735 679 735 679 672.5 739 c 128,-1,36
 610 799 610 799 575 799 c 128,-1,37
 540 799 540 799 519.5 778.5 c 128,-1,38
 499 758 499 758 499 730 c 0,39,40
 499 681 499 681 593 638 c 0,41,42
 762 562 762 562 845 479 c 128,-1,43
 928 396 928 396 928 286 c 0,44,45
 928 147 928 147 814.5 60 c 128,-1,46
 701 -27 701 -27 549 -27 c 1,47,-1
 298 -3 l 1,0,-1
EndSplineSet
EndChar

StartChar: t
Encoding: 116 116 83
Width: 948
Flags: MW
LayerCount: 2
Fore
SplineSet
632 734 m 2,0,-1
 632 396 l 2,1,2
 632 336 632 336 661.5 298 c 128,-1,3
 691 260 691 260 733.5 260 c 128,-1,4
 776 260 776 260 815.5 282.5 c 128,-1,5
 855 305 855 305 874.5 305 c 128,-1,6
 894 305 894 305 914 276 c 128,-1,7
 934 247 934 247 934 213 c 0,8,9
 934 151 934 151 866 94 c 0,10,11
 724 -27 724 -27 522 -27 c 0,12,13
 362 -27 362 -27 265 63.5 c 128,-1,14
 168 154 168 154 168 302 c 2,15,-1
 168 764 l 2,16,17
 168 787 168 787 162.5 792.5 c 128,-1,18
 157 798 157 798 134 798 c 2,19,-1
 31 798 l 2,20,21
 2 798 2 798 -6 807.5 c 128,-1,22
 -14 817 -14 817 -14 852 c 2,23,-1
 -14 896 l 1,24,25
 -13 926 -13 926 9 940 c 2,26,-1
 467 1228 l 1,27,28
 484 1237 484 1237 509 1237 c 2,29,-1
 590 1237 l 2,30,31
 615 1237 615 1237 623.5 1225.5 c 128,-1,32
 632 1214 632 1214 632 1180 c 2,33,-1
 632 1045 l 2,34,35
 632 1015 632 1015 641.5 1006 c 128,-1,36
 651 997 651 997 682 997 c 2,37,-1
 867 997 l 2,38,39
 904 997 904 997 915 983.5 c 128,-1,40
 926 970 926 970 926 926 c 2,41,-1
 926 867 l 2,42,43
 926 819 926 819 912 800.5 c 128,-1,44
 898 782 898 782 861 782 c 2,45,-1
 680 782 l 2,46,47
 652 782 652 782 642 772 c 128,-1,48
 632 762 632 762 632 734 c 2,0,-1
EndSplineSet
EndChar

StartChar: u
Encoding: 117 117 84
Width: 1388
Flags: MW
LayerCount: 2
Fore
SplineSet
151 404 m 2,0,-1
 152 627 l 2,1,2
 152 739.609756098 152 739.609756098 80 780 c 0,3,4
 41 800 41 800 30.5 812 c 128,-1,5
 20 824 20 824 20 845 c 0,6,7
 20 921 20 921 135 946 c 0,8,9
 331 989 331 989 527 989 c 0,10,11
 586 989 586 989 586 939 c 2,12,-1
 586 397 l 2,13,14
 586 223 586 223 701 223 c 0,15,16
 770.875 223 770.875 223 802.5 292 c 0,17,18
 819 328 819 328 819 493 c 128,-1,19
 819 658 819 658 811.5 700.5 c 128,-1,20
 804 743 804 743 794 754.5 c 128,-1,21
 784 766 784 766 756 781 c 0,22,23
 699 811 699 811 699 857 c 0,24,25
 699 919 699 919 797 943 c 0,26,27
 983 989 983 989 1164 989 c 0,28,29
 1265 989 1265 989 1265 882 c 1,30,-1
 1261 720 l 1,31,-1
 1261 279 l 2,32,33
 1261 245 1261 245 1314.5 219 c 128,-1,34
 1368 193 1368 193 1368 147 c 0,35,36
 1368 57 1368 57 1155 8 c 0,37,38
 1030 -21 1030 -21 947.5 -21 c 128,-1,39
 865 -21 865 -21 847.5 -10 c 128,-1,40
 830 1 830 1 827 33 c 0,41,42
 822 95 822 95 789 95 c 0,43,44
 777 95 777 95 767 89.5 c 128,-1,45
 757 84 757 84 706 49 c 0,46,47
 605 -20 605 -20 489 -20 c 0,48,49
 297 -20 297 -20 218 91 c 0,50,51
 151 184 151 184 151 404 c 2,0,-1
EndSplineSet
EndChar

StartChar: v
Encoding: 118 118 85
Width: 1285
Flags: MW
LayerCount: 2
Fore
SplineSet
377 990 m 0,0,1
 708 990 708 990 708 890 c 0,2,3
 708 854 708 854 677 826.5 c 128,-1,4
 646 799 646 799 639 788 c 128,-1,5
 632 777 632 777 632 751.5 c 128,-1,6
 632 726 632 726 676 648 c 128,-1,7
 720 570 720 570 758 570 c 0,8,9
 783 570 783 570 799 589 c 128,-1,10
 815 608 815 608 851.5 676.5 c 128,-1,11
 888 745 888 745 888 772 c 128,-1,12
 888 799 888 799 855 833.5 c 128,-1,13
 822 868 822 868 822 899 c 0,14,15
 822 947 822 947 885.5 968 c 128,-1,16
 949 989 949 989 1094 989 c 0,17,18
 1298 989 1298 989 1298 901 c 0,19,20
 1298 850 1298 850 1233 829.5 c 128,-1,21
 1168 809 1168 809 1147.5 788 c 128,-1,22
 1127 767 1127 767 1084 683 c 2,23,-1
 825 179 l 2,24,25
 765 62 765 62 723 16.5 c 128,-1,26
 681 -29 681 -29 633.5 -29 c 128,-1,27
 586 -29 586 -29 557 5 c 0,28,29
 496 73 496 73 450 159 c 2,30,-1
 166 698 l 2,31,32
 143 742 143 742 121.5 761.5 c 128,-1,33
 100 781 100 781 62 791 c 0,34,35
 -14 813 -14 813 -14 873.5 c 128,-1,36
 -14 934 -14 934 80 962 c 128,-1,37
 174 990 174 990 377 990 c 0,0,1
EndSplineSet
EndChar

StartChar: w
Encoding: 119 119 86
Width: 2025
Flags: MW
LayerCount: 2
Fore
SplineSet
756 873 m 0,0,1
 756 990 756 990 1144 990 c 0,2,3
 1295 990 1295 990 1362 964.5 c 128,-1,4
 1429 939 1429 939 1429 882 c 0,5,6
 1429 859 1429 859 1421 845 c 128,-1,7
 1413 831 1413 831 1378 795 c 0,8,9
 1367 783 1367 783 1367 760 c 128,-1,10
 1367 737 1367 737 1410 655.5 c 128,-1,11
 1453 574 1453 574 1487.5 574 c 128,-1,12
 1522 574 1522 574 1569.5 659 c 128,-1,13
 1617 744 1617 744 1617 765.5 c 128,-1,14
 1617 787 1617 787 1589.5 821 c 128,-1,15
 1562 855 1562 855 1562 897.5 c 0,16,17
 1562 989 1562 989 1801 989 c 0,18,19
 1969.42857143 989 1969.42857143 989 2014 943.5 c 0,20,21
 2038 919 2038 919 2038 887 c 128,-1,22
 2038 855 2038 855 2010 833 c 0,23,24
 2005 828 2005 828 1954 809.5 c 128,-1,25
 1903 791 1903 791 1879 765 c 128,-1,26
 1855 739 1855 739 1821 672 c 2,27,-1
 1571 188 l 2,28,29
 1461 -24 1461 -24 1377 -24 c 0,30,31
 1341 -24 1341 -24 1297.5 21.5 c 128,-1,32
 1254 67 1254 67 1188 173 c 2,33,-1
 1085 338 l 2,34,35
 1049 394 1049 394 1038.5 405 c 128,-1,36
 1028 416 1028 416 1011 416 c 0,37,38
 975 416 975 416 937 350 c 2,39,-1
 770 62 l 2,40,41
 722 -21 722 -21 662 -21 c 0,42,43
 625 -21 625 -21 594 4.5 c 128,-1,44
 563 30 563 30 527 91 c 2,45,-1
 227 590 l 1,46,47
 152 711 152 711 121 737.5 c 128,-1,48
 90 764 90 764 52.5 775 c 0,49,50
 -14 794.506666667 -14 794.506666667 -14 852 c 0,51,52
 -14 929 -14 929 105.5 959.5 c 128,-1,53
 225 990 225 990 367 990 c 0,54,55
 686 990 686 990 686 871 c 0,56,57
 686 849 686 849 667.5 822 c 128,-1,58
 649 795 649 795 649 779 c 128,-1,59
 649 763 649 763 698.5 670 c 128,-1,60
 748 577 748 577 786 577 c 0,61,62
 808 577 808 577 842 627 c 128,-1,63
 876 677 876 677 876 708 c 128,-1,64
 876 739 876 739 861 757.5 c 128,-1,65
 846 776 846 776 801 808 c 128,-1,66
 756 840 756 840 756 873 c 0,0,1
EndSplineSet
EndChar

StartChar: x
Encoding: 120 120 87
Width: 1232
Flags: MW
LayerCount: 2
Fore
SplineSet
415 67 m 0,0,1
 415 -20 415 -20 207.5 -20 c 128,-1,2
 0 -20 0 -20 0 65 c 0,3,4
 0 106 0 106 15.5 120.5 c 128,-1,5
 31 135 31 135 74 143 c 128,-1,6
 117 151 117 151 140 179 c 128,-1,7
 163 207 163 207 282 395 c 1,8,-1
 354 514 l 2,9,10
 364 530 364 530 364 536.5 c 128,-1,11
 364 543 364 543 351 560 c 2,12,-1
 266 666 l 2,13,14
 211 735 211 735 180 759 c 128,-1,15
 149 783 149 783 102 793 c 0,16,17
 23 810 23 810 23 869 c 0,18,19
 23 989 23 989 438 989 c 0,20,21
 592 989 592 989 671 970.5 c 128,-1,22
 750 952 750 952 750 892 c 0,23,24
 750 869 750 869 730.5 838 c 128,-1,25
 711 807 711 807 711 791 c 128,-1,26
 711 775 711 775 742.5 735 c 128,-1,27
 774 695 774 695 791 695 c 128,-1,28
 808 695 808 695 843 739.5 c 128,-1,29
 878 784 878 784 878 803 c 128,-1,30
 878 822 878 822 857.5 852 c 128,-1,31
 837 882 837 882 837 901 c 128,-1,32
 837 920 837 920 853.5 941 c 128,-1,33
 870 962 870 962 905 976 c 128,-1,34
 940 990 940 990 1040 990 c 0,35,36
 1226 990 1226 990 1226 909 c 0,37,38
 1226 872 1226 872 1212 859 c 128,-1,39
 1198 846 1198 846 1154 825 c 128,-1,40
 1110 804 1110 804 1094 785.5 c 128,-1,41
 1078 767 1078 767 983 639 c 1,42,-1
 914 535 l 2,43,44
 902 518 902 518 902 513 c 128,-1,45
 902 508 902 508 913 490 c 2,46,-1
 973 399 l 2,47,48
 1069 254 1069 254 1103 221.5 c 128,-1,49
 1137 189 1137 189 1184.5 168 c 128,-1,50
 1232 147 1232 147 1232 99 c 0,51,52
 1232 31 1232 31 1148 5.5 c 128,-1,53
 1064 -20 1064 -20 867 -20 c 128,-1,54
 670 -20 670 -20 602 -4 c 0,55,56
 512 18 512 18 512 89 c 0,57,58
 512 131 512 131 564 155 c 0,59,60
 593 168 593 168 593 200 c 128,-1,61
 593 232 593 232 552 289.5 c 128,-1,62
 511 347 511 347 487.5 346 c 128,-1,63
 464 345 464 345 417 274 c 128,-1,64
 370 203 370 203 370 176.5 c 128,-1,65
 370 150 370 150 392.5 123.5 c 128,-1,66
 415 97 415 97 415 67 c 0,0,1
EndSplineSet
EndChar

StartChar: y
Encoding: 121 121 88
Width: 1268
Flags: MW
LayerCount: 2
Fore
SplineSet
446 990 m 0,0,1
 695 990 695 990 695 869 c 0,2,3
 695 844 695 844 672.5 811 c 128,-1,4
 650 778 650 778 650 746.647058823 c 128,-1,5
 650 715.294117647 650 715.294117647 696.5 630.147058824 c 128,-1,6
 743 545 743 545 773 545 c 128,-1,7
 803 545 803 545 836 606.5 c 128,-1,8
 869 668 869 668 869 719.5 c 128,-1,9
 869 771 869 771 837.5 808 c 128,-1,10
 806 845 806 845 806 877 c 0,11,12
 806 928 806 928 874 958.5 c 128,-1,13
 942 989 942 989 1056 989 c 0,14,15
 1268 989 1268 989 1268 887 c 0,16,17
 1268 850 1268 850 1246.5 827.5 c 128,-1,18
 1225 805 1225 805 1172.5 786 c 128,-1,19
 1120 767 1120 767 1084 712.5 c 128,-1,20
 1048 658 1048 658 991 504 c 2,21,-1
 859 141 l 2,22,23
 767.445283019 -111.242587601 767.445283019 -111.242587601 642.722641509 -230.121293801 c 128,-1,24
 518 -349 518 -349 352.5 -349 c 128,-1,25
 187 -349 187 -349 105.5 -280 c 128,-1,26
 24 -211 24 -211 24 -126 c 128,-1,27
 24 -41 24 -41 73.5 11.5 c 128,-1,28
 123 64 123 64 195 64 c 128,-1,29
 267 64 267 64 311 16 c 0,30,31
 332 -6 332 -6 339 -23 c 128,-1,32
 346 -40 346 -40 358.5 -91 c 128,-1,33
 371 -142 371 -142 406 -142 c 128,-1,34
 441 -142 441 -142 462 -115 c 128,-1,35
 483 -88 483 -88 483 -44.5 c 128,-1,36
 483 -1 483 -1 431 109 c 2,37,-1
 190 622 l 2,38,39
 152 702 152 702 133 722 c 128,-1,40
 114 742 114 742 71.5 760.5 c 0,41,42
 0 791.623529412 0 791.623529412 0 848 c 0,43,44
 0 990 0 990 446 990 c 0,0,1
EndSplineSet
EndChar

StartChar: z
Encoding: 122 122 89
Width: 1053
Flags: MW
LayerCount: 2
Fore
SplineSet
549 971 m 1,0,-1
 814 971 l 2,1,2
 906 971 906 971 931.5 967.5 c 0,3,4
 987 959.882352941 987 959.882352941 987 905 c 0,5,6
 987 868 987 868 954 810 c 2,7,-1
 689 339 l 2,8,9
 656 280 656 280 656 256 c 0,10,11
 656 209 656 209 717 209 c 128,-1,12
 778 209 778 209 808.5 229.5 c 128,-1,13
 839 250 839 250 864 298.5 c 128,-1,14
 889 347 889 347 904 362.5 c 128,-1,15
 919 378 919 378 951.5 378 c 128,-1,16
 984 378 984 378 1012 343 c 128,-1,17
 1040 308 1040 308 1040 249.5 c 128,-1,18
 1040 191 1040 191 1006 120.5 c 128,-1,19
 972 50 972 50 926.5 9 c 128,-1,20
 881 -32 881 -32 856 -32 c 128,-1,21
 831 -32 831 -32 794.5 -16.5 c 128,-1,22
 758 -1 758 -1 691 0 c 1,23,-1
 167 0 l 2,24,25
 34 0 34 0 34 77 c 0,26,27
 34 94 34 94 44 113 c 128,-1,28
 54 132 54 132 114 232 c 1,29,-1
 343 600 l 2,30,31
 407 702 407 702 407 729 c 0,32,33
 407 769 407 769 323 769 c 0,34,35
 280 769 280 769 254.5 752.5 c 128,-1,36
 229 736 229 736 198 686.5 c 128,-1,37
 167 637 167 637 149.5 621.5 c 128,-1,38
 132 606 132 606 98 606 c 128,-1,39
 64 606 64 606 39 636.5 c 128,-1,40
 14 667 14 667 14 714 c 0,41,42
 14 804 14 804 73.5 905.5 c 128,-1,43
 133 1007 133 1007 186 1007 c 0,44,45
 198 1007 198 1007 235.5 994 c 128,-1,46
 273 981 273 981 305.5 978 c 128,-1,47
 338 975 338 975 549 971 c 1,0,-1
EndSplineSet
EndChar

StartChar: braceleft
Encoding: 123 123 90
Width: 1021
Flags: MW
LayerCount: 2
Fore
SplineSet
859 1204 m 1,0,-1
 790 1205 l 1,1,2
 697 1205 697 1205 664 1186.5 c 128,-1,3
 631 1168 631 1168 627 1116 c 0,4,5
 626 1100 626 1100 626 1006 c 2,6,-1
 626 758 l 1,7,8
 624 577 624 577 529 517 c 0,9,10
 521 511 521 511 521 499.5 c 128,-1,11
 521 488 521 488 555.5 459 c 0,12,13
 626 399.739130435 626 399.739130435 626 239 c 2,14,-1
 626 -10 l 2,15,16
 626 -140 626 -140 637.5 -164 c 0,17,18
 659.0625 -209 659.0625 -209 792 -209 c 1,19,-1
 859 -207 l 1,20,21
 968 -207 968 -207 968 -277 c 0,22,23
 968 -358 968 -358 853 -376 c 0,24,25
 767 -389 767 -389 581.5 -389 c 128,-1,26
 396 -389 396 -389 324 -322 c 128,-1,27
 252 -255 252 -255 252 -94 c 2,28,-1
 252 219 l 2,29,30
 252 309 252 309 229.5 346.5 c 128,-1,31
 207 384 207 384 139 403 c 0,32,33
 71 424 71 424 71 498.5 c 128,-1,34
 71 573 71 573 139 593 c 128,-1,35
 207 613 207 613 229.5 650 c 128,-1,36
 252 687 252 687 252 777 c 2,37,-1
 252 1091 l 2,38,39
 252 1251 252 1251 324 1318 c 128,-1,40
 396 1385 396 1385 592.5 1385 c 128,-1,41
 789 1385 789 1385 853 1372.5 c 0,42,43
 968 1350.0390625 968 1350.0390625 968 1274 c 0,44,45
 968 1204 968 1204 859 1204 c 1,0,-1
EndSplineSet
EndChar

StartChar: bar
Encoding: 124 124 91
Width: 1024
Flags: MW
LayerCount: 2
Fore
SplineSet
286 1365 m 1,0,-1
 737 1365 l 1,1,-1
 737 -341 l 1,2,-1
 286 -341 l 1,3,-1
 286 1365 l 1,0,-1
EndSplineSet
EndChar

StartChar: braceright
Encoding: 125 125 92
Width: 1021
Flags: MW
LayerCount: 2
Fore
SplineSet
230 1205 m 1,0,-1
 163 1204 l 1,1,2
 54 1204 54 1204 54 1274 c 0,3,4
 54 1355 54 1355 169 1372 c 0,5,6
 256 1385 256 1385 441 1385 c 128,-1,7
 626 1385 626 1385 698 1318 c 128,-1,8
 770 1251 770 1251 770 1091 c 2,9,-1
 770 777 l 2,10,11
 770 687 770 687 792.5 650 c 128,-1,12
 815 613 815 613 883 593 c 128,-1,13
 951 573 951 573 951 505 c 128,-1,14
 951 437 951 437 904 412 c 0,15,16
 896 407 896 407 855 395 c 0,17,18
 799 373 799 373 783 328 c 0,19,20
 770 295 770 295 770 219 c 2,21,-1
 770 -94 l 2,22,23
 770 -255 770 -255 698 -322 c 128,-1,24
 626 -389 626 -389 429 -389 c 128,-1,25
 232 -389 232 -389 168.5 -376.5 c 0,26,27
 54 -353.960629921 54 -353.960629921 54 -277 c 0,28,29
 54 -207 54 -207 163 -207 c 2,30,-1
 251.5 -207 l 2,31,32
 378.358490566 -207 378.358490566 -207 390.5 -148.5 c 0,33,34
 396 -122 396 -122 396 -10 c 2,35,-1
 396 239 l 2,36,37
 396 332 396 332 417.5 385.5 c 128,-1,38
 439 439 439 439 493 479 c 0,39,40
 501 485 501 485 501 496.5 c 128,-1,41
 501 508 501 508 466.5 537 c 0,42,43
 396 596.260869565 396 596.260869565 396 758 c 2,44,-1
 396 1006 l 2,45,46
 396 1136 396 1136 384.5 1160 c 0,47,48
 362.9375 1205 362.9375 1205 230 1205 c 1,0,-1
EndSplineSet
EndChar

StartChar: asciitilde
Encoding: 126 126 93
Width: 1365
Flags: MW
LayerCount: 2
Fore
SplineSet
398 440 m 1,0,-1
 187 619 l 1,1,2
 231 735 231 735 273 798 c 0,3,4
 371 946 371 946 518 946 c 0,5,6
 554 946 554 946 582 938.5 c 128,-1,7
 610 931 610 931 728.5 891 c 128,-1,8
 847 851 847 851 874.5 851 c 128,-1,9
 902 851 902 851 921.5 870 c 128,-1,10
 941 889 941 889 975 952 c 1,11,-1
 1186 773 l 1,12,13
 1145 670 1145 670 1116 619.5 c 0,14,15
 1014.64356436 443 1014.64356436 443 856 443 c 0,16,17
 825 443 825 443 793 452 c 128,-1,18
 761 461 761 461 644 501 c 128,-1,19
 527 541 527 541 501 541 c 0,20,21
 451 541 451 541 398 440 c 1,0,-1
EndSplineSet
EndChar

StartChar: Adieresis
Encoding: 196 196 94
Width: 1693
Flags: MW
LayerCount: 2
Fore
SplineSet
923 1766 m 0
 1020.15439649 1840.5603508 1020.15439649 1840.5603508 1158 1839.5 c 0
 1223 1839 1223 1839 1266 1803.5 c 0
 1309 1768 1309 1768 1309 1694.5 c 0
 1309 1621 1309 1621 1237 1575 c 0
 1134 1509 1134 1509 1012 1509 c 0
 944 1509 944 1509 902 1545.5 c 0
 860 1582 860 1582 860 1650 c 0
 860 1718 860 1718 923 1766 c 0
350 1752 m 0
 447.154396492 1826.5603508 447.154396492 1826.5603508 585 1825.5 c 0
 650 1825 650 1825 693 1789 c 0
 736 1753 736 1753 736 1680.5 c 0
 736 1608 736 1608 664 1561 c 0
 562 1495 562 1495 439 1495 c 0
 371 1495 371 1495 329 1531.5 c 0
 287 1568 287 1568 287 1636 c 0
 287 1704 287 1704 350 1752 c 0
EndSplineSet
Refer: 32 65 N 1 0 0 1 0 0 3
EndChar

StartChar: Aring
Encoding: 197 197 95
Width: 1693
Flags: MW
LayerCount: 2
Fore
SplineSet
798 1788 m 0
 752 1788 752 1788 726 1757.5 c 0
 700 1727 700 1727 700 1675.5 c 0
 700 1624 700 1624 726.5 1594 c 0
 753 1564 753 1564 797 1564 c 0
 841 1564 841 1564 868.5 1595.5 c 0
 896 1627 896 1627 896 1680 c 0
 896 1786 896 1786 798 1788 c 0
578 1826 m 0
 656 1880 656 1880 794 1880 c 0
 1013.75903614 1880 1013.75903614 1880 1075 1769.5 c 0
 1098 1728 1098 1728 1098 1683 c 0
 1098 1583 1098 1583 1020.5 1529 c 0
 943 1475 943 1475 801 1475 c 0
 500 1475 500 1475 500 1674 c 0
 500 1772 500 1772 578 1826 c 0
EndSplineSet
Refer: 32 65 N 1 0 0 1 0 0 3
EndChar

StartChar: Ccedilla
Encoding: 199 199 96
Width: 1475
Flags: MW
LayerCount: 2
Fore
SplineSet
1174 1299 m 1,0,-1
 1261 1312 l 1,1,2
 1313 1312 1313 1312 1350 1267 c 0,3,4
 1448 1149 1448 1149 1448 976 c 0,5,6
 1448 855 1448 855 1365 799 c 0,7,8
 1319 768 1319 768 1266 768 c 128,-1,9
 1213 768 1213 768 1180.5 790.5 c 128,-1,10
 1148 813 1148 813 1112 879.5 c 128,-1,11
 1076 946 1076 946 1048.5 982 c 128,-1,12
 1021 1018 1021 1018 980 1046 c 0,13,14
 884 1114 884 1114 780 1114 c 128,-1,15
 676 1114 676 1114 615.5 1039.5 c 128,-1,16
 555 965 555 965 555 815.5 c 128,-1,17
 555 666 555 666 642 523 c 0,18,19
 760 333 760 333 978 333 c 0,20,21
 1060 333 1060 333 1138 359 c 128,-1,22
 1216 385 1216 385 1259 425 c 128,-1,23
 1302 465 1302 465 1332 465 c 128,-1,24
 1362 465 1362 465 1386.5 432.5 c 128,-1,25
 1411 400 1411 400 1411 351 c 128,-1,26
 1411 302 1411 302 1379.5 232.5 c 128,-1,27
 1348 163 1348 163 1316.5 134 c 128,-1,28
 1285 105 1285 105 1265.5 96 c 128,-1,29
 1246 87 1246 87 1212 82 c 128,-1,30
 1178 77 1178 77 1105.5 43.5 c 128,-1,31
 1033 10 1033 10 969.5 -5.5 c 128,-1,32
 906 -21 906 -21 883.5 -21.5 c 128,-1,33
 861 -22 861 -22 861 -40 c 128,-1,34
 861 -58 861 -58 887 -111 c 1,35,-1
 957 -245 l 2,36,37
 988 -305 988 -305 988 -339 c 0,38,39
 988 -401 988 -401 928 -435 c 128,-1,40
 868 -469 868 -469 755.5 -469 c 128,-1,41
 643 -469 643 -469 576.5 -438 c 128,-1,42
 510 -407 510 -407 510 -358 c 0,43,44
 510 -263.06557377 510 -263.06557377 634 -259 c 0,45,46
 699 -257 699 -257 723.5 -245 c 128,-1,47
 748 -233 748 -233 748 -208 c 128,-1,48
 748 -183 748 -183 736 -155 c 2,49,-1
 692 -48 l 2,50,51
 684 -27 684 -27 675 -20.5 c 128,-1,52
 666 -14 666 -14 602 -2 c 128,-1,53
 538 10 538 10 446 55 c 0,54,55
 275 138 275 138 161.5 311 c 128,-1,56
 48 484 48 484 48 695.5 c 128,-1,57
 48 907 48 907 177.5 1077.5 c 128,-1,58
 307 1248 307 1248 471.5 1320 c 128,-1,59
 636 1392 636 1392 786.5 1392 c 128,-1,60
 937 1392 937 1392 1086 1328 c 0,61,62
 1153 1299 1153 1299 1174 1299 c 1,0,-1
EndSplineSet
EndChar

StartChar: Eacute
Encoding: 201 201 97
Width: 1415
Flags: MW
LayerCount: 2
Fore
SplineSet
630 1709 m 1
 614 1753 l 1
 614 1779 614 1779 659 1795 c 0
 704 1811 704 1811 785.5 1811.5 c 0
 867 1812 867 1812 920 1792 c 0
 1018.2879257 1754.91021672 1018.2879257 1754.91021672 1016 1700 c 0
 1014 1655 1014 1655 931 1591 c 0
 780 1475 780 1475 597 1475 c 0
 494 1475 494 1475 494 1549 c 0
 494 1575 494 1575 504.5 1588.5 c 0
 515 1602 515 1602 562.5 1637.5 c 0
 610 1673 610 1673 620 1683.5 c 0
 630 1694 630 1694 630 1709 c 1
EndSplineSet
Refer: 36 69 N 1 0 0 1 0 0 3
EndChar

StartChar: Ntilde
Encoding: 209 209 98
Width: 1700
Flags: MW
LayerCount: 2
Fore
SplineSet
647 1822 m 0
 684 1824 684 1824 719.5 1814 c 0
 755 1804 755 1804 873.520547945 1752.5 c 0
 992.04109589 1701 992.04109589 1701 1015.52054795 1701 c 0
 1039 1701 1039 1701 1042 1727 c 1
 1042 1760 l 2
 1042 1786 1042 1786 1070.5 1805.5 c 0
 1099 1825 1099 1825 1148.5 1825 c 0
 1198 1825 1198 1825 1233 1787 c 0
 1268 1749 1268 1749 1268 1676.5 c 0
 1268 1604 1268 1604 1213.5 1543.5 c 0
 1159 1483 1159 1483 1086 1483 c 0
 1043 1483 1043 1483 962 1510 c 0
 881 1537 881 1537 811.5 1574 c 0
 742 1611 742 1611 721 1611 c 0
 700 1611 700 1611 689 1604.5 c 0
 678 1598 678 1598 678 1591 c 2
 680 1540 l 2
 680 1522 680 1522 651 1506.5 c 0
 622 1491 622 1491 586 1491 c 0
 550 1491 550 1491 510 1525 c 0
 470 1559 470 1559 470 1641.5 c 0
 470 1724 470 1724 517 1771 c 0
 564 1818 564 1818 647 1822 c 0
EndSplineSet
Refer: 45 78 N 1 0 0 1 0 0 3
EndChar

StartChar: Odieresis
Encoding: 214 214 99
Width: 1594
Flags: MW
LayerCount: 2
Fore
SplineSet
922 1766 m 0
 1019.15439649 1840.5603508 1019.15439649 1840.5603508 1157 1839.5 c 0
 1222 1839 1222 1839 1265 1803.5 c 0
 1308 1768 1308 1768 1308 1694.5 c 0
 1308 1621 1308 1621 1236 1575 c 0
 1133 1509 1133 1509 1011 1509 c 0
 943 1509 943 1509 901 1545.5 c 0
 859 1582 859 1582 859 1650 c 0
 859 1718 859 1718 922 1766 c 0
349 1752 m 0
 446.154396492 1826.5603508 446.154396492 1826.5603508 584 1825.5 c 0
 649 1825 649 1825 692 1789 c 0
 735 1753 735 1753 735 1680.5 c 0
 735 1608 735 1608 663 1561 c 0
 561 1495 561 1495 438 1495 c 0
 370 1495 370 1495 328 1531.5 c 0
 286 1568 286 1568 286 1636 c 0
 286 1704 286 1704 349 1752 c 0
EndSplineSet
Refer: 46 79 N 1 0 0 1 0 0 3
EndChar

StartChar: Udieresis
Encoding: 220 220 100
Width: 1679
Flags: MW
LayerCount: 2
Fore
SplineSet
1018 1766 m 0
 1115.15439649 1840.5603508 1115.15439649 1840.5603508 1253 1839.5 c 0
 1318 1839 1318 1839 1361 1803.5 c 0
 1404 1768 1404 1768 1404 1694.5 c 0
 1404 1621 1404 1621 1332 1575 c 0
 1229 1509 1229 1509 1107 1509 c 0
 1039 1509 1039 1509 997 1545.5 c 0
 955 1582 955 1582 955 1650 c 0
 955 1718 955 1718 1018 1766 c 0
445 1752 m 0
 542.154396492 1826.5603508 542.154396492 1826.5603508 680 1825.5 c 0
 745 1825 745 1825 788 1789 c 0
 831 1753 831 1753 831 1680.5 c 0
 831 1608 831 1608 759 1561 c 0
 657 1495 657 1495 534 1495 c 0
 466 1495 466 1495 424 1531.5 c 0
 382 1568 382 1568 382 1636 c 0
 382 1704 382 1704 445 1752 c 0
EndSplineSet
Refer: 52 85 N 1 0 0 1 0 0 3
EndChar

StartChar: ccedilla
Encoding: 231 231 107
Width: 1078
Flags: MW
LayerCount: 2
Fore
SplineSet
523 -115 m 2,0,-1
 470 -43 l 2,1,2
 452 -20 452 -20 418 -12.5 c 128,-1,3
 384 -5 384 -5 343 14 c 0,4,5
 233 63 233 63 148 161 c 0,6,7
 34 292 34 292 34 475 c 0,8,9
 34 700 34 700 203.5 848 c 128,-1,10
 373 996 373 996 609 996 c 0,11,12
 788 996 788 996 919.5 908 c 128,-1,13
 1051 820 1051 820 1051 692 c 0,14,15
 1051 607 1051 607 991.5 555.5 c 128,-1,16
 932 504 932 504 862 504 c 128,-1,17
 792 504 792 504 757 537 c 128,-1,18
 722 570 722 570 695 657.5 c 128,-1,19
 668 745 668 745 593 745 c 0,20,21
 537 745 537 745 498.5 696 c 128,-1,22
 460 647 460 647 460 575 c 0,23,24
 460 456 460 456 538.5 373 c 128,-1,25
 617 290 617 290 727 290 c 0,26,27
 800.171428571 290 800.171428571 290 854.085714286 315.5 c 128,-1,28
 908 341 908 341 934.5 341 c 128,-1,29
 961 341 961 341 987 309.5 c 128,-1,30
 1013 278 1013 278 1013 235 c 0,31,32
 1013 137 1013 137 877 52 c 0,33,34
 774 -13 774 -13 649 -26 c 0,35,36
 635 -27 635 -27 635 -35.5 c 128,-1,37
 635 -44 635 -44 647 -55 c 2,38,-1
 736 -136 l 2,39,40
 797 -192 797 -192 797 -239 c 128,-1,41
 797 -286 797 -286 736.5 -320 c 128,-1,42
 676 -354 676 -354 587 -354 c 128,-1,43
 498 -354 498 -354 454.5 -322 c 128,-1,44
 411 -290 411 -290 411 -258 c 0,45,46
 411 -193.166666667 411 -193.166666667 515 -178 c 0,47,48
 543 -174 543 -174 543 -157.5 c 128,-1,49
 543 -141 543 -141 523 -115 c 2,0,-1
EndSplineSet
EndChar

StartChar: idieresis
Encoding: 239 239 115
Width: 730
Flags: MW
LayerCount: 2
Fore
SplineSet
567 1113 m 0
 399 1113 399 1113 399 1264 c 0
 399 1337 399 1337 462.5 1384.5 c 0
 526 1432 526 1432 621 1432 c 0
 806 1432 806 1432 806 1285.5 c 0
 806 1212 806 1212 729 1162.5 c 0
 652 1113 652 1113 567 1113 c 0
92 1116 m 0
 -76 1116 -76 1116 -76 1267 c 0
 -76 1340 -76 1340 -12 1387.5 c 0
 52 1435 52 1435 147 1435 c 0
 331 1435 331 1435 331 1288.5 c 0
 331 1215 331 1215 254 1165.5 c 0
 177 1116 177 1116 92 1116 c 0
EndSplineSet
Refer: 205 305 N 1 0 0 1 0 0 3
EndChar

StartChar: dagger
Encoding: 8224 8224 126
Width: 1475
Flags: MW
LayerCount: 2
Fore
SplineSet
927 396 m 1,0,-1
 924 185 l 1,1,2
 924 5 924 5 940.5 -64.5 c 128,-1,3
 957 -134 957 -134 1007 -170.5 c 128,-1,4
 1057 -207 1057 -207 1070 -224.5 c 128,-1,5
 1083 -242 1083 -242 1083 -272.5 c 0,6,7
 1083 -332.25 1083 -332.25 973.5 -360.625 c 128,-1,8
 864 -389 864 -389 737.5 -389 c 128,-1,9
 611 -389 611 -389 526.5 -367 c 128,-1,10
 442 -345 442 -345 416 -324 c 128,-1,11
 390 -303 390 -303 390 -272.5 c 128,-1,12
 390 -242 390 -242 403 -224.5 c 128,-1,13
 416 -207 416 -207 468 -168.5 c 128,-1,14
 520 -130 520 -130 535.5 -46.5 c 128,-1,15
 551 37 551 37 551 186 c 1,16,-1
 548 396 l 1,17,-1
 548 517 l 2,18,19
 548 553 548 553 526 551 c 2,20,-1
 482 548 l 1,21,22
 374 542 374 542 351.5 531.5 c 128,-1,23
 329 521 329 521 308.5 472.5 c 128,-1,24
 288 424 288 424 269.5 409.5 c 128,-1,25
 251 395 251 395 215 395 c 0,26,27
 138 395 138 395 105.5 493.5 c 128,-1,28
 73 592 73 592 73 717.5 c 128,-1,29
 73 843 73 843 104.5 941.5 c 128,-1,30
 136 1040 136 1040 212 1040 c 0,31,32
 241 1040 241 1040 259 1024.5 c 128,-1,33
 277 1009 277 1009 297 965.5 c 128,-1,34
 317 922 317 922 336 910 c 128,-1,35
 355 898 355 898 417 894 c 2,36,-1
 494 889 l 2,37,38
 514 888 514 888 522 888 c 0,39,40
 541 889 541 889 541 921 c 2,41,-1
 541 1053 l 2,42,43
 541 1096 541 1096 528.5 1117.5 c 128,-1,44
 516 1139 516 1139 472.5 1158 c 128,-1,45
 429 1177 429 1177 415 1190 c 128,-1,46
 401 1203 401 1203 401 1233.5 c 128,-1,47
 401 1264 401 1264 430 1297 c 128,-1,48
 459 1330 459 1330 503 1347 c 0,49,50
 604 1385 604 1385 737 1385 c 0,51,52
 965.892307692 1385 965.892307692 1385 1043.5 1296.5 c 0,53,54
 1072 1264 1072 1264 1072 1233.5 c 128,-1,55
 1072 1203 1072 1203 1058 1190 c 128,-1,56
 1044 1177 1044 1177 1000.5 1158 c 128,-1,57
 957 1139 957 1139 944.5 1117.5 c 128,-1,58
 932 1096 932 1096 932 1053 c 2,59,-1
 932 921 l 2,60,61
 932 889 932 889 951 888 c 0,62,63
 959 888 959 888 979 889 c 2,64,-1
 1057 894 l 2,65,66
 1118 898 1118 898 1137 910 c 128,-1,67
 1156 922 1156 922 1176.5 966 c 128,-1,68
 1197 1010 1197 1010 1214.5 1025 c 128,-1,69
 1232 1040 1232 1040 1262 1040 c 0,70,71
 1337 1040 1337 1040 1368.5 941.5 c 128,-1,72
 1400 843 1400 843 1400 717.5 c 128,-1,73
 1400 592 1400 592 1367.5 493.5 c 128,-1,74
 1335 395 1335 395 1256 395 c 0,75,76
 1221 395 1221 395 1203 410 c 128,-1,77
 1185 425 1185 425 1164.5 473 c 128,-1,78
 1144 521 1144 521 1121.5 531.5 c 128,-1,79
 1099 542 1099 542 991 548 c 1,80,-1
 947 551 l 1,81,82
 927 551 927 551 927 517 c 2,83,-1
 927 396 l 1,0,-1
EndSplineSet
EndChar

StartChar: degree
Encoding: 176 176 127
Width: 848
Flags: MW
LayerCount: 2
Fore
SplineSet
515.5 1098.5 m 128,-1,1
 496 1179 496 1179 470.5 1228.5 c 128,-1,2
 445 1278 445 1278 400.5 1279 c 128,-1,3
 356 1280 356 1280 333 1255.5 c 128,-1,4
 310 1231 310 1231 310 1189 c 128,-1,5
 310 1147 310 1147 329 1070 c 128,-1,6
 348 993 348 993 373 934 c 128,-1,7
 398 875 398 875 455 875 c 0,8,9
 535 875 535 875 535 965 c 0,10,0
 535 1018 535 1018 515.5 1098.5 c 128,-1,1
448 1386 m 0,11,12
 560 1386 560 1386 633 1335.5 c 0,13,14
 779 1234.5 779 1234.5 779 1074 c 0,15,16
 779 941 779 941 660.5 850.5 c 128,-1,17
 542 760 542 760 394 760 c 128,-1,18
 246 760 246 760 157 842 c 128,-1,19
 68 924 68 924 68 1061 c 128,-1,20
 68 1198 68 1198 178 1292 c 128,-1,21
 288 1386 288 1386 448 1386 c 0,11,12
EndSplineSet
EndChar

StartChar: cent
Encoding: 162 162 128
Width: 1229
Flags: MW
LayerCount: 2
Fore
SplineSet
522 1057 m 2,0,-1
 522 1084 l 2,1,2
 522 1125 522 1125 535.5 1138.5 c 128,-1,3
 549 1152 549 1152 590 1152 c 2,4,-1
 649 1152 l 2,5,6
 690 1152 690 1152 703.5 1138.5 c 128,-1,7
 717 1125 717 1125 717 1089.5 c 128,-1,8
 717 1054 717 1054 723.5 1045.5 c 128,-1,9
 730 1037 730 1037 753 1034 c 0,10,11
 885 1020 885 1020 978.5 941.5 c 128,-1,12
 1072 863 1072 863 1072 776 c 128,-1,13
 1072 689 1072 689 1021 641 c 128,-1,14
 970 593 970 593 903.5 593 c 128,-1,15
 837 593 837 593 808 619 c 128,-1,16
 779 645 779 645 757 714 c 0,17,18
 726 810 726 810 656 810 c 0,19,20
 606 810 606 810 572.5 765 c 128,-1,21
 539 720 539 720 539 635 c 128,-1,22
 539 550 539 550 610 475 c 128,-1,23
 681 400 681 400 762 400 c 128,-1,24
 843 400 843 400 929 437 c 0,25,26
 949 445 949 445 970 445 c 128,-1,27
 991 445 991 445 1014.5 414 c 128,-1,28
 1038 383 1038 383 1038 345 c 0,29,30
 1038 283 1038 283 962.165137615 218.076452599 c 0,31,32
 886.330275229 153.152905199 886.330275229 153.152905199 777 128.5 c 0,33,34
 726 117 726 117 721.5 108.5 c 128,-1,35
 717 100 717 100 717 75 c 2,36,-1
 717 44 l 2,37,38
 717 2 717 2 703.5 -11.5 c 128,-1,39
 690 -25 690 -25 649 -25 c 2,40,-1
 590 -25 l 2,41,42
 551 -25 551 -25 536.5 -10.5 c 128,-1,43
 522 4 522 4 522 44 c 2,44,-1
 522 83 l 2,45,46
 522 112 522 112 515.5 119.5 c 128,-1,47
 509 127 509 127 464.5 136 c 128,-1,48
 420 145 420 145 352 196 c 0,49,50
 157 342.25 157 342.25 157 567 c 0,51,52
 157 745 157 745 264.5 861.5 c 128,-1,53
 372 978 372 978 489 1008 c 0,54,55
 511 1014 511 1014 516.5 1022 c 128,-1,56
 522 1030 522 1030 522 1057 c 2,0,-1
EndSplineSet
EndChar

StartChar: sterling
Encoding: 163 163 129
Width: 1229
Flags: MW
LayerCount: 2
Fore
SplineSet
852 934 m 2,0,-1
 853 1010.5 l 2,1,2
 853 1040 853 1040 829.5 1060.5 c 128,-1,3
 806 1081 806 1081 753 1081 c 0,4,5
 646 1081 646 1081 646 950 c 0,6,7
 646 894 646 894 657.5 836 c 128,-1,8
 669 778 669 778 681 762.5 c 128,-1,9
 693 747 693 747 704 745 c 128,-1,10
 715 743 715 743 772 741 c 1,11,-1
 832 742 l 2,12,13
 875 742 875 742 892.5 720 c 128,-1,14
 910 698 910 698 910 645.5 c 128,-1,15
 910 593 910 593 888 576 c 0,16,17
 878 567 878 567 808.5 567 c 128,-1,18
 739 567 739 567 720 556.5 c 128,-1,19
 701 546 701 546 686 505.5 c 128,-1,20
 671 465 671 465 653.5 431.5 c 128,-1,21
 636 398 636 398 636 386 c 0,22,23
 636 360 636 360 687 339 c 0,24,25
 790 295 790 295 867 295 c 128,-1,26
 944 295 944 295 1005 386 c 0,27,28
 1037 433 1037 433 1061.5 451.5 c 128,-1,29
 1086 470 1086 470 1124 470 c 128,-1,30
 1162 470 1162 470 1190 438.5 c 128,-1,31
 1218 407 1218 407 1218 350.5 c 128,-1,32
 1218 294 1218 294 1185.5 217.5 c 128,-1,33
 1153 141 1153 141 1102 86 c 0,34,35
 999 -27 999 -27 831 -27 c 0,36,37
 755 -27 755 -27 681 5 c 128,-1,38
 607 37 607 37 566.5 70.5 c 128,-1,39
 526 104 526 104 508.5 104 c 128,-1,40
 491 104 491 104 429 56 c 0,41,42
 324 -26 324 -26 229 -26 c 128,-1,43
 134 -26 134 -26 77 43.5 c 128,-1,44
 20 113 20 113 20 212 c 128,-1,45
 20 311 20 311 67.5 367.5 c 128,-1,46
 115 424 115 424 195 424 c 0,47,48
 228 424 228 424 262.5 415 c 128,-1,49
 297 406 297 406 310 406 c 0,50,51
 336 406 336 406 336 427 c 0,52,53
 336 435 336 435 333 446.5 c 128,-1,54
 330 458 330 458 323.5 495.5 c 128,-1,55
 317 533 317 533 300.5 542 c 128,-1,56
 284 551 284 551 210 551 c 1,57,-1
 155 549 l 1,58,59
 114 549 114 549 97 572 c 128,-1,60
 80 595 80 595 80 645.5 c 128,-1,61
 80 696 80 696 94.5 710.5 c 128,-1,62
 109 725 109 725 119 727 c 128,-1,63
 129 729 129 729 176.5 729.5 c 128,-1,64
 224 730 224 730 224 752 c 0,65,66
 224 760 224 760 210.5 804 c 128,-1,67
 197 848 197 848 197 901 c 0,68,69
 197 1043 197 1043 299 1138 c 0,70,71
 442 1272 442 1272 728 1272 c 0,72,73
 930.25 1272 930.25 1272 1043.125 1181.5 c 128,-1,74
 1156 1091 1156 1091 1156 966 c 0,75,76
 1156 893 1156 893 1111.5 850 c 128,-1,77
 1067 807 1067 807 997.5 807 c 128,-1,78
 928 807 928 807 890 841.5 c 128,-1,79
 852 876 852 876 852 934 c 2,0,-1
EndSplineSet
EndChar

StartChar: section
Encoding: 167 167 130
Width: 1475
Flags: MW
LayerCount: 2
Fore
SplineSet
639 448 m 1,0,-1
 827 392 l 2,1,2
 836 389 836 389 845 389 c 0,3,4
 864 389 864 389 884.5 424.5 c 128,-1,5
 905 460 905 460 905 492 c 0,6,7
 905 558 905 558 819 582 c 2,8,-1
 633 635 l 2,9,10
 623 638 623 638 608.5 638 c 128,-1,11
 594 638 594 638 573 605 c 128,-1,12
 552 572 552 572 552 538 c 0,13,14
 552 475 552 475 639 448 c 1,0,-1
189 -35 m 0,15,16
 268 -1 268 -1 331 -1.5 c 128,-1,17
 394 -2 394 -2 417 -16 c 128,-1,18
 440 -30 440 -30 486 -83 c 0,19,20
 573 -184 573 -184 714 -184 c 0,21,22
 782 -184 782 -184 821.5 -159 c 128,-1,23
 861 -134 861 -134 861 -92 c 0,24,25
 861 -22 861 -22 719 9 c 0,26,27
 611 33 611 33 494 74 c 128,-1,28
 377 115 377 115 309.5 152.5 c 128,-1,29
 242 190 242 190 197 265.5 c 128,-1,30
 152 341 152 341 152 432.5 c 128,-1,31
 152 524 152 524 203 599 c 128,-1,32
 254 674 254 674 315 711 c 0,33,34
 332 721 332 721 332 731.5 c 128,-1,35
 332 742 332 742 319 751 c 0,36,37
 172 857 172 857 172 1018.5 c 128,-1,38
 172 1180 172 1180 307 1274 c 0,39,40
 467 1385 467 1385 762 1385 c 128,-1,41
 1057 1385 1057 1385 1226 1283 c 0,42,43
 1316 1229 1316 1229 1316 1163 c 0,44,45
 1316 1116 1316 1116 1245.5 1077.5 c 128,-1,46
 1175 1039 1175 1039 1126.5 1039 c 128,-1,47
 1078 1039 1078 1039 1060.5 1049 c 128,-1,48
 1043 1059 1043 1059 990 1109 c 0,49,50
 908 1187 908 1187 792 1187 c 0,51,52
 737 1187 737 1187 700.5 1163.5 c 128,-1,53
 664 1140 664 1140 664 1102 c 0,54,55
 664 1026.25274725 664 1026.25274725 839.437554205 992.854907884 c 0,56,57
 1014.87510841 959.457068517 1014.87510841 959.457068517 1167.5 891.5 c 0,58,59
 1236 861 1236 861 1289 783 c 128,-1,60
 1342 705 1342 705 1342 614 c 0,61,62
 1342 437.101265823 1342 437.101265823 1178 325 c 0,63,64
 1155 310 1155 310 1155 298 c 128,-1,65
 1155 286 1155 286 1183 269.5 c 128,-1,66
 1211 253 1211 253 1244.5 221.5 c 128,-1,67
 1278 190 1278 190 1290 171 c 0,68,69
 1335 101 1335 101 1335 3 c 0,70,71
 1335 -162 1335 -162 1201 -266 c 0,72,73
 1118 -331 1118 -331 1011.5 -360 c 128,-1,74
 905 -389 905 -389 749 -389 c 0,75,76
 418 -389 418 -389 234 -253 c 0,77,78
 192 -223 192 -223 163 -179.5 c 128,-1,79
 134 -136 134 -136 134 -98 c 128,-1,80
 134 -60 134 -60 189 -35 c 0,15,16
EndSplineSet
EndChar

StartChar: periodcentered
Encoding: 183 183 131
Width: 1365
Flags: MW
LayerCount: 2
Fore
SplineSet
685 410 m 128,-1,1
 567 410 567 410 484 493 c 128,-1,2
 401 576 401 576 401 695 c 128,-1,3
 401 814 401 814 485 896 c 128,-1,4
 569 978 569 978 685.5 978 c 128,-1,5
 802 978 802 978 885.5 895 c 128,-1,6
 969 812 969 812 969 694 c 128,-1,7
 969 576 969 576 886 493 c 128,-1,0
 803 410 803 410 685 410 c 128,-1,1
EndSplineSet
EndChar

StartChar: paragraph
Encoding: 182 182 132
Width: 1229
Flags: MW
LayerCount: 2
Fore
SplineSet
816 1359 m 1,0,-1
 1040 1364 l 1,1,2
 1118 1364 1118 1364 1146 1336 c 128,-1,3
 1174 1308 1174 1308 1174 1278 c 0,4,5
 1174 1219 1174 1219 1085 1195 c 0,6,7
 1024 1179 1024 1179 1010 1154 c 128,-1,8
 996 1129 996 1129 996 1034 c 2,9,-1
 996 -71 l 2,10,11
 996 -147 996 -147 1001.5 -200.5 c 128,-1,12
 1007 -254 1007 -254 1007 -266 c 0,13,14
 1007 -309 1007 -309 952 -337 c 0,15,16
 923 -353 923 -353 872 -371 c 128,-1,17
 821 -389 821 -389 808 -389 c 0,18,19
 771 -389 771 -389 771 -342 c 1,20,-1
 777 -122 l 1,21,-1
 777 1098 l 2,22,23
 777 1134 777 1134 767.5 1143.5 c 128,-1,24
 758 1153 758 1153 722 1153 c 2,25,-1
 690 1153 l 2,26,27
 653 1153 653 1153 644 1144 c 128,-1,28
 635 1135 635 1135 635 1098 c 2,29,-1
 635 -71 l 2,30,31
 635 -147 635 -147 640.5 -200.5 c 128,-1,32
 646 -254 646 -254 646 -266 c 0,33,34
 646 -309 646 -309 591 -337 c 0,35,36
 562 -352 562 -352 511 -370.5 c 128,-1,37
 460 -389 460 -389 447 -389 c 0,38,39
 410 -389 410 -389 410 -342 c 1,40,-1
 416 -167 l 1,41,-1
 416 502 l 2,42,43
 416 541 416 541 406 550.5 c 128,-1,44
 396 560 396 560 346.5 563 c 128,-1,45
 297 566 297 566 250 585 c 0,46,47
 136 632 136 632 75 752 c 0,48,49
 27 847 27 847 27 975 c 0,50,51
 27 1211 27 1211 185 1322 c 0,52,53
 275 1385 275 1385 390 1385 c 0,54,55
 430 1385 430 1385 547.5 1372 c 128,-1,56
 665 1359 665 1359 816 1359 c 1,0,-1
EndSplineSet
EndChar

StartChar: germandbls
Encoding: 223 223 133
Width: 1322
Flags: MW
LayerCount: 2
Fore
SplineSet
740 1141 m 0,0,1
 549 1141 549 1141 549 726 c 0,2,3
 549 615 549 615 564 351 c 0,4,5
 568 290 568 290 579.5 257.5 c 128,-1,6
 591 225 591 225 623.5 193.5 c 128,-1,7
 656 162 656 162 663 151.5 c 128,-1,8
 670 141 670 141 670 119 c 0,9,10
 670 52 670 52 574.5 15.5 c 128,-1,11
 479 -21 479 -21 304 -21 c 0,12,13
 20 -21 20 -21 20 100 c 0,14,15
 20 129 20 129 31 143 c 128,-1,16
 42 157 42 157 95 196 c 1,17,18
 145 245 145 245 142 365 c 1,19,-1
 142 743 l 2,20,21
 142 1170.73684211 142 1170.73684211 482 1296 c 0,22,23
 606 1341 606 1341 748.5 1341 c 128,-1,24
 891 1341 891 1341 980 1271 c 128,-1,25
 1069 1201 1069 1201 1069 1088 c 0,26,27
 1069 1049 1069 1049 1060 1026 c 128,-1,28
 1051 1003 1051 1003 1030.5 971.5 c 128,-1,29
 1010 940 1010 940 1010 926 c 0,30,31
 1010 889 1010 889 1108.5 744.5 c 128,-1,32
 1207 600 1207 600 1250.5 498.5 c 128,-1,33
 1294 397 1294 397 1294 289 c 0,34,35
 1294 130 1294 130 1192 55 c 128,-1,36
 1090 -20 1090 -20 964.5 -20 c 0,37,38
 800 -20 800 -20 735.5 109 c 0,39,40
 721 138 721 138 721 156 c 128,-1,41
 721 174 721 174 761 190 c 0,42,43
 837 220 837 220 837 294.934782608 c 128,-1,44
 837 369.869565217 837 369.869565217 753.5 506.934782609 c 128,-1,45
 670 644 670 644 651.5 684 c 128,-1,46
 633 724 633 724 633 782.5 c 128,-1,47
 633 841 633 841 663 885.5 c 128,-1,48
 693 930 693 930 786 1008 c 0,49,50
 825 1040 825 1040 825 1072 c 128,-1,51
 825 1104 825 1104 801.5 1122.5 c 128,-1,52
 778 1141 778 1141 740 1141 c 0,0,1
EndSplineSet
EndChar

StartChar: registered
Encoding: 174 174 134
Width: 1594
Flags: MW
LayerCount: 2
Fore
SplineSet
716 902 m 2,0,-1
 709 778 l 1,1,-1
 709 773 l 1,2,3
 708 749 708 749 731 749 c 0,4,5
 778 749 778 749 798.5 771 c 128,-1,6
 819 793 819 793 819 843 c 0,7,8
 819 938 819 938 749 938 c 0,9,10
 730 938 730 938 723.5 930.5 c 128,-1,11
 717 923 717 923 716 902 c 2,0,-1
631 1057 m 1,12,-1
 840 1066 l 1,13,14
 965 1066 965 1066 1040 1012 c 128,-1,15
 1115 958 1115 958 1115 868 c 0,16,17
 1115 817 1115 817 1088.5 774.5 c 128,-1,18
 1062 732 1062 732 1033 719.5 c 128,-1,19
 1004 707 1004 707 1004 698 c 128,-1,20
 1004 689 1004 689 1046.5 673.5 c 0,21,22
 1136.59156574 640.643076025 1136.59156574 640.643076025 1158 489 c 0,23,24
 1162 457 1162 457 1170.5 447.5 c 128,-1,25
 1179 438 1179 438 1210.5 430 c 128,-1,26
 1242 422 1242 422 1242 384.5 c 128,-1,27
 1242 347 1242 347 1192.5 323.5 c 128,-1,28
 1143 300 1143 300 1048 300 c 128,-1,29
 953 300 953 300 907 346.5 c 128,-1,30
 861 393 861 393 824 537 c 0,31,32
 805 620 805 620 743 625 c 0,33,34
 724 625 724 625 719.5 614 c 128,-1,35
 715 603 715 603 715 549 c 128,-1,36
 715 495 715 495 721 470 c 128,-1,37
 727 445 727 445 757 429 c 128,-1,38
 787 413 787 413 787 377.5 c 128,-1,39
 787 342 787 342 738.5 326 c 128,-1,40
 690 310 690 310 576 310 c 0,41,42
 361 310 361 310 361 391 c 0,43,44
 361 415 361 415 396.5 437 c 128,-1,45
 432 459 432 459 438 509 c 128,-1,46
 444 559 444 559 444 721 c 128,-1,47
 444 883 444 883 436.5 908 c 128,-1,48
 429 933 429 933 406 944 c 0,49,50
 361 965 361 965 361 995 c 0,51,52
 361 1063 361 1063 493 1063 c 1,53,-1
 631 1057 l 1,12,-1
807 1257 m 1,54,55
 552 1257 552 1257 376 1091 c 0,56,57
 290 1010 290 1010 244 903.5 c 128,-1,58
 198 797 198 797 198 682 c 0,59,60
 198 520 198 520 287.5 381.5 c 128,-1,61
 377 243 377 243 517 175.5 c 128,-1,62
 657 108 657 108 799 108 c 0,63,64
 1046 108 1046 108 1222 276 c 0,65,66
 1397 444 1397 444 1397 682 c 0,67,68
 1397 845 1397 845 1309.5 982.5 c 128,-1,69
 1222 1120 1222 1120 1087 1186.5 c 128,-1,70
 952 1253 952 1253 807 1257 c 1,54,55
1436 312 m 128,-1,72
 1326 142 1326 142 1152.5 57.5 c 128,-1,73
 979 -27 979 -27 784.5 -27 c 128,-1,74
 590 -27 590 -27 409.5 76 c 128,-1,75
 229 179 229 179 138.5 345 c 128,-1,76
 48 511 48 511 48 697.5 c 128,-1,77
 48 884 48 884 158 1054 c 128,-1,78
 268 1224 268 1224 444 1308 c 128,-1,79
 620 1392 620 1392 815 1392 c 128,-1,80
 1010 1392 1010 1392 1189 1287 c 128,-1,81
 1368 1182 1368 1182 1457 1017 c 128,-1,82
 1546 852 1546 852 1546 667 c 128,-1,71
 1546 482 1546 482 1436 312 c 128,-1,72
EndSplineSet
EndChar

StartChar: copyright
Encoding: 169 169 135
Width: 1594
Flags: MW
LayerCount: 2
Fore
SplineSet
1014 1023 m 1,0,-1
 1062 1030 l 1,1,2
 1106 1030 1106 1030 1140 974 c 128,-1,3
 1174 918 1174 918 1174 855.5 c 128,-1,4
 1174 793 1174 793 1144 760.5 c 128,-1,5
 1114 728 1114 728 1062 728 c 128,-1,6
 1010 728 1010 728 974 790 c 0,7,8
 903.741935484 911 903.741935484 911 794 911 c 0,9,10
 739 911 739 911 707 873.5 c 128,-1,11
 675 836 675 836 675 773 c 128,-1,12
 675 710 675 710 700 651.5 c 0,13,14
 760.47008547 510 760.47008547 510 906 510 c 0,15,16
 1004 510 1004 510 1060 560 c 0,17,18
 1084 581 1084 581 1103 581 c 128,-1,19
 1122 581 1122 581 1138 561.5 c 128,-1,20
 1154 542 1154 542 1154 512.5 c 128,-1,21
 1154 483 1154 483 1133.5 443 c 128,-1,22
 1113 403 1113 403 1092.5 387 c 128,-1,23
 1072 371 1072 371 1042.5 365.5 c 128,-1,24
 1013 360 1013 360 953 333 c 128,-1,25
 893 306 893 306 802 306 c 0,26,27
 653 306 653 306 537 389 c 0,28,29
 465 440 465 440 421 521.5 c 128,-1,30
 377 603 377 603 377 687 c 128,-1,31
 377 771 377 771 417 847.5 c 128,-1,32
 457 924 457 924 528 978 c 0,33,34
 653 1073 653 1073 806 1073 c 0,35,36
 890 1073 890 1073 945.5 1048 c 128,-1,37
 1001 1023 1001 1023 1014 1023 c 1,0,-1
807 1257 m 1,38,39
 552 1257 552 1257 376 1091 c 0,40,41
 290 1010 290 1010 244 903.5 c 128,-1,42
 198 797 198 797 198 682 c 0,43,44
 198 520 198 520 287.5 381.5 c 128,-1,45
 377 243 377 243 517 175.5 c 128,-1,46
 657 108 657 108 799 108 c 0,47,48
 1046 108 1046 108 1222 276 c 0,49,50
 1397 444 1397 444 1397 682 c 0,51,52
 1397 845 1397 845 1309.5 982.5 c 128,-1,53
 1222 1120 1222 1120 1087 1186.5 c 128,-1,54
 952 1253 952 1253 807 1257 c 1,38,39
1436 312 m 128,-1,56
 1326 142 1326 142 1152.5 57.5 c 128,-1,57
 979 -27 979 -27 784.5 -27 c 128,-1,58
 590 -27 590 -27 409.5 76 c 128,-1,59
 229 179 229 179 138.5 345 c 128,-1,60
 48 511 48 511 48 697.5 c 128,-1,61
 48 884 48 884 158 1054 c 128,-1,62
 268 1224 268 1224 444 1308 c 128,-1,63
 620 1392 620 1392 815 1392 c 128,-1,64
 1010 1392 1010 1392 1189 1287 c 128,-1,65
 1368 1182 1368 1182 1457 1017 c 128,-1,66
 1546 852 1546 852 1546 667 c 128,-1,55
 1546 482 1546 482 1436 312 c 128,-1,56
EndSplineSet
EndChar

StartChar: trademark
Encoding: 8482 8482 136
Width: 1948
Flags: MW
LayerCount: 2
Fore
SplineSet
881 1295 m 0,0,1
 881 1377 881 1377 1084 1377 c 0,2,3
 1165 1377 1165 1377 1192 1365 c 128,-1,4
 1219 1353 1219 1353 1244 1307 c 2,5,-1
 1368 1077 l 2,6,7
 1388 1041 1388 1041 1396 1032 c 128,-1,8
 1404 1023 1404 1023 1418 1023 c 0,9,10
 1440 1023 1440 1023 1461 1065 c 2,11,-1
 1546 1230 l 2,12,13
 1563 1263 1563 1263 1567 1271 c 0,14,15
 1599 1338 1599 1338 1634.5 1357.5 c 128,-1,16
 1670 1377 1670 1377 1757 1377 c 0,17,18
 1928 1377 1928 1377 1928 1300 c 0,19,20
 1928 1271 1928 1271 1897.5 1248.5 c 128,-1,21
 1867 1226 1867 1226 1860 1186 c 0,22,23
 1846 1103 1846 1103 1846 966 c 128,-1,24
 1846 829 1846 829 1855 758.5 c 128,-1,25
 1864 688 1864 688 1871.5 677.5 c 128,-1,26
 1879 667 1879 667 1905 650 c 128,-1,27
 1931 633 1931 633 1931 609 c 0,28,29
 1931 568 1931 568 1882 551 c 128,-1,30
 1833 534 1833 534 1717 534 c 0,31,32
 1511 534 1511 534 1511 603 c 0,33,34
 1511 625 1511 625 1555 661 c 0,35,36
 1582 682.9375 1582 682.9375 1582 781.46875 c 128,-1,37
 1582 880 1582 880 1577.5 895 c 128,-1,38
 1573 910 1573 910 1557.5 910 c 128,-1,39
 1542 910 1542 910 1526.5 887 c 128,-1,40
 1511 864 1511 864 1479 794 c 2,41,-1
 1407 633 l 2,42,43
 1376 564 1376 564 1353 564 c 0,44,45
 1322.89156627 564 1322.89156627 564 1260 709 c 1,46,-1
 1180 887 l 2,47,48
 1164 924 1164 924 1147 924 c 128,-1,49
 1130 924 1130 924 1125 893.5 c 128,-1,50
 1120 863 1120 863 1120 777 c 128,-1,51
 1120 691 1120 691 1127.5 674 c 128,-1,52
 1135 657 1135 657 1175 637 c 0,53,54
 1195 626 1195 626 1195 601 c 0,55,56
 1195 534 1195 534 1036 534 c 128,-1,57
 877 534 877 534 877 599 c 0,58,59
 877 616 877 616 884.5 623.5 c 128,-1,60
 892 631 892 631 917.5 643.5 c 128,-1,61
 943 656 943 656 950 671 c 0,62,63
 977 728.857142857 977 728.857142857 977 1075 c 0,64,65
 977 1166 977 1166 967.5 1195.5 c 128,-1,66
 958 1225 958 1225 919.5 1243.5 c 128,-1,67
 881 1262 881 1262 881 1295 c 0,0,1
152 1380 m 1,68,-1
 281 1365 l 1,69,-1
 597 1365 l 1,70,71
 647 1366 647 1366 678 1374.5 c 128,-1,72
 709 1383 709 1383 722 1383 c 0,73,74
 770 1383 770 1383 816 1311 c 128,-1,75
 862 1239 862 1239 862 1179 c 0,76,77
 862 1069 862 1069 773 1069 c 0,78,79
 713 1069 713 1069 671 1145 c 0,80,81
 651 1182 651 1182 640 1193.5 c 128,-1,82
 629 1205 629 1205 612 1205 c 0,83,84
 571 1205 571 1205 571 1125 c 2,85,-1
 571 790 l 2,86,87
 571 738 571 738 581.5 714.5 c 128,-1,88
 592 691 592 691 623.5 678 c 128,-1,89
 655 665 655 665 666.5 652.5 c 128,-1,90
 678 640 678 640 678 618 c 0,91,92
 678 533 678 533 418.5 533 c 128,-1,93
 159 533 159 533 159 624 c 0,94,95
 159 645 159 645 170.5 654.5 c 128,-1,96
 182 664 182 664 214 673.5 c 128,-1,97
 246 683 246 683 255 702 c 0,98,99
 282 759 282 759 282 1106 c 0,100,101
 282 1206 282 1206 246 1206 c 0,102,103
 223 1206 223 1206 191.5 1159.5 c 128,-1,104
 160 1113 160 1113 133 1090.5 c 128,-1,105
 106 1068 106 1068 74 1068 c 128,-1,106
 42 1068 42 1068 21 1092.5 c 128,-1,107
 0 1117 0 1117 0 1173 c 128,-1,108
 0 1229 0 1229 51 1304.5 c 128,-1,109
 102 1380 102 1380 152 1380 c 1,68,-1
EndSplineSet
EndChar

StartChar: acute
Encoding: 180 180 137
Width: 1024
Flags: MW
LayerCount: 2
Fore
SplineSet
483 1326 m 1,0,-1
 467 1371 l 1,1,2
 467 1396 467 1396 512 1412.5 c 128,-1,3
 557 1429 557 1429 638.5 1429.5 c 128,-1,4
 720 1430 720 1430 773 1410 c 0,5,6
 957.222444489 1340.48209642 957.222444489 1340.48209642 784 1209 c 0,7,8
 633 1092 633 1092 450 1092 c 0,9,10
 347 1092 347 1092 347 1166 c 0,11,12
 347 1193 347 1193 357.5 1206.5 c 128,-1,13
 368 1220 368 1220 415.5 1255.5 c 128,-1,14
 463 1291 463 1291 473 1301.5 c 128,-1,15
 483 1312 483 1312 483 1326 c 1,0,-1
EndSplineSet
EndChar

StartChar: dieresis
Encoding: 168 168 138
Width: 1024
Flags: MW
LayerCount: 2
Fore
SplineSet
735 1113 m 0,0,1
 567 1113 567 1113 567 1264 c 0,2,3
 567 1337 567 1337 630.5 1384.5 c 128,-1,4
 694 1432 694 1432 789 1432 c 0,5,6
 974 1432 974 1432 974 1285.5 c 0,7,8
 974 1212 974 1212 897 1162.5 c 128,-1,9
 820 1113 820 1113 735 1113 c 0,0,1
219 1116 m 0,10,11
 51 1116 51 1116 51 1267 c 0,12,13
 51 1340 51 1340 115 1387.5 c 128,-1,14
 179 1435 179 1435 274 1435 c 0,15,16
 458 1435 458 1435 458 1288.5 c 0,17,18
 458 1215 458 1215 381 1165.5 c 128,-1,19
 304 1116 304 1116 219 1116 c 0,10,11
EndSplineSet
EndChar

StartChar: notequal
Encoding: 8800 8800 139
Width: 1229
Flags: MW
LayerCount: 2
Fore
SplineSet
248 536 m 1,0,-1
 397 526 l 2,1,2
 409 525 409 525 416 525 c 0,3,4
 456 525 456 525 473 562 c 2,5,-1
 483 584 l 2,6,7
 494 608 494 608 494 619 c 0,8,9
 494 646 494 646 448 646 c 2,10,-1
 390 646 l 2,11,12
 265 646 265 646 221.5 642.5 c 128,-1,13
 178 639 178 639 164 639 c 128,-1,14
 150 639 150 639 136.5 650.5 c 128,-1,15
 123 662 123 662 123 678.5 c 128,-1,16
 123 695 123 695 144.5 756.5 c 128,-1,17
 166 818 166 818 186.5 854.5 c 128,-1,18
 207 891 207 891 248 891 c 1,19,-1
 441 880 l 1,20,-1
 562 880 l 2,21,22
 609 880 609 880 625 901 c 128,-1,23
 641 922 641 922 670.5 1002 c 128,-1,24
 700 1082 700 1082 718 1094.5 c 128,-1,25
 736 1107 736 1107 801.5 1107 c 128,-1,26
 867 1107 867 1107 928 1093 c 0,27,28
 962 1085 962 1085 962 1053 c 0,29,30
 962 1038 962 1038 928.5 978.5 c 128,-1,31
 895 919 895 919 895 908 c 0,32,33
 895 879 895 879 956 879 c 128,-1,34
 1017 879 1017 879 1039.5 882 c 128,-1,35
 1062 885 1062 885 1067 885 c 0,36,37
 1106 885 1106 885 1106 846 c 0,38,39
 1106 823 1106 823 1089 767.5 c 128,-1,40
 1072 712 1072 712 1051 672 c 128,-1,41
 1030 632 1030 632 997 632 c 0,42,43
 987 632 987 632 937.5 639.5 c 128,-1,44
 888 647 888 647 833 647 c 128,-1,45
 778 647 778 647 764.5 627.5 c 0,46,47
 731 579.111111111 731 579.111111111 731 550 c 0,48,49
 731 525 731 525 774 525 c 2,50,-1
 947 525 l 2,51,52
 1024 525 1024 525 1043 527.5 c 128,-1,53
 1062 530 1062 530 1067 530 c 0,54,55
 1106 530 1106 530 1106 491 c 0,56,57
 1106 468 1106 468 1089 412.5 c 128,-1,58
 1072 357 1072 357 1051 317 c 128,-1,59
 1030 277 1030 277 997 277 c 1,60,-1
 838 291 l 1,61,-1
 659 291 l 2,62,63
 616 291 616 291 600 272 c 128,-1,64
 584 253 584 253 553 168 c 1,65,66
 534 103 534 103 521.5 86.5 c 128,-1,67
 509 70 509 70 461 70 c 0,68,69
 269 70 269 70 269 129 c 0,70,71
 269 143 269 143 298.5 187.5 c 128,-1,72
 328 232 328 232 328 264 c 0,73,74
 328 290 328 290 286 290 c 1,75,-1
 170 284 l 1,76,77
 150 284 150 284 136.5 295.5 c 128,-1,78
 123 307 123 307 123 323.5 c 128,-1,79
 123 340 123 340 145 402.5 c 128,-1,80
 167 465 167 465 181 490 c 0,81,82
 207 536 207 536 248 536 c 1,0,-1
EndSplineSet
EndChar

StartChar: AE
Encoding: 198 198 140
Width: 2119
Flags: MW
LayerCount: 2
Fore
SplineSet
896 686 m 2,0,-1
 896 827 l 2,1,2
 896 878 896 878 888.5 900 c 128,-1,3
 881 922 881 922 858.5 922 c 128,-1,4
 836 922 836 922 822 907 c 128,-1,5
 808 892 808 892 782 846 c 2,6,-1
 687 673 l 2,7,8
 657 620 657 620 657 588.5 c 128,-1,9
 657 557 657 557 687 544 c 128,-1,10
 717 531 717 531 787.5 531 c 128,-1,11
 858 531 858 531 877 561.5 c 128,-1,12
 896 592 896 592 896 686 c 2,0,-1
959 1368 m 2,13,-1
 1624 1368 l 1,14,15
 1746 1369 1746 1369 1796 1387 c 128,-1,16
 1846 1405 1846 1405 1861 1405 c 0,17,18
 1951 1405 1951 1405 1998.5 1262.5 c 0,19,20
 2022 1192 2022 1192 2022 1128 c 128,-1,21
 2022 1064 2022 1064 1992.5 1024 c 128,-1,22
 1963 984 1963 984 1916.5 984 c 128,-1,23
 1870 984 1870 984 1822 1055 c 128,-1,24
 1774 1126 1774 1126 1703.5 1150.5 c 128,-1,25
 1633 1175 1633 1175 1512.5 1175 c 128,-1,26
 1392 1175 1392 1175 1361 1151 c 128,-1,27
 1330 1127 1330 1127 1330 1038 c 2,28,-1
 1330 880 l 2,29,30
 1330 841 1330 841 1335.5 826.5 c 128,-1,31
 1341 812 1341 812 1364 804.5 c 128,-1,32
 1387 797 1387 797 1445.5 797 c 128,-1,33
 1504 797 1504 797 1520.5 818.5 c 128,-1,34
 1537 840 1537 840 1540 894.5 c 128,-1,35
 1543 949 1543 949 1567.5 979 c 128,-1,36
 1592 1009 1592 1009 1624.5 1009 c 0,37,38
 1688.79166667 1009 1688.79166667 1009 1714 954 c 0,39,40
 1749 866.5 1749 866.5 1749 665 c 0,41,42
 1749 563 1749 563 1711 473 c 0,43,44
 1697 439 1697 439 1670.5 418 c 128,-1,45
 1644 397 1644 397 1616 397 c 0,46,47
 1563 397 1563 397 1554 473.5 c 128,-1,48
 1545 550 1545 550 1517 577 c 128,-1,49
 1489 604 1489 604 1435 604 c 128,-1,50
 1381 604 1381 604 1362.5 580 c 128,-1,51
 1344 556 1344 556 1344 492.5 c 128,-1,52
 1344 429 1344 429 1350.5 351 c 128,-1,53
 1357 273 1357 273 1365 250 c 0,54,55
 1375 217 1375 217 1419.5 207 c 128,-1,56
 1464 197 1464 197 1600.5 197 c 0,57,58
 1819.17557252 197 1819.17557252 197 1899.5 369.5 c 0,59,60
 1930 435 1930 435 1952.5 453.5 c 128,-1,61
 1975 472 1975 472 2013 472 c 128,-1,62
 2051 472 2051 472 2078.5 435 c 128,-1,63
 2106 398 2106 398 2106 341.5 c 128,-1,64
 2106 285 2106 285 2080 204 c 128,-1,65
 2054 123 2054 123 2020 66.5 c 128,-1,66
 1986 10 1986 10 1966 -5 c 128,-1,67
 1946 -20 1946 -20 1915 -20 c 128,-1,68
 1884 -20 1884 -20 1848 -11 c 128,-1,69
 1812 -2 1812 -2 1743 -1 c 1,70,-1
 849 -7 l 2,71,72
 735 -8 735 -8 735 78 c 0,73,74
 735 138 735 138 801 166 c 128,-1,75
 867 194 867 194 867 232.5 c 128,-1,76
 867 271 867 271 822 282.5 c 128,-1,77
 777 294 777 294 660 294 c 128,-1,78
 543 294 543 294 518 286 c 0,79,80
 479 274 479 274 479 235 c 0,81,82
 479 215 479 215 488.5 204.5 c 128,-1,83
 498 194 498 194 536 174 c 0,84,85
 599 141 599 141 599 89 c 0,86,87
 599 -20 599 -20 299.5 -20 c 128,-1,88
 0 -20 0 -20 0 101 c 0,89,90
 0 135 0 135 19 154.5 c 128,-1,91
 38 174 38 174 78 188 c 128,-1,92
 118 202 118 202 134 216 c 128,-1,93
 150 230 150 230 236 357 c 128,-1,94
 322 484 322 484 445 709 c 2,95,-1
 656 1096 l 2,96,97
 694 1164 694 1164 694 1197 c 1,98,-1
 692 1253 l 1,99,100
 692 1318 692 1318 756 1348 c 0,101,102
 786 1362 786 1362 815 1365 c 128,-1,103
 844 1368 844 1368 959 1368 c 2,13,-1
EndSplineSet
EndChar

StartChar: Oslash
Encoding: 216 216 141
Width: 1593
Flags: MW
LayerCount: 2
Fore
SplineSet
949 735 m 2,0,-1
 692 513 l 2,1,2
 658 483 658 483 658 463 c 128,-1,3
 658 443 658 443 706 371 c 0,4,5
 775 268 775 268 863.5 268 c 128,-1,6
 952 268 952 268 996.5 323.5 c 128,-1,7
 1041 379 1041 379 1041 472 c 128,-1,8
 1041 565 1041 565 1011 704 c 0,9,10
 999 757 999 757 984 757 c 0,11,12
 975 757 975 757 949 735 c 2,0,-1
641 637 m 2,13,-1
 899 860 l 2,14,15
 933 890 933 890 933 911 c 128,-1,16
 933 932 933 932 887 995 c 0,17,18
 806 1106 806 1106 710 1106 c 0,19,20
 640 1106 640 1106 592 1047 c 128,-1,21
 544 988 544 988 544 903.5 c 128,-1,22
 544 819 544 819 561.5 746 c 128,-1,23
 579 673 579 673 580 670 c 0,24,25
 589 615 589 615 608 615 c 0,26,27
 616 615 616 615 641 637 c 2,13,-1
1312 1219 m 2,28,-1
 1429 1319 l 2,29,30
 1441 1329 1441 1329 1461 1329 c 128,-1,31
 1481 1329 1481 1329 1498 1309 c 2,32,-1
 1513 1291 l 2,33,34
 1527 1273 1527 1273 1527 1254 c 128,-1,35
 1527 1235 1527 1235 1508 1218 c 2,36,-1
 1399 1126 l 2,37,38
 1388 1117 1388 1117 1388 1112 c 128,-1,39
 1388 1107 1388 1107 1402 1089 c 0,40,41
 1469 1001 1469 1001 1507.5 889.5 c 128,-1,42
 1546 778 1546 778 1546 668 c 0,43,44
 1546 424 1546 424 1390 239 c 0,45,46
 1258 82 1258 82 1045 14 c 0,47,48
 917 -28 917 -28 760.5 -28 c 128,-1,49
 604 -28 604 -28 436 56 c 0,50,51
 346 101 346 101 317 128.5 c 128,-1,52
 288 156 288 156 283 156 c 128,-1,53
 278 156 278 156 268 147 c 2,54,-1
 162 59 l 2,55,56
 142 43 142 43 126 43 c 128,-1,57
 110 43 110 43 95 59 c 2,58,-1
 73 83 l 2,59,60
 61 96 61 96 61 115 c 128,-1,61
 61 134 61 134 82 151 c 2,62,-1
 182 238 l 2,63,64
 192 247 192 247 192 251.5 c 128,-1,65
 192 256 192 256 179 273 c 0,66,67
 48 452.596774194 48 452.596774194 48 689.798387097 c 128,-1,68
 48 927 48 927 187 1114 c 0,69,70
 304 1272 304 1272 507 1343 c 0,71,72
 647 1392 647 1392 815 1392 c 128,-1,73
 983 1392 983 1392 1144 1312 c 0,74,75
 1232 1268 1232 1268 1260.5 1240 c 128,-1,76
 1289 1212 1289 1212 1296 1212 c 128,-1,77
 1303 1212 1303 1212 1312 1219 c 2,28,-1
EndSplineSet
EndChar

StartChar: infinity
Encoding: 8734 8734 142
Width: 1365
Flags: MW
LayerCount: 2
Fore
SplineSet
541 694 m 0,0,1
 478 773 478 773 419 773 c 0,2,3
 381 773 381 773 355 750 c 128,-1,4
 329 727 329 727 329 694.5 c 128,-1,5
 329 662 329 662 355.5 638.5 c 128,-1,6
 382 615 382 615 425 615 c 128,-1,7
 468 615 468 615 505.5 653.5 c 128,-1,8
 543 692 543 692 541 694 c 0,0,1
824 695 m 0,9,10
 886 615 886 615 945 615 c 0,11,12
 983 615 983 615 1009 638.5 c 128,-1,13
 1035 662 1035 662 1035 695 c 128,-1,14
 1035 728 1035 728 1008.5 751.5 c 128,-1,15
 982 775 982 775 939.5 775 c 128,-1,16
 897 775 897 775 859 736 c 128,-1,17
 821 697 821 697 824 695 c 0,9,10
690 509 m 1,18,19
 643 464 643 464 608 437 c 0,20,21
 502 357 502 357 358.5 357 c 128,-1,22
 215 357 215 357 116 465 c 0,23,24
 33 554 33 554 33 708 c 128,-1,25
 33 862 33 862 152 957 c 0,26,27
 245 1032 245 1032 378.5 1032 c 128,-1,28
 512 1032 512 1032 617 935 c 0,29,30
 667 889 667 889 676 882 c 1,31,32
 777.470588235 973.323529412 777.470588235 973.323529412 841.735294118 1002.66176471 c 128,-1,33
 906 1032 906 1032 988.5 1032 c 128,-1,34
 1071 1032 1071 1032 1143.5 999.5 c 0,35,36
 1331 915.448275862 1331 915.448275862 1331 696 c 0,37,38
 1331 536 1331 536 1229.5 446.5 c 128,-1,39
 1128 357 1128 357 986 357 c 128,-1,40
 844 357 844 357 725 474 c 0,41,42
 699 501 699 501 690 509 c 1,18,19
EndSplineSet
EndChar

StartChar: plusminus
Encoding: 177 177 143
Width: 1229
Flags: MW
LayerCount: 2
Fore
SplineSet
248 266 m 1,0,-1
 441 255 l 1,1,-1
 947 255 l 2,2,3
 1025 255 1025 255 1043.5 257.5 c 128,-1,4
 1062 260 1062 260 1067 260 c 0,5,6
 1106 260 1106 260 1106 220 c 0,7,8
 1106 198 1106 198 1089 142.5 c 128,-1,9
 1072 87 1072 87 1051 47 c 128,-1,10
 1030 7 1030 7 997 7 c 1,11,-1
 838 21 l 1,12,-1
 390 21 l 1,13,-1
 169 15 l 2,14,15
 150 15 150 15 136.5 26.5 c 128,-1,16
 123 38 123 38 123 54.5 c 128,-1,17
 123 71 123 71 144.5 132 c 128,-1,18
 166 193 166 193 186.5 229.5 c 128,-1,19
 207 266 207 266 248 266 c 1,0,-1
487 362 m 2,20,-1
 494 582 l 1,21,-1
 494 595 l 1,22,23
 497 652 497 652 439 650 c 1,24,-1
 390 650 l 2,25,26
 264 650 264 650 221 646.5 c 128,-1,27
 178 643 178 643 164 643 c 128,-1,28
 150 643 150 643 136.5 654.5 c 128,-1,29
 123 666 123 666 123 682.5 c 128,-1,30
 123 699 123 699 144.5 760 c 128,-1,31
 166 821 166 821 186.5 858 c 128,-1,32
 207 895 207 895 247 895 c 1,33,-1
 414 884 l 1,34,-1
 441 884 l 2,35,36
 495 884 495 884 494 938 c 1,37,-1
 494 948 l 1,38,39
 493 1010 493 1010 486.5 1053 c 128,-1,40
 480 1096 480 1096 480 1107 c 0,41,42
 480 1143 480 1143 530 1165 c 0,43,44
 645.909090909 1216 645.909090909 1216 693.954545455 1216 c 128,-1,45
 742 1216 742 1216 742 1177 c 0,46,47
 742 1173 742 1173 739.5 1155.5 c 128,-1,48
 737 1138 737 1138 737 1057 c 2,49,-1
 737 938 l 1,50,51
 738 885 738 885 792 884 c 1,52,-1
 947 884 l 2,53,54
 1023 884 1023 884 1042 886.5 c 128,-1,55
 1061 889 1061 889 1067 889 c 0,56,57
 1106 889 1106 889 1106 849 c 0,58,59
 1106 827 1106 827 1089 771.5 c 128,-1,60
 1072 716 1072 716 1051 676 c 128,-1,61
 1030 636 1030 636 997 636 c 1,62,-1
 838 650 l 1,63,-1
 792 650 l 2,64,65
 736 650 736 650 736 601 c 0,66,67
 736 593 736 593 738 575 c 2,68,-1
 749 439 l 1,69,70
 749 395 749 395 688 366 c 0,71,72
 655 351 655 351 598.5 333 c 128,-1,73
 542 315 542 315 526 315 c 128,-1,74
 510 315 510 315 498.5 328.5 c 128,-1,75
 487 342 487 342 487 362 c 2,20,-1
EndSplineSet
EndChar

StartChar: lessequal
Encoding: 8804 8804 144
Width: 1024
Flags: MW
LayerCount: 2
Fore
SplineSet
955 371 m 1,0,-1
 955 -21 l 1,1,-1
 68 -21 l 1,2,-1
 68 371 l 1,3,-1
 955 371 l 1,0,-1
955 1417 m 1,4,-1
 955 1000 l 1,5,-1
 555 918 l 1,6,-1
 953 838 l 1,7,-1
 955 421 l 1,8,-1
 68 734 l 1,9,-1
 68 1106 l 1,10,-1
 955 1417 l 1,4,-1
EndSplineSet
EndChar

StartChar: greaterequal
Encoding: 8805 8805 145
Width: 1024
Flags: MW
LayerCount: 2
Fore
SplineSet
68 -21 m 1,0,-1
 68 371 l 1,1,-1
 955 371 l 1,2,-1
 955 -21 l 1,3,-1
 68 -21 l 1,0,-1
68 421 m 1,4,-1
 70 838 l 1,5,-1
 468 918 l 1,6,-1
 68 1000 l 1,7,-1
 68 1417 l 1,8,-1
 955 1106 l 1,9,-1
 955 734 l 1,10,-1
 68 421 l 1,4,-1
EndSplineSet
EndChar

StartChar: yen
Encoding: 165 165 146
Width: 1229
Flags: MW
LayerCount: 2
Fore
SplineSet
970 853 m 2,0,-1
 1062 856 l 1,1,2
 1104 856 1104 856 1127 839 c 128,-1,3
 1150 822 1150 822 1150 778 c 0,4,5
 1150 715 1150 715 1072 717 c 0,6,7
 1039 718 1039 718 1016 716 c 1,8,-1
 913 716 l 1,9,10
 853 712 853 712 846.5 704.5 c 128,-1,11
 840 697 840 697 830.5 653.5 c 128,-1,12
 821 610 821 610 821 578.5 c 128,-1,13
 821 547 821 547 847 547 c 2,14,-1
 965 547 l 1,15,-1
 1028 549 l 1,16,17
 1085 549 1085 549 1107 532 c 128,-1,18
 1129 515 1129 515 1129 471 c 0,19,20
 1129 407 1129 407 1049 410 c 0,21,22
 1013 411 1013 411 996 409 c 1,23,-1
 888 409 l 2,24,25
 849 409 849 409 836.5 402.5 c 128,-1,26
 824 396 824 396 824 366 c 128,-1,27
 824 336 824 336 830 291 c 128,-1,28
 836 246 836 246 849.5 228 c 128,-1,29
 863 210 863 210 897 192 c 0,30,31
 962 157 962 157 962 105 c 0,32,33
 962 -20 962 -20 600 -20 c 0,34,35
 451 -20 451 -20 330 7 c 128,-1,36
 209 34 209 34 209 107 c 0,37,38
 209 165 209 165 269.5 187 c 128,-1,39
 330 209 330 209 339 232.5 c 128,-1,40
 348 256 348 256 356.5 301.5 c 128,-1,41
 365 347 365 347 365 368 c 0,42,43
 365 402 365 402 325 399 c 2,44,-1
 312 398 l 1,45,-1
 259 398 l 1,46,-1
 197 396 l 1,47,48
 144 396 144 396 122 414 c 128,-1,49
 100 432 100 432 100 474.5 c 128,-1,50
 100 517 100 517 123.5 528.5 c 128,-1,51
 147 540 147 540 229 540 c 2,52,-1
 317 540 l 2,53,54
 349 540 349 540 359.5 546 c 128,-1,55
 370 552 370 552 370 586.5 c 128,-1,56
 370 621 370 621 354.5 663 c 128,-1,57
 339 705 339 705 311 705 c 1,58,-1
 287 704 l 1,59,-1
 238 704 l 1,60,-1
 202 703 l 1,61,-1
 178 702 l 1,62,63
 124 702 124 702 102 720 c 128,-1,64
 80 738 80 738 80 779.5 c 128,-1,65
 80 821 80 821 99.5 833 c 128,-1,66
 119 845 119 845 167 845.5 c 128,-1,67
 215 846 215 846 222.5 849 c 128,-1,68
 230 852 230 852 230 865 c 128,-1,69
 230 878 230 878 214.5 897 c 128,-1,70
 199 916 199 916 180 942 c 0,71,72
 103 1046 103 1046 58.5 1067 c 128,-1,73
 14 1088 14 1088 1.5 1103.5 c 128,-1,74
 -11 1119 -11 1119 -11 1153 c 0,75,76
 -11 1219 -11 1219 64.5 1246 c 128,-1,77
 140 1273 140 1273 314 1273 c 128,-1,78
 488 1273 488 1273 552 1259 c 0,79,80
 665 1234.28125 665 1234.28125 665 1167 c 0,81,82
 665 1140 665 1140 633.5 1110 c 128,-1,83
 602 1080 602 1080 602 1054 c 128,-1,84
 602 1028 602 1028 644.5 968.5 c 128,-1,85
 687 909 687 909 718.5 909 c 128,-1,86
 750 909 750 909 792.5 965 c 128,-1,87
 835 1021 835 1021 835 1042 c 128,-1,88
 835 1063 835 1063 829.5 1071 c 128,-1,89
 824 1079 824 1079 797 1106 c 128,-1,90
 770 1133 770 1133 770 1170 c 0,91,92
 770 1272 770 1272 1020 1272 c 0,93,94
 1141 1272 1141 1272 1174 1260 c 0,95,96
 1240 1236 1240 1236 1240 1166 c 0,97,98
 1240 1129 1240 1129 1223.5 1110.5 c 128,-1,99
 1207 1092 1207 1092 1170 1082 c 128,-1,100
 1133 1072 1133 1072 1108.5 1052.5 c 128,-1,101
 1084 1033 1084 1033 1019.5 954.166666667 c 128,-1,102
 955 875.333333333 955 875.333333333 955 864.166666667 c 128,-1,103
 955 853 955 853 970 853 c 2,0,-1
EndSplineSet
EndChar

StartChar: mu
Encoding: 181 181 147
Width: 1229
Flags: MW
LayerCount: 2
Fore
SplineSet
143 -128 m 1,0,-1
 135 -44 l 1,1,-1
 135 427 l 2,2,3
 135 584 135 584 125 625.5 c 128,-1,4
 115 667 115 667 75.5 688 c 128,-1,5
 36 709 36 709 27 719.5 c 128,-1,6
 18 730 18 730 18 749 c 0,7,8
 18 816 18 816 120 838 c 0,9,10
 293 876 293 876 468 876 c 0,11,12
 519 876 519 876 519 832 c 2,13,-1
 519 352 l 2,14,15
 519 197 519 197 620 197 c 0,16,17
 682.859375 197 682.859375 197 710.5 258 c 0,18,19
 725 290 725 290 725 436.5 c 128,-1,20
 725 583 725 583 718 620.5 c 128,-1,21
 711 658 711 658 702.5 668.5 c 128,-1,22
 694 679 694 679 669 692 c 0,23,24
 618 718 618 718 618 759 c 0,25,26
 618 814 618 814 705 836 c 0,27,28
 869 876 869 876 1030 876 c 0,29,30
 1120 876 1120 876 1120 781 c 1,31,-1
 1118 699 l 1,32,-1
 1116 637 l 1,33,-1
 1116 247 l 2,34,35
 1116 217 1116 217 1163 194 c 128,-1,36
 1210 171 1210 171 1210 132 c 0,37,38
 1210 56 1210 56 1043 13 c 0,39,40
 924 -18 924 -18 844.5 -18 c 128,-1,41
 765 -18 765 -18 749.5 -8 c 128,-1,42
 734 2 734 2 730.5 43 c 128,-1,43
 727 84 727 84 699 84 c 0,44,45
 685 84 685 84 619.5 39.5 c 128,-1,46
 554 -5 554 -5 488 -14 c 1,47,48
 482 -166 482 -166 449 -222.5 c 128,-1,49
 416 -279 416 -279 341.5 -314.5 c 128,-1,50
 267 -350 267 -350 185.5 -350 c 128,-1,51
 104 -350 104 -350 49.5 -316 c 128,-1,52
 -5 -282 -5 -282 -5 -230 c 0,53,54
 -5 -205 -5 -205 7.5 -189 c 128,-1,55
 20 -173 20 -173 38 -173 c 1,56,-1
 87 -179 l 1,57,58
 110 -179 110 -179 126.5 -164 c 128,-1,59
 143 -149 143 -149 143 -128 c 1,0,-1
EndSplineSet
EndChar

StartChar: partialdiff
Encoding: 8706 8706 148
Width: 1024
Flags: MW
LayerCount: 2
Fore
SplineSet
593 533 m 128,-1,1
 557 570 557 570 505 570.5 c 128,-1,2
 453 571 453 571 418 534.5 c 128,-1,3
 383 498 383 498 383 444.5 c 128,-1,4
 383 391 383 391 419 354.5 c 128,-1,5
 455 318 455 318 506 318 c 128,-1,6
 557 318 557 318 593 355 c 128,-1,7
 629 392 629 392 629 444 c 128,-1,0
 629 496 629 496 593 533 c 128,-1,1
76 1026 m 1,8,-1
 123 1349 l 1,9,10
 537 1314 537 1314 764 1129 c 0,11,12
 1011 930 1011 930 1011 588 c 128,-1,13
 1011 246 1011 246 822 91 c 0,14,15
 691 -16 691 -16 485.5 -16 c 128,-1,16
 280 -16 280 -16 155 106 c 0,17,18
 86 173 86 173 46.5 272 c 128,-1,19
 7 371 7 371 7 471.5 c 128,-1,20
 7 572 7 572 49.5 657.5 c 128,-1,21
 92 743 92 743 168 801 c 0,22,23
 275 881 275 881 418.761904762 881 c 128,-1,24
 562.523809524 881 562.523809524 881 615 843 c 1,25,26
 589 897 589 897 556 920.5 c 128,-1,27
 523 944 523 944 399.452095808 982.43712575 c 128,-1,28
 275.904191617 1020.8742515 275.904191617 1020.8742515 76 1026 c 1,8,-1
EndSplineSet
EndChar

StartChar: summation
Encoding: 8721 8721 149
Width: 1365
Flags: MW
LayerCount: 2
Fore
SplineSet
1318 1536 m 1,0,-1
 1318 965 l 1,1,-1
 938 965 l 1,2,-1
 890 1147 l 1,3,-1
 544 1147 l 1,4,-1
 1027 537 l 1,5,-1
 548 -123 l 1,6,-1
 908 -123 l 1,7,-1
 935 76 l 1,8,-1
 1336 76 l 1,9,-1
 1336 -512 l 1,10,-1
 68 -512 l 1,11,-1
 68 -65 l 1,12,-1
 525 536 l 1,13,-1
 68 1086 l 1,14,-1
 68 1536 l 1,15,-1
 1318 1536 l 1,0,-1
EndSplineSet
EndChar

StartChar: product
Encoding: 8719 8719 150
Width: 1365
Flags: MW
LayerCount: 2
Fore
SplineSet
23 1536 m 1,0,-1
 1342 1536 l 1,1,-1
 1342 1199 l 1,2,-1
 1198 1199 l 1,3,-1
 1198 -174 l 1,4,-1
 1342 -174 l 1,5,-1
 1342 -512 l 1,6,-1
 708 -512 l 1,7,-1
 708 -174 l 1,8,-1
 820 -174 l 1,9,-1
 820 1199 l 1,10,-1
 544 1199 l 1,11,-1
 544 -174 l 1,12,-1
 654 -174 l 1,13,-1
 654 -512 l 1,14,-1
 23 -512 l 1,15,-1
 23 -174 l 1,16,-1
 170 -174 l 1,17,-1
 170 1199 l 1,18,-1
 23 1199 l 1,19,-1
 23 1536 l 1,0,-1
EndSplineSet
EndChar

StartChar: pi
Encoding: 960 960 151
Width: 1397
Flags: MW
LayerCount: 2
Fore
SplineSet
192 0 m 1,0,-1
 192 673 l 1,1,-1
 42 673 l 1,2,-1
 42 983 l 1,3,-1
 1354 983 l 1,4,-1
 1354 673 l 1,5,-1
 1205 673 l 1,6,-1
 1205 0 l 1,7,-1
 810 0 l 1,8,-1
 810 673 l 1,9,-1
 587 673 l 1,10,-1
 587 0 l 1,11,-1
 192 0 l 1,0,-1
EndSplineSet
EndChar

StartChar: integral
Encoding: 8747 8747 152
Width: 1024
Flags: MW
LayerCount: 2
Fore
SplineSet
-2 -492 m 1,0,-1
 64 -90 l 1,1,2
 121 -111 121 -111 159.5 -111 c 128,-1,3
 198 -111 198 -111 229.5 -91.5 c 128,-1,4
 261 -72 261 -72 271 -46 c 128,-1,5
 281 -20 281 -20 282.5 11.5 c 128,-1,6
 284 43 284 43 284 214 c 2,7,-1
 284 856 l 2,8,9
 284 1038 284 1038 296 1139.5 c 128,-1,10
 308 1241 308 1241 365 1327 c 0,11,12
 504 1537 504 1537 811 1537 c 0,13,14
 895 1537 895 1537 1027 1516 c 1,15,-1
 961 1114 l 1,16,17
 902 1135 902 1135 864 1135 c 0,18,19
 781 1135 781 1135 752 1064 c 0,20,21
 741 1039 741 1039 741 954 c 2,22,-1
 741 306 l 2,23,24
 741 35 741 35 739.5 -19 c 0,25,26
 732.000190223 -288.993151988 732.000190223 -288.993151988 544 -424 c 0,27,28
 419 -514 419 -514 213 -514 c 0,29,30
 124 -514 124 -514 69.5 -503.5 c 128,-1,31
 15 -493 15 -493 -2 -492 c 1,0,-1
EndSplineSet
EndChar

StartChar: ordfeminine
Encoding: 170 170 153
Width: 777
Flags: MW
LayerCount: 2
Fore
SplineSet
393 749 m 0,0,1
 393 793 393 793 366 793 c 128,-1,2
 339 793 339 793 320 773.5 c 128,-1,3
 301 754 301 754 301 728 c 0,4,5
 301 671 301 671 347 671 c 128,-1,6
 393 671 393 671 393 749 c 0,0,1
408 1148 m 0,7,8
 550 1148 550 1148 626 1073 c 0,9,10
 676 1025 676 1025 676 927 c 1,11,-1
 675 843 l 1,12,13
 675 758 675 758 683.5 733.5 c 128,-1,14
 692 709 692 709 724 705 c 0,15,16
 750 701 750 701 750 673 c 0,17,18
 750 620 750 620 688 575 c 128,-1,19
 626 530 626 530 554.5 530 c 128,-1,20
 483 530 483 530 443 575 c 0,21,22
 432 588 432 588 422.5 588 c 128,-1,23
 413 588 413 588 393 575 c 0,24,25
 327 530 327 530 242.5 530 c 128,-1,26
 158 530 158 530 105 564 c 0,27,28
 28 614 28 614 28 699.5 c 128,-1,29
 28 785 28 785 114 838 c 128,-1,30
 200 891 200 891 339 891 c 0,31,32
 372 891 372 891 380 896 c 128,-1,33
 388 901 388 901 388 922 c 0,34,35
 388 1034 388 1034 335 1034 c 0,36,37
 305 1034 305 1034 269 987 c 0,38,39
 210 910 210 910 145 910 c 0,40,41
 110 910 110 910 88.5 929.5 c 128,-1,42
 67 949 67 949 67 988 c 128,-1,43
 67 1027 67 1027 121.5 1065.5 c 128,-1,44
 176 1104 176 1104 255 1126 c 128,-1,45
 334 1148 334 1148 408 1148 c 0,7,8
EndSplineSet
EndChar

StartChar: ordmasculine
Encoding: 186 186 154
Width: 823
Flags: MW
LayerCount: 2
Fore
SplineSet
386 998 m 0,0,1
 331 998 331 998 331 935 c 0,2,3
 331 889 331 889 352.5 810.5 c 128,-1,4
 374 732 374 732 392 710 c 128,-1,5
 410 688 410 688 435 688 c 0,6,7
 487 688 487 688 487 747.5 c 128,-1,8
 487 807 487 807 468 879 c 128,-1,9
 449 951 449 951 429.5 974.5 c 128,-1,10
 410 998 410 998 386 998 c 0,0,1
437 1148 m 0,11,12
 557 1148 557 1148 634 1099 c 0,13,14
 791 999.090909091 791 999.090909091 791 840 c 0,15,16
 791 708 791 708 664 619 c 128,-1,17
 537 530 537 530 381 530 c 128,-1,18
 225 530 225 530 128.5 610.5 c 128,-1,19
 32 691 32 691 32 827 c 128,-1,20
 32 963 32 963 150 1055.5 c 128,-1,21
 268 1148 268 1148 437 1148 c 0,11,12
EndSplineSet
EndChar

StartChar: uni03A9
Encoding: 937 937 155
Width: 1365
Flags: MW
LayerCount: 2
Fore
SplineSet
56 0 m 1,0,-1
 56 367 l 1,1,-1
 259 367 l 1,2,3
 173 424 173 424 131 479 c 0,4,5
 46 590 46 590 46 759.5 c 128,-1,6
 46 929 46 929 131 1083 c 128,-1,7
 216 1237 216 1237 364 1318 c 128,-1,8
 512 1399 512 1399 683 1399 c 0,9,10
 971 1399 971 1399 1153 1198 c 0,11,12
 1233 1110 1233 1110 1276.5 994 c 128,-1,13
 1320 878 1320 878 1320 763 c 0,14,15
 1320 581 1320 581 1225 466 c 0,16,17
 1188 421 1188 421 1107 367 c 1,18,-1
 1310 367 l 1,19,-1
 1310 0 l 1,20,-1
 742 0 l 1,21,-1
 742 337 l 1,22,23
 825 377 825 377 857.5 456.166666667 c 0,24,25
 890 535.333333333 890 535.333333333 890 727.651515152 c 0,26,27
 890 919.96969697 890 919.96969697 784.5 993.5 c 0,28,29
 735 1028 735 1028 683.5 1028 c 128,-1,30
 632 1028 632 1028 583 993.5 c 0,31,32
 477 918.867346939 477 918.867346939 477 699 c 0,33,34
 477 544 477 544 512 459 c 128,-1,35
 547 374 547 374 625 337 c 1,36,-1
 625 0 l 1,37,-1
 56 0 l 1,0,-1
EndSplineSet
EndChar

StartChar: ae
Encoding: 230 230 156
Width: 1637
Flags: MW
LayerCount: 2
Fore
SplineSet
582.5 405 m 128,-1,1
 572 425 572 425 533 425.5 c 128,-1,2
 494 426 494 426 462.5 390.5 c 128,-1,3
 431 355 431 355 431 307 c 128,-1,4
 431 259 431 259 455 227 c 128,-1,5
 479 195 479 195 514 195 c 0,6,7
 593 195 593 195 593 322 c 0,8,0
 593 385 593 385 582.5 405 c 128,-1,1
1062 653 m 2,9,-1
 1187 653 l 2,10,11
 1215 653 1215 653 1225.5 663.5 c 128,-1,12
 1236 674 1236 674 1236 716 c 128,-1,13
 1236 758 1236 758 1205 792.5 c 128,-1,14
 1174 827 1174 827 1123 827 c 128,-1,15
 1072 827 1072 827 1038 788 c 128,-1,16
 1004 749 1004 749 1004 710.5 c 128,-1,17
 1004 672 1004 672 1015.5 662.5 c 128,-1,18
 1027 653 1027 653 1062 653 c 2,9,-1
1496 468 m 2,19,-1
 1049 468 l 2,20,21
 1028 468 1028 468 1021.5 462.5 c 128,-1,22
 1015 457 1015 457 1015 440 c 0,23,24
 1015 387 1015 387 1063 333 c 0,25,26
 1135 253 1135 253 1237 253 c 0,27,28
 1287 253 1287 253 1349.5 273.5 c 128,-1,29
 1412 294 1412 294 1449 321 c 128,-1,30
 1486 348 1486 348 1505.5 348 c 128,-1,31
 1525 348 1525 348 1552 310.5 c 128,-1,32
 1579 273 1579 273 1579 237 c 128,-1,33
 1579 201 1579 201 1545.5 157 c 128,-1,34
 1512 113 1512 113 1454 75 c 0,35,36
 1296 -27 1296 -27 1113 -27 c 0,37,38
 1028 -27 1028 -27 940 1 c 128,-1,39
 852 29 852 29 813 60 c 128,-1,40
 774 91 774 91 765 91 c 128,-1,41
 756 91 756 91 701 62.5 c 128,-1,42
 646 34 646 34 535 3.5 c 128,-1,43
 424 -27 424 -27 349 -27 c 0,44,45
 208 -27 208 -27 117.5 41.5 c 128,-1,46
 27 110 27 110 27 239 c 0,47,48
 27 420 27 420 211 508 c 0,49,50
 278 540 278 540 340 552 c 128,-1,51
 402 564 402 564 528 569 c 0,52,53
 562 570 562 570 571 584 c 128,-1,54
 580 598 580 598 580 666.5 c 128,-1,55
 580 735 580 735 554.5 784.5 c 128,-1,56
 529 834 529 834 492 834 c 128,-1,57
 455 834 455 834 428.5 812.5 c 128,-1,58
 402 791 402 791 361 731.5 c 0,59,60
 280.722689076 615 280.722689076 615 190 615 c 0,61,62
 141 615 141 615 108.5 644.5 c 128,-1,63
 76 674 76 674 76 727.5 c 128,-1,64
 76 781 76 781 135 838.5 c 128,-1,65
 194 896 194 896 321 946.5 c 128,-1,66
 448 997 448 997 586.888888889 997 c 128,-1,67
 725.777777778 997 725.777777778 997 826 953 c 0,68,69
 847 943 847 943 854 943 c 128,-1,70
 861 943 861 943 894 957 c 128,-1,71
 927 971 927 971 999.5 983.5 c 128,-1,72
 1072 996 1072 996 1136 996 c 0,73,74
 1304 996 1304 996 1429 911 c 0,75,76
 1514 854 1514 854 1562 773 c 128,-1,77
 1610 692 1610 692 1610 614 c 128,-1,78
 1610 536 1610 536 1589 508 c 128,-1,79
 1568 480 1568 480 1551 474 c 128,-1,80
 1534 468 1534 468 1496 468 c 2,19,-1
EndSplineSet
EndChar

StartChar: oslash
Encoding: 248 248 157
Width: 1233
Flags: MW
LayerCount: 2
Fore
SplineSet
482 657 m 1,0,-1
 494 536 l 2,1,2
 498 497 498 497 516 497 c 0,3,4
 523 497 523 497 540 510 c 2,5,-1
 672 606 l 2,6,7
 690 619 690 619 690 631 c 128,-1,8
 690 643 690 643 676 679 c 0,9,10
 642 766 642 766 572 766 c 0,11,12
 532 766 532 766 507 736 c 128,-1,13
 482 706 482 706 482 657 c 1,0,-1
655.5 219 m 0,14,15
 748 219 748 219 748 333 c 0,16,17
 748 386 748 386 739.5 438 c 128,-1,18
 731 490 731 490 721.5 490 c 128,-1,19
 712 490 712 490 691 474 c 2,20,-1
 560 376 l 2,21,22
 541 363 541 363 541 343 c 128,-1,23
 541 323 541 323 575.5 271 c 128,-1,24
 610 219 610 219 655.5 219 c 0,14,15
1184 836 m 2,25,-1
 1123 790 l 2,26,27
 1110 780 1110 780 1110 772 c 128,-1,28
 1110 764 1110 764 1119 750 c 0,29,30
 1199 632 1199 632 1199 492 c 0,31,32
 1199 263 1199 263 1003.5 118 c 128,-1,33
 808 -27 808 -27 583.5 -27 c 128,-1,34
 359 -27 359 -27 206 82 c 0,35,36
 189 94 189 94 180 94 c 128,-1,37
 171 94 171 94 147 76 c 2,38,-1
 88 33 l 2,39,40
 75 24 75 24 57 24 c 128,-1,41
 39 24 39 24 18.5 46.5 c 128,-1,42
 -2 69 -2 69 -2 90.5 c 128,-1,43
 -2 112 -2 112 19 128 c 2,44,-1
 73 168 l 2,45,46
 96 186 96 186 96 195 c 128,-1,47
 96 204 96 204 85 224 c 0,48,49
 34 319 34 319 34 458 c 0,50,51
 34 692 34 692 210.5 844 c 128,-1,52
 387 996 387 996 649 996 c 0,53,54
 864 996 864 996 996 887 c 0,55,56
 1016 871 1016 871 1024.5 871 c 128,-1,57
 1033 871 1033 871 1046 880 c 2,58,-1
 1116 932 l 2,59,60
 1133 945 1133 945 1150.5 945 c 128,-1,61
 1168 945 1168 945 1188 921.5 c 128,-1,62
 1208 898 1208 898 1208 876 c 128,-1,63
 1208 854 1208 854 1184 836 c 2,25,-1
EndSplineSet
EndChar

StartChar: questiondown
Encoding: 191 191 158
Width: 987
Flags: MW
LayerCount: 2
Fore
SplineSet
424.5 444.5 m 128,-1,1
 452 465 452 465 513 465 c 128,-1,2
 574 465 574 465 609 430 c 128,-1,3
 644 395 644 395 644 337 c 128,-1,4
 644 279 644 279 627 240.5 c 128,-1,5
 610 202 610 202 542.5 100.5 c 128,-1,6
 475 -1 475 -1 475 -87 c 0,7,8
 475 -130 475 -130 494.5 -157.5 c 128,-1,9
 514 -185 514 -185 544.5 -185 c 128,-1,10
 575 -185 575 -185 588 -165.5 c 128,-1,11
 601 -146 601 -146 607 -92 c 0,12,13
 617 10 617 10 674 63.5 c 128,-1,14
 731 117 731 117 809 117 c 128,-1,15
 887 117 887 117 930 78.5 c 128,-1,16
 973 40 973 40 973 -24 c 0,17,18
 973 -136 973 -136 884 -241 c 0,19,20
 823 -313 823 -313 721 -354 c 128,-1,21
 619 -395 619 -395 503.5 -395 c 128,-1,22
 388 -395 388 -395 271 -346 c 128,-1,23
 154 -297 154 -297 87 -209 c 128,-1,24
 20 -121 20 -121 20 -13 c 128,-1,25
 20 95 20 95 115 174 c 0,26,27
 140 195 140 195 222.5 236 c 128,-1,28
 305 277 305 277 327.5 297.5 c 128,-1,29
 350 318 350 318 373.5 371 c 128,-1,0
 397 424 397 424 424.5 444.5 c 128,-1,1
374.5 931.5 m 128,-1,31
 438 995 438 995 526 995.5 c 128,-1,32
 614 996 614 996 679 934.5 c 128,-1,33
 744 873 744 873 744 783 c 128,-1,34
 744 693 744 693 682 628 c 128,-1,35
 620 563 620 563 527.5 563 c 128,-1,36
 435 563 435 563 373 628 c 128,-1,37
 311 693 311 693 311 780.5 c 128,-1,30
 311 868 311 868 374.5 931.5 c 128,-1,31
EndSplineSet
EndChar

StartChar: exclamdown
Encoding: 161 161 159
Width: 631
Flags: MW
LayerCount: 2
Fore
SplineSet
320 453 m 0,0,1
 361 453 361 453 433 320 c 0,2,3
 550 105 550 105 550 -95 c 0,4,5
 550 -208 550 -208 499 -286 c 0,6,7
 437 -382 437 -382 316 -382 c 0,8,9
 227 -382 227 -382 164 -318 c 0,10,11
 82 -233 82 -233 82 -80 c 0,12,13
 82 21 82 21 118 140 c 128,-1,14
 154 259 154 259 216 355.5 c 128,-1,15
 278 452 278 452 320 453 c 0,0,1
162.5 931.5 m 128,-1,17
 226 995 226 995 314 995.5 c 128,-1,18
 402 996 402 996 467 934.5 c 128,-1,19
 532 873 532 873 532 783 c 128,-1,20
 532 693 532 693 470 628 c 128,-1,21
 408 563 408 563 315.5 563 c 128,-1,22
 223 563 223 563 161 628 c 128,-1,23
 99 693 99 693 99 780.5 c 128,-1,16
 99 868 99 868 162.5 931.5 c 128,-1,17
EndSplineSet
EndChar

StartChar: logicalnot
Encoding: 172 172 160
Width: 1024
Flags: MW
LayerCount: 2
Fore
SplineSet
518 0 m 1,0,-1
 518 229 l 1,1,-1
 68 229 l 1,2,-1
 68 621 l 1,3,-1
 955 621 l 1,4,-1
 955 0 l 1,5,-1
 518 0 l 1,0,-1
EndSplineSet
EndChar

StartChar: radical
Encoding: 8730 8730 161
Width: 1365
Flags: MW
LayerCount: 2
Fore
SplineSet
1365 1693 m 1,0,-1
 1365 1344 l 1,1,-1
 1066 1344 l 1,2,-1
 777 0 l 1,3,-1
 274 0 l 1,4,-1
 197 453 l 1,5,-1
 0 453 l 1,6,-1
 0 802 l 1,7,-1
 435 802 l 1,8,-1
 465 645 l 2,9,10
 472 609 472 609 479.5 518 c 128,-1,11
 487 427 487 427 487 398.5 c 128,-1,12
 487 370 487 370 486 343 c 1,13,-1
 511 343 l 1,14,15
 509 523 509 523 582 918 c 1,16,-1
 756 1693 l 1,17,-1
 1365 1693 l 1,0,-1
EndSplineSet
EndChar

StartChar: florin
Encoding: 402 402 162
Width: 1229
Flags: MW
LayerCount: 2
Fore
SplineSet
882 1113 m 0,0,1
 794 1113 794 1113 794 926 c 0,2,3
 794 878 794 878 808.5 863 c 128,-1,4
 823 848 823 848 851 848 c 2,5,-1
 889 848 l 1,6,7
 905 849 905 849 920 849 c 0,8,9
 963 849 963 849 963 800.5 c 128,-1,10
 963 752 963 752 946 711 c 128,-1,11
 929 670 929 670 909 670 c 2,12,-1
 821 673 l 1,13,14
 773 662 773 662 764.5 550 c 128,-1,15
 756 438 756 438 714 136 c 0,16,17
 696 8 696 8 661 -70.5 c 128,-1,18
 626 -149 626 -149 557 -214 c 0,19,20
 423 -341 423 -341 247.5 -341 c 128,-1,21
 72 -341 72 -341 -33 -241 c 0,22,23
 -89 -188 -89 -188 -89 -122.5 c 128,-1,24
 -89 -57 -89 -57 -51 -17 c 128,-1,25
 -13 23 -13 23 41.5 23 c 128,-1,26
 96 23 96 23 125.5 -4.5 c 128,-1,27
 155 -32 155 -32 155 -60 c 2,28,-1
 154 -109 l 2,29,30
 154 -130 154 -130 169.5 -144 c 128,-1,31
 185 -158 185 -158 207 -158 c 0,32,33
 254 -158 254 -158 278 -109.5 c 128,-1,34
 302 -61 302 -61 325 69 c 128,-1,35
 348 199 348 199 366.5 378.5 c 128,-1,36
 385 558 385 558 385 608 c 128,-1,37
 385 658 385 658 375.5 666 c 128,-1,38
 366 674 366 674 351 674 c 2,39,-1
 331 674 l 1,40,41
 302 671 302 671 295 671 c 0,42,43
 273 671 273 671 273 697 c 0,44,45
 273 804.409090909 273 804.409090909 303 838.5 c 0,46,47
 314 851 314 851 323 851 c 2,48,-1
 386 848 l 2,49,50
 422 846 422 846 429 892 c 0,51,52
 443 997 443 997 462.5 1045.5 c 128,-1,53
 482 1094 482 1094 529 1146 c 0,54,55
 660 1291 660 1291 858 1291 c 0,56,57
 1006 1291 1006 1291 1095.5 1219.5 c 128,-1,58
 1185 1148 1185 1148 1185 1053 c 0,59,60
 1185 1001 1185 1001 1143 963.5 c 128,-1,61
 1101 926 1101 926 1049.5 926 c 128,-1,62
 998 926 998 926 966 954 c 128,-1,63
 934 982 934 982 934 1022 c 2,64,-1
 934 1038 l 1,65,66
 935 1050 935 1050 935 1065 c 128,-1,67
 935 1080 935 1080 920.5 1096.5 c 128,-1,68
 906 1113 906 1113 882 1113 c 0,0,1
EndSplineSet
EndChar

StartChar: approxequal
Encoding: 8776 8776 163
Width: 1024
Flags: MW
LayerCount: 2
Fore
SplineSet
224 180 m 1,0,-1
 13 330 l 1,1,2
 57 445 57 445 99 508 c 0,3,4
 197 656 197 656 344 656 c 0,5,6
 380 656 380 656 408 648.5 c 128,-1,7
 436 641 436 641 554 601 c 128,-1,8
 672 561 672 561 696 561 c 0,9,10
 755 561 755 561 801 633 c 1,11,-1
 1012 483 l 1,12,13
 971 380 971 380 942 330 c 0,14,15
 839.34 153 839.34 153 682 153 c 0,16,17
 637 153 637 153 495.5 202 c 128,-1,18
 354 251 354 251 325 251 c 0,19,20
 273 251 273 251 224 180 c 1,0,-1
224 713 m 1,21,-1
 13 863 l 1,22,23
 57 978 57 978 99 1041 c 0,24,25
 197 1189 197 1189 344 1189 c 0,26,27
 380 1189 380 1189 408 1181.5 c 128,-1,28
 436 1174 436 1174 554 1134 c 128,-1,29
 672 1094 672 1094 696 1094 c 0,30,31
 754 1094 754 1094 801 1166 c 1,32,-1
 1012 1016 l 1,33,34
 971 913 971 913 942 862.5 c 0,35,36
 840.643564356 686 840.643564356 686 682 686 c 0,37,38
 630 686 630 686 493 735 c 128,-1,39
 356 784 356 784 326 784 c 0,40,41
 274 784 274 784 224 713 c 1,21,-1
EndSplineSet
EndChar

StartChar: Delta
Encoding: 916 916 164
Width: 1378
Flags: MW
LayerCount: 2
Fore
SplineSet
557 367 m 1,0,-1
 811 367 l 1,1,-1
 689 921 l 1,2,-1
 557 367 l 1,0,-1
20 0 m 1,3,-1
 466 1365 l 1,4,-1
 906 1365 l 1,5,-1
 1357 0 l 1,6,-1
 20 0 l 1,3,-1
EndSplineSet
EndChar

StartChar: guillemotleft
Encoding: 171 171 165
Width: 1094
Flags: MW
LayerCount: 2
Fore
SplineSet
869.5 931.5 m 128,-1,1
 924 973 924 973 963 973 c 128,-1,2
 1002 973 1002 973 1031 947.5 c 128,-1,3
 1060 922 1060 922 1060 892.5 c 128,-1,4
 1060 863 1060 863 1045 835.5 c 128,-1,5
 1030 808 1030 808 956 697 c 128,-1,6
 882 586 882 586 882 544 c 128,-1,7
 882 502 882 502 909 453 c 128,-1,8
 936 404 936 404 1047 234 c 0,9,10
 1066 205 1066 205 1066 173 c 128,-1,11
 1066 141 1066 141 1039 113.5 c 128,-1,12
 1012 86 1012 86 975.5 86 c 128,-1,13
 939 86 939 86 859 146.5 c 128,-1,14
 779 207 779 207 664.5 329.5 c 128,-1,15
 550 452 550 452 550 534 c 0,16,17
 550 578 550 578 586 633 c 128,-1,18
 622 688 622 688 718.5 789 c 128,-1,0
 815 890 815 890 869.5 931.5 c 128,-1,1
346.5 930.5 m 128,-1,20
 401 972 401 972 440 972 c 128,-1,21
 479 972 479 972 508 946.5 c 128,-1,22
 537 921 537 921 537 891.5 c 128,-1,23
 537 862 537 862 521.5 833.5 c 128,-1,24
 506 805 506 805 432.5 695.5 c 128,-1,25
 359 586 359 586 359 543.5 c 128,-1,26
 359 501 359 501 386 452.5 c 128,-1,27
 413 404 413 404 524 233 c 0,28,29
 543 205 543 205 543 172.5 c 128,-1,30
 543 140 543 140 515.5 112.5 c 128,-1,31
 488 85 488 85 452 85 c 128,-1,32
 416 85 416 85 336 145.5 c 128,-1,33
 256 206 256 206 141.5 328.5 c 128,-1,34
 27 451 27 451 27 533 c 0,35,36
 27 577 27 577 63 631.5 c 128,-1,37
 99 686 99 686 195.5 787.5 c 128,-1,19
 292 889 292 889 346.5 930.5 c 128,-1,20
EndSplineSet
EndChar

StartChar: guillemotright
Encoding: 187 187 166
Width: 1094
Flags: MW
LayerCount: 2
Fore
SplineSet
62 948 m 128,-1,1
 91 973 91 973 131.5 973 c 128,-1,2
 172 973 172 973 236 922 c 128,-1,3
 300 871 300 871 393.5 769 c 128,-1,4
 487 667 487 667 515 621 c 128,-1,5
 543 575 543 575 543 534 c 0,6,7
 543 444 543 444 366.5 265 c 128,-1,8
 190 86 190 86 114 86 c 0,9,10
 81 86 81 86 54 113.5 c 128,-1,11
 27 141 27 141 27 169 c 128,-1,12
 27 197 27 197 40 221 c 128,-1,13
 53 245 53 245 132 366 c 128,-1,14
 211 487 211 487 211 536.5 c 128,-1,15
 211 586 211 586 137 697 c 128,-1,16
 63 808 63 808 48 835.5 c 128,-1,17
 33 863 33 863 33 893 c 128,-1,0
 33 923 33 923 62 948 c 128,-1,1
585 946 m 128,-1,19
 614 971 614 971 654.5 971 c 128,-1,20
 695 971 695 971 759 920 c 128,-1,21
 823 869 823 869 916.5 767 c 128,-1,22
 1010 665 1010 665 1038 619 c 128,-1,23
 1066 573 1066 573 1066 533 c 0,24,25
 1066 442 1066 442 889.5 263.5 c 128,-1,26
 713 85 713 85 637 85 c 0,27,28
 604 85 604 85 577 112.5 c 128,-1,29
 550 140 550 140 550 168.5 c 128,-1,30
 550 197 550 197 563 220.5 c 128,-1,31
 576 244 576 244 655 364.5 c 128,-1,32
 734 485 734 485 734 535 c 128,-1,33
 734 585 734 585 660 695.5 c 128,-1,34
 586 806 586 806 571 833.5 c 128,-1,35
 556 861 556 861 556 891 c 128,-1,18
 556 921 556 921 585 946 c 128,-1,19
EndSplineSet
EndChar

StartChar: ellipsis
Encoding: 8230 8230 167
Width: 1843
Flags: MW
LayerCount: 2
Fore
SplineSet
1537 -27 m 0
 1442 -27 1442 -27 1371.5 40 c 0
 1301 107 1301 107 1301 210 c 0
 1301 313 1301 313 1371.5 378 c 0
 1442 443 1442 443 1537 444 c 0
 1632 445 1632 445 1702.5 378.5 c 0
 1773 312 1773 312 1773 209 c 0
 1773 106 1773 106 1702.5 39.5 c 0
 1632 -27 1632 -27 1537 -27 c 0
EndSplineSet
Refer: 13 46 S 1 0 0 1 614 0 2
Refer: 13 46 S 1 0 0 1 0 0 2
EndChar

StartChar: Agrave
Encoding: 192 192 168
Width: 1693
Flags: MW
LayerCount: 2
Fore
SplineSet
863 1753 m 1
 848 1709 l 1
 848 1694 848 1694 858 1684 c 0
 868 1674 868 1674 913 1641 c 1
 933 1625 l 1
 984 1586 984 1586 984 1549 c 0
 984 1475 984 1475 881 1475 c 0
 699 1475 699 1475 547 1591 c 0
 462 1657 462 1657 462 1703.5 c 0
 462 1750 462 1750 529.5 1780.5 c 0
 597 1811 597 1811 684.5 1811.5 c 0
 772 1812 772 1812 817.5 1795.5 c 0
 863 1779 863 1779 863 1753 c 1
EndSplineSet
Refer: 32 65 N 1 0 0 1 0 0 3
EndChar

StartChar: Atilde
Encoding: 195 195 169
Width: 1693
Flags: MW
LayerCount: 2
Fore
SplineSet
576 1822 m 0
 613 1824 613 1824 648.5 1814 c 0
 684 1804 684 1804 802.520547945 1752.5 c 0
 921.04109589 1701 921.04109589 1701 944.520547945 1701 c 0
 968 1701 968 1701 971 1727 c 1
 971 1760 l 2
 971 1786 971 1786 999.5 1805.5 c 0
 1028 1825 1028 1825 1077.5 1825 c 0
 1127 1825 1127 1825 1162 1787 c 0
 1197 1749 1197 1749 1197 1676.5 c 0
 1197 1604 1197 1604 1142.5 1543.5 c 0
 1088 1483 1088 1483 1015 1483 c 0
 972 1483 972 1483 891 1510 c 0
 810 1537 810 1537 740.5 1574 c 0
 671 1611 671 1611 650 1611 c 0
 629 1611 629 1611 618 1604.5 c 0
 607 1598 607 1598 607 1591 c 2
 609 1540 l 2
 609 1522 609 1522 580 1506.5 c 0
 551 1491 551 1491 515 1491 c 0
 479 1491 479 1491 439 1525 c 0
 399 1559 399 1559 399 1641.5 c 0
 399 1724 399 1724 446 1771 c 0
 493 1818 493 1818 576 1822 c 0
EndSplineSet
Refer: 32 65 N 1 0 0 1 0 0 3
EndChar

StartChar: Otilde
Encoding: 213 213 170
Width: 1594
Flags: MW
LayerCount: 2
Fore
SplineSet
588 1822 m 0
 625 1824 625 1824 660.5 1814 c 0
 696 1804 696 1804 814.520547945 1752.5 c 0
 933.04109589 1701 933.04109589 1701 956.520547945 1701 c 0
 980 1701 980 1701 983 1727 c 1
 983 1760 l 2
 983 1786 983 1786 1011.5 1805.5 c 0
 1040 1825 1040 1825 1089.5 1825 c 0
 1139 1825 1139 1825 1174 1787 c 0
 1209 1749 1209 1749 1209 1676.5 c 0
 1209 1604 1209 1604 1154.5 1543.5 c 0
 1100 1483 1100 1483 1027 1483 c 0
 984 1483 984 1483 903 1510 c 0
 822 1537 822 1537 752.5 1574 c 0
 683 1611 683 1611 662 1611 c 0
 641 1611 641 1611 630 1604.5 c 0
 619 1598 619 1598 619 1591 c 2
 621 1540 l 2
 621 1522 621 1522 592 1506.5 c 0
 563 1491 563 1491 527 1491 c 0
 491 1491 491 1491 451 1525 c 0
 411 1559 411 1559 411 1641.5 c 0
 411 1724 411 1724 458 1771 c 0
 505 1818 505 1818 588 1822 c 0
EndSplineSet
Refer: 46 79 N 1 0 0 1 0 0 3
EndChar

StartChar: OE
Encoding: 338 338 171
Width: 2218
Flags: MW
LayerCount: 2
Fore
SplineSet
693 1110 m 0,0,1
 620 1110 620 1110 574 1051 c 128,-1,2
 528 992 528 992 528 898 c 0,3,4
 528 744 528 744 588 578 c 128,-1,5
 648 412 648 412 714.5 339.5 c 128,-1,6
 781 267 781 267 856 267 c 128,-1,7
 931 267 931 267 978 325 c 128,-1,8
 1025 383 1025 383 1025 487.5 c 128,-1,9
 1025 592 1025 592 985.5 733 c 0,10,11
 880.801499752 1106.73388696 880.801499752 1106.73388696 693 1110 c 0,0,1
990 0 m 1,12,-1
 760 -16 l 1,13,14
 501 -16 501 -16 315 134 c 0,15,16
 216 214 216 214 147 338 c 0,17,18
 48 514 48 514 48 712 c 128,-1,19
 48 910 48 910 165.5 1081.5 c 128,-1,20
 283 1253 283 1253 478 1331 c 0,21,22
 616 1386 616 1386 759 1386 c 1,23,-1
 1080 1368 l 1,24,-1
 1737 1368 l 2,25,26
 1881.84 1368 1881.84 1368 1931.42 1386.5 c 128,-1,27
 1981 1405 1981 1405 1999 1405 c 0,28,29
 2057 1405 2057 1405 2090.5 1355 c 128,-1,30
 2124 1305 2124 1305 2144.5 1236 c 128,-1,31
 2165 1167 2165 1167 2165 1110.5 c 128,-1,32
 2165 1054 2165 1054 2134.5 1018 c 128,-1,33
 2104 982 2104 982 2052.5 982 c 128,-1,34
 2001 982 2001 982 1962.5 1040.5 c 128,-1,35
 1924 1099 1924 1099 1904 1117 c 0,36,37
 1841.77777778 1173 1841.77777778 1173 1640 1173 c 0,38,39
 1546 1173 1546 1173 1521 1155 c 128,-1,40
 1496 1137 1496 1137 1491 1116 c 128,-1,41
 1486 1095 1486 1095 1486 1037 c 2,42,-1
 1486 876 l 2,43,44
 1486 838 1486 838 1491.5 825 c 0,45,46
 1503.76923077 796 1503.76923077 796 1606 796 c 0,47,48
 1668 796 1668 796 1684 839 c 0,49,50
 1689 850 1689 850 1696.5 903.5 c 0,51,52
 1711.28971963 1009 1711.28971963 1009 1786 1009 c 0,53,54
 1903 1009 1903 1009 1903 715 c 0,55,56
 1903 545 1903 545 1851 452 c 0,57,58
 1820 397 1820 397 1779 397 c 128,-1,59
 1738 397 1738 397 1722.5 418 c 128,-1,60
 1707 439 1707 439 1703 491 c 0,61,62
 1693 604 1693 604 1580 604 c 0,63,64
 1527 604 1527 604 1510 576.5 c 128,-1,65
 1493 549 1493 549 1493 426.5 c 128,-1,66
 1493 304 1493 304 1520 241 c 0,67,68
 1531 215 1531 215 1571.5 206.5 c 128,-1,69
 1612 198 1612 198 1704.5 198 c 128,-1,70
 1797 198 1797 198 1830.5 208 c 0,71,72
 1919.85788527 234.673995603 1919.85788527 234.673995603 1995 374 c 0,73,74
 2042 459 2042 459 2110 459 c 0,75,76
 2153 459 2153 459 2179 428 c 128,-1,77
 2205 397 2205 397 2205 340 c 128,-1,78
 2205 283 2205 283 2178.5 206.5 c 128,-1,79
 2152 130 2152 130 2100.5 51.5 c 128,-1,80
 2049 -27 2049 -27 1994 -27 c 0,81,82
 1977 -27 1977 -27 1931.5 -13 c 128,-1,83
 1886 1 1886 1 1847 0 c 1,84,-1
 990 0 l 1,12,-1
EndSplineSet
EndChar

